M48
; DRILL file {KiCad 5.1.9} date Tue Jun 15 13:05:49 2021
; FORMAT={-:-/ absolute / inch / decimal}
; #@! TF.CreationDate,2021-06-15T13:05:49+08:00
; #@! TF.GenerationSoftware,Kicad,Pcbnew,5.1.9
; #@! TF.FileFunction,Plated,1,2,PTH
FMAT,2
INCH
T1C0.0236
T2C0.0362
T3C0.0394
T4C0.0433
T5C0.0906
%
G90
G05
T2
X3.7744Y-2.5067
X3.8728Y-2.5067
X3.9516Y-2.5067
X4.05Y-2.5067
T3
X2.05Y-4.35
X3.9Y-4.35
T4
X2.9Y-4.2441
X2.9Y-4.5
X3.0772Y-4.2441
X3.0772Y-4.5
T5
X3.6535Y-2.4
X4.1709Y-2.4
T1
G00X1.8799Y-2.1612
M15
G01X1.8799Y-2.1376
M16
G05
G00X1.8799Y-2.3356
M15
G01X1.8799Y-2.2923
M16
G05
G00X2.2201Y-2.1612
M15
G01X2.2201Y-2.1376
M16
G05
G00X2.2201Y-2.3356
M15
G01X2.2201Y-2.2923
M16
G05
T0
M30
