%TF.GenerationSoftware,KiCad,Pcbnew,5.1.9*%
%TF.CreationDate,2021-06-15T13:05:46+08:00*%
%TF.ProjectId,Power-TEST,506f7765-722d-4544-9553-542e6b696361,rev?*%
%TF.SameCoordinates,Original*%
%TF.FileFunction,Legend,Top*%
%TF.FilePolarity,Positive*%
%FSLAX46Y46*%
G04 Gerber Fmt 4.6, Leading zero omitted, Abs format (unit mm)*
G04 Created by KiCad (PCBNEW 5.1.9) date 2021-06-15 13:05:46*
%MOMM*%
%LPD*%
G01*
G04 APERTURE LIST*
%ADD10C,0.150000*%
%ADD11C,0.120000*%
%ADD12C,0.200000*%
%ADD13C,0.015000*%
%ADD14C,0.254000*%
G04 APERTURE END LIST*
D10*
X112212380Y-117815238D02*
X111212380Y-117815238D01*
X111212380Y-117577142D01*
X111260000Y-117434285D01*
X111355238Y-117339047D01*
X111450476Y-117291428D01*
X111640952Y-117243809D01*
X111783809Y-117243809D01*
X111974285Y-117291428D01*
X112069523Y-117339047D01*
X112164761Y-117434285D01*
X112212380Y-117577142D01*
X112212380Y-117815238D01*
X112164761Y-116434285D02*
X112212380Y-116529523D01*
X112212380Y-116720000D01*
X112164761Y-116815238D01*
X112069523Y-116862857D01*
X111688571Y-116862857D01*
X111593333Y-116815238D01*
X111545714Y-116720000D01*
X111545714Y-116529523D01*
X111593333Y-116434285D01*
X111688571Y-116386666D01*
X111783809Y-116386666D01*
X111879047Y-116862857D01*
X112164761Y-116005714D02*
X112212380Y-115910476D01*
X112212380Y-115720000D01*
X112164761Y-115624761D01*
X112069523Y-115577142D01*
X112021904Y-115577142D01*
X111926666Y-115624761D01*
X111879047Y-115720000D01*
X111879047Y-115862857D01*
X111831428Y-115958095D01*
X111736190Y-116005714D01*
X111688571Y-116005714D01*
X111593333Y-115958095D01*
X111545714Y-115862857D01*
X111545714Y-115720000D01*
X111593333Y-115624761D01*
X112212380Y-115148571D02*
X111545714Y-115148571D01*
X111212380Y-115148571D02*
X111260000Y-115196190D01*
X111307619Y-115148571D01*
X111260000Y-115100952D01*
X111212380Y-115148571D01*
X111307619Y-115148571D01*
X111545714Y-114243809D02*
X112355238Y-114243809D01*
X112450476Y-114291428D01*
X112498095Y-114339047D01*
X112545714Y-114434285D01*
X112545714Y-114577142D01*
X112498095Y-114672380D01*
X112164761Y-114243809D02*
X112212380Y-114339047D01*
X112212380Y-114529523D01*
X112164761Y-114624761D01*
X112117142Y-114672380D01*
X112021904Y-114720000D01*
X111736190Y-114720000D01*
X111640952Y-114672380D01*
X111593333Y-114624761D01*
X111545714Y-114529523D01*
X111545714Y-114339047D01*
X111593333Y-114243809D01*
X111545714Y-113767619D02*
X112212380Y-113767619D01*
X111640952Y-113767619D02*
X111593333Y-113720000D01*
X111545714Y-113624761D01*
X111545714Y-113481904D01*
X111593333Y-113386666D01*
X111688571Y-113339047D01*
X112212380Y-113339047D01*
X112164761Y-112481904D02*
X112212380Y-112577142D01*
X112212380Y-112767619D01*
X112164761Y-112862857D01*
X112069523Y-112910476D01*
X111688571Y-112910476D01*
X111593333Y-112862857D01*
X111545714Y-112767619D01*
X111545714Y-112577142D01*
X111593333Y-112481904D01*
X111688571Y-112434285D01*
X111783809Y-112434285D01*
X111879047Y-112910476D01*
X112212380Y-111577142D02*
X111212380Y-111577142D01*
X112164761Y-111577142D02*
X112212380Y-111672380D01*
X112212380Y-111862857D01*
X112164761Y-111958095D01*
X112117142Y-112005714D01*
X112021904Y-112053333D01*
X111736190Y-112053333D01*
X111640952Y-112005714D01*
X111593333Y-111958095D01*
X111545714Y-111862857D01*
X111545714Y-111672380D01*
X111593333Y-111577142D01*
X112212380Y-110339047D02*
X111212380Y-110339047D01*
X111593333Y-110339047D02*
X111545714Y-110243809D01*
X111545714Y-110053333D01*
X111593333Y-109958095D01*
X111640952Y-109910476D01*
X111736190Y-109862857D01*
X112021904Y-109862857D01*
X112117142Y-109910476D01*
X112164761Y-109958095D01*
X112212380Y-110053333D01*
X112212380Y-110243809D01*
X112164761Y-110339047D01*
X111545714Y-109529523D02*
X112212380Y-109291428D01*
X111545714Y-109053333D02*
X112212380Y-109291428D01*
X112450476Y-109386666D01*
X112498095Y-109434285D01*
X112545714Y-109529523D01*
X111212380Y-107624761D02*
X111926666Y-107624761D01*
X112069523Y-107672380D01*
X112164761Y-107767619D01*
X112212380Y-107910476D01*
X112212380Y-108005714D01*
X112212380Y-106720000D02*
X111688571Y-106720000D01*
X111593333Y-106767619D01*
X111545714Y-106862857D01*
X111545714Y-107053333D01*
X111593333Y-107148571D01*
X112164761Y-106720000D02*
X112212380Y-106815238D01*
X112212380Y-107053333D01*
X112164761Y-107148571D01*
X112069523Y-107196190D01*
X111974285Y-107196190D01*
X111879047Y-107148571D01*
X111831428Y-107053333D01*
X111831428Y-106815238D01*
X111783809Y-106720000D01*
X112164761Y-105815238D02*
X112212380Y-105910476D01*
X112212380Y-106100952D01*
X112164761Y-106196190D01*
X112117142Y-106243809D01*
X112021904Y-106291428D01*
X111736190Y-106291428D01*
X111640952Y-106243809D01*
X111593333Y-106196190D01*
X111545714Y-106100952D01*
X111545714Y-105910476D01*
X111593333Y-105815238D01*
X112212380Y-105386666D02*
X111212380Y-105386666D01*
X111831428Y-105291428D02*
X112212380Y-105005714D01*
X111545714Y-105005714D02*
X111926666Y-105386666D01*
X112117142Y-103243809D02*
X112164761Y-103291428D01*
X112212380Y-103434285D01*
X112212380Y-103529523D01*
X112164761Y-103672380D01*
X112069523Y-103767619D01*
X111974285Y-103815238D01*
X111783809Y-103862857D01*
X111640952Y-103862857D01*
X111450476Y-103815238D01*
X111355238Y-103767619D01*
X111260000Y-103672380D01*
X111212380Y-103529523D01*
X111212380Y-103434285D01*
X111260000Y-103291428D01*
X111307619Y-103243809D01*
X112212380Y-102815238D02*
X111212380Y-102815238D01*
X112212380Y-102386666D02*
X111688571Y-102386666D01*
X111593333Y-102434285D01*
X111545714Y-102529523D01*
X111545714Y-102672380D01*
X111593333Y-102767619D01*
X111640952Y-102815238D01*
X112164761Y-101529523D02*
X112212380Y-101624761D01*
X112212380Y-101815238D01*
X112164761Y-101910476D01*
X112069523Y-101958095D01*
X111688571Y-101958095D01*
X111593333Y-101910476D01*
X111545714Y-101815238D01*
X111545714Y-101624761D01*
X111593333Y-101529523D01*
X111688571Y-101481904D01*
X111783809Y-101481904D01*
X111879047Y-101958095D01*
X111545714Y-101053333D02*
X112212380Y-101053333D01*
X111640952Y-101053333D02*
X111593333Y-101005714D01*
X111545714Y-100910476D01*
X111545714Y-100767619D01*
X111593333Y-100672380D01*
X111688571Y-100624761D01*
X112212380Y-100624761D01*
D11*
%TO.C,C3*%
X101978767Y-98300000D02*
X101686233Y-98300000D01*
X101978767Y-97280000D02*
X101686233Y-97280000D01*
%TO.C,J3*%
X50740000Y-111820000D02*
X53400000Y-111820000D01*
X50740000Y-111700000D02*
X50740000Y-111820000D01*
X53400000Y-111700000D02*
X53400000Y-111820000D01*
X53400000Y-109160000D02*
X53400000Y-110490000D01*
X52070000Y-109160000D02*
X53400000Y-109160000D01*
%TO.C,J2*%
X97730000Y-111820000D02*
X100390000Y-111820000D01*
X97730000Y-111700000D02*
X97730000Y-111820000D01*
X100390000Y-111700000D02*
X100390000Y-111820000D01*
X100390000Y-109160000D02*
X100390000Y-110490000D01*
X99060000Y-109160000D02*
X100390000Y-109160000D01*
%TO.C,R7*%
X54075000Y-64812936D02*
X54075000Y-65267064D01*
X52605000Y-64812936D02*
X52605000Y-65267064D01*
%TO.C,R6*%
X51535000Y-64812936D02*
X51535000Y-65267064D01*
X50065000Y-64812936D02*
X50065000Y-65267064D01*
%TO.C,C1*%
X61695000Y-74901248D02*
X61695000Y-75423752D01*
X60225000Y-74901248D02*
X60225000Y-75423752D01*
%TO.C,C2*%
X62765000Y-69821248D02*
X62765000Y-70343752D01*
X64235000Y-69821248D02*
X64235000Y-70343752D01*
%TO.C,C4*%
X81815000Y-69878752D02*
X81815000Y-69356248D01*
X83285000Y-69878752D02*
X83285000Y-69356248D01*
%TO.C,C5*%
X84355000Y-69878752D02*
X84355000Y-69356248D01*
X85825000Y-69878752D02*
X85825000Y-69356248D01*
%TO.C,C6*%
X88365000Y-69878752D02*
X88365000Y-69356248D01*
X86895000Y-69878752D02*
X86895000Y-69356248D01*
%TO.C,C7*%
X90905000Y-69878752D02*
X90905000Y-69356248D01*
X89435000Y-69878752D02*
X89435000Y-69356248D01*
%TO.C,C8*%
X88365000Y-99031248D02*
X88365000Y-99553752D01*
X86895000Y-99031248D02*
X86895000Y-99553752D01*
%TO.C,C9*%
X89435000Y-99031248D02*
X89435000Y-99553752D01*
X90905000Y-99031248D02*
X90905000Y-99553752D01*
%TO.C,D1*%
X48775000Y-77160000D02*
X51635000Y-77160000D01*
X51635000Y-77160000D02*
X51635000Y-75240000D01*
X51635000Y-75240000D02*
X48775000Y-75240000D01*
%TO.C,D2*%
X47915000Y-83510000D02*
X50775000Y-83510000D01*
X47915000Y-81590000D02*
X47915000Y-83510000D01*
X50775000Y-81590000D02*
X47915000Y-81590000D01*
%TO.C,D3*%
X47915000Y-89860000D02*
X50775000Y-89860000D01*
X47915000Y-87940000D02*
X47915000Y-89860000D01*
X50775000Y-87940000D02*
X47915000Y-87940000D01*
%TO.C,D4*%
X48775000Y-96210000D02*
X51635000Y-96210000D01*
X51635000Y-96210000D02*
X51635000Y-94290000D01*
X51635000Y-94290000D02*
X48775000Y-94290000D01*
D12*
%TO.C,IC1*%
X103520000Y-89585000D02*
X103520000Y-90835000D01*
X100460000Y-91185000D02*
X103380000Y-91185000D01*
X100460000Y-91735000D02*
X100460000Y-91185000D01*
X103380000Y-91735000D02*
X100460000Y-91735000D01*
X103380000Y-91185000D02*
X103380000Y-91735000D01*
%TO.C,IC2*%
X67645000Y-79945000D02*
X69170000Y-79945000D01*
D11*
%TO.C,J1*%
X56770000Y-51745000D02*
X47370000Y-51745000D01*
X47370000Y-57545000D02*
X47370000Y-55545000D01*
X47370000Y-53645000D02*
X47370000Y-51745000D01*
X56770000Y-57545000D02*
X56770000Y-55545000D01*
X56770000Y-53645000D02*
X56770000Y-51745000D01*
%TO.C,J4*%
X106620000Y-50680000D02*
X92120000Y-50680000D01*
X92120000Y-50680000D02*
X92120000Y-51180000D01*
X92120000Y-51180000D02*
X93120000Y-51180000D01*
X93120000Y-51180000D02*
X93120000Y-59180000D01*
X93120000Y-62680000D02*
X93120000Y-64680000D01*
X93120000Y-64680000D02*
X105620000Y-64680000D01*
X105620000Y-64680000D02*
X105620000Y-62680000D01*
X105620000Y-59180000D02*
X105620000Y-51180000D01*
X105620000Y-51180000D02*
X106620000Y-51180000D01*
X106620000Y-51180000D02*
X106620000Y-50680000D01*
X103370000Y-64930000D02*
X102370000Y-64930000D01*
%TO.C,L1*%
X87339758Y-89460000D02*
X88160242Y-89460000D01*
X87339758Y-88340000D02*
X88160242Y-88340000D01*
D12*
%TO.C,Q1*%
X103445000Y-72525000D02*
X103445000Y-74000000D01*
X100430000Y-74350000D02*
X103360000Y-74350000D01*
X100430000Y-78050000D02*
X100430000Y-74350000D01*
X103360000Y-78050000D02*
X100430000Y-78050000D01*
X103360000Y-74350000D02*
X103360000Y-78050000D01*
D11*
%TO.C,R1*%
X60225000Y-69892936D02*
X60225000Y-70347064D01*
X61695000Y-69892936D02*
X61695000Y-70347064D01*
%TO.C,R2*%
X101372936Y-84825000D02*
X101827064Y-84825000D01*
X101372936Y-83355000D02*
X101827064Y-83355000D01*
%TO.C,R3*%
X101642936Y-101065000D02*
X102097064Y-101065000D01*
X101642936Y-99595000D02*
X102097064Y-99595000D01*
%TO.C,R4*%
X72925000Y-93207064D02*
X72925000Y-92752936D01*
X74395000Y-93207064D02*
X74395000Y-92752936D01*
%TO.C,R5*%
X87857064Y-90975000D02*
X87402936Y-90975000D01*
X87857064Y-92445000D02*
X87402936Y-92445000D01*
%TO.C,SW1*%
X76660000Y-107550000D02*
X75160000Y-107550000D01*
X72660000Y-108800000D02*
X72660000Y-113300000D01*
X75160000Y-114550000D02*
X76660000Y-114550000D01*
X79160000Y-113300000D02*
X79160000Y-108800000D01*
%TO.C,C3*%
D10*
X101665833Y-99577142D02*
X101618214Y-99624761D01*
X101475357Y-99672380D01*
X101380119Y-99672380D01*
X101237261Y-99624761D01*
X101142023Y-99529523D01*
X101094404Y-99434285D01*
X101046785Y-99243809D01*
X101046785Y-99100952D01*
X101094404Y-98910476D01*
X101142023Y-98815238D01*
X101237261Y-98720000D01*
X101380119Y-98672380D01*
X101475357Y-98672380D01*
X101618214Y-98720000D01*
X101665833Y-98767619D01*
X101999166Y-98672380D02*
X102618214Y-98672380D01*
X102284880Y-99053333D01*
X102427738Y-99053333D01*
X102522976Y-99100952D01*
X102570595Y-99148571D01*
X102618214Y-99243809D01*
X102618214Y-99481904D01*
X102570595Y-99577142D01*
X102522976Y-99624761D01*
X102427738Y-99672380D01*
X102142023Y-99672380D01*
X102046785Y-99624761D01*
X101999166Y-99577142D01*
%TO.C,J3*%
X51736666Y-107172380D02*
X51736666Y-107886666D01*
X51689047Y-108029523D01*
X51593809Y-108124761D01*
X51450952Y-108172380D01*
X51355714Y-108172380D01*
X52117619Y-107172380D02*
X52736666Y-107172380D01*
X52403333Y-107553333D01*
X52546190Y-107553333D01*
X52641428Y-107600952D01*
X52689047Y-107648571D01*
X52736666Y-107743809D01*
X52736666Y-107981904D01*
X52689047Y-108077142D01*
X52641428Y-108124761D01*
X52546190Y-108172380D01*
X52260476Y-108172380D01*
X52165238Y-108124761D01*
X52117619Y-108077142D01*
%TO.C,J2*%
X98726666Y-107172380D02*
X98726666Y-107886666D01*
X98679047Y-108029523D01*
X98583809Y-108124761D01*
X98440952Y-108172380D01*
X98345714Y-108172380D01*
X99155238Y-107267619D02*
X99202857Y-107220000D01*
X99298095Y-107172380D01*
X99536190Y-107172380D01*
X99631428Y-107220000D01*
X99679047Y-107267619D01*
X99726666Y-107362857D01*
X99726666Y-107458095D01*
X99679047Y-107600952D01*
X99107619Y-108172380D01*
X99726666Y-108172380D01*
%TO.C,R7*%
X55442380Y-65206666D02*
X54966190Y-65540000D01*
X55442380Y-65778095D02*
X54442380Y-65778095D01*
X54442380Y-65397142D01*
X54490000Y-65301904D01*
X54537619Y-65254285D01*
X54632857Y-65206666D01*
X54775714Y-65206666D01*
X54870952Y-65254285D01*
X54918571Y-65301904D01*
X54966190Y-65397142D01*
X54966190Y-65778095D01*
X54442380Y-64873333D02*
X54442380Y-64206666D01*
X55442380Y-64635238D01*
%TO.C,R6*%
X52902380Y-65206666D02*
X52426190Y-65540000D01*
X52902380Y-65778095D02*
X51902380Y-65778095D01*
X51902380Y-65397142D01*
X51950000Y-65301904D01*
X51997619Y-65254285D01*
X52092857Y-65206666D01*
X52235714Y-65206666D01*
X52330952Y-65254285D01*
X52378571Y-65301904D01*
X52426190Y-65397142D01*
X52426190Y-65778095D01*
X51902380Y-64349523D02*
X51902380Y-64540000D01*
X51950000Y-64635238D01*
X51997619Y-64682857D01*
X52140476Y-64778095D01*
X52330952Y-64825714D01*
X52711904Y-64825714D01*
X52807142Y-64778095D01*
X52854761Y-64730476D01*
X52902380Y-64635238D01*
X52902380Y-64444761D01*
X52854761Y-64349523D01*
X52807142Y-64301904D01*
X52711904Y-64254285D01*
X52473809Y-64254285D01*
X52378571Y-64301904D01*
X52330952Y-64349523D01*
X52283333Y-64444761D01*
X52283333Y-64635238D01*
X52330952Y-64730476D01*
X52378571Y-64778095D01*
X52473809Y-64825714D01*
%TO.C,C1*%
X62997142Y-75329166D02*
X63044761Y-75376785D01*
X63092380Y-75519642D01*
X63092380Y-75614880D01*
X63044761Y-75757738D01*
X62949523Y-75852976D01*
X62854285Y-75900595D01*
X62663809Y-75948214D01*
X62520952Y-75948214D01*
X62330476Y-75900595D01*
X62235238Y-75852976D01*
X62140000Y-75757738D01*
X62092380Y-75614880D01*
X62092380Y-75519642D01*
X62140000Y-75376785D01*
X62187619Y-75329166D01*
X63092380Y-74376785D02*
X63092380Y-74948214D01*
X63092380Y-74662500D02*
X62092380Y-74662500D01*
X62235238Y-74757738D01*
X62330476Y-74852976D01*
X62378095Y-74948214D01*
%TO.C,C2*%
X65537142Y-70249166D02*
X65584761Y-70296785D01*
X65632380Y-70439642D01*
X65632380Y-70534880D01*
X65584761Y-70677738D01*
X65489523Y-70772976D01*
X65394285Y-70820595D01*
X65203809Y-70868214D01*
X65060952Y-70868214D01*
X64870476Y-70820595D01*
X64775238Y-70772976D01*
X64680000Y-70677738D01*
X64632380Y-70534880D01*
X64632380Y-70439642D01*
X64680000Y-70296785D01*
X64727619Y-70249166D01*
X64727619Y-69868214D02*
X64680000Y-69820595D01*
X64632380Y-69725357D01*
X64632380Y-69487261D01*
X64680000Y-69392023D01*
X64727619Y-69344404D01*
X64822857Y-69296785D01*
X64918095Y-69296785D01*
X65060952Y-69344404D01*
X65632380Y-69915833D01*
X65632380Y-69296785D01*
%TO.C,C4*%
X81227142Y-69784166D02*
X81274761Y-69831785D01*
X81322380Y-69974642D01*
X81322380Y-70069880D01*
X81274761Y-70212738D01*
X81179523Y-70307976D01*
X81084285Y-70355595D01*
X80893809Y-70403214D01*
X80750952Y-70403214D01*
X80560476Y-70355595D01*
X80465238Y-70307976D01*
X80370000Y-70212738D01*
X80322380Y-70069880D01*
X80322380Y-69974642D01*
X80370000Y-69831785D01*
X80417619Y-69784166D01*
X80655714Y-68927023D02*
X81322380Y-68927023D01*
X80274761Y-69165119D02*
X80989047Y-69403214D01*
X80989047Y-68784166D01*
%TO.C,C5*%
X83767142Y-69784166D02*
X83814761Y-69831785D01*
X83862380Y-69974642D01*
X83862380Y-70069880D01*
X83814761Y-70212738D01*
X83719523Y-70307976D01*
X83624285Y-70355595D01*
X83433809Y-70403214D01*
X83290952Y-70403214D01*
X83100476Y-70355595D01*
X83005238Y-70307976D01*
X82910000Y-70212738D01*
X82862380Y-70069880D01*
X82862380Y-69974642D01*
X82910000Y-69831785D01*
X82957619Y-69784166D01*
X82862380Y-68879404D02*
X82862380Y-69355595D01*
X83338571Y-69403214D01*
X83290952Y-69355595D01*
X83243333Y-69260357D01*
X83243333Y-69022261D01*
X83290952Y-68927023D01*
X83338571Y-68879404D01*
X83433809Y-68831785D01*
X83671904Y-68831785D01*
X83767142Y-68879404D01*
X83814761Y-68927023D01*
X83862380Y-69022261D01*
X83862380Y-69260357D01*
X83814761Y-69355595D01*
X83767142Y-69403214D01*
%TO.C,C6*%
X86307142Y-69784166D02*
X86354761Y-69831785D01*
X86402380Y-69974642D01*
X86402380Y-70069880D01*
X86354761Y-70212738D01*
X86259523Y-70307976D01*
X86164285Y-70355595D01*
X85973809Y-70403214D01*
X85830952Y-70403214D01*
X85640476Y-70355595D01*
X85545238Y-70307976D01*
X85450000Y-70212738D01*
X85402380Y-70069880D01*
X85402380Y-69974642D01*
X85450000Y-69831785D01*
X85497619Y-69784166D01*
X85402380Y-68927023D02*
X85402380Y-69117500D01*
X85450000Y-69212738D01*
X85497619Y-69260357D01*
X85640476Y-69355595D01*
X85830952Y-69403214D01*
X86211904Y-69403214D01*
X86307142Y-69355595D01*
X86354761Y-69307976D01*
X86402380Y-69212738D01*
X86402380Y-69022261D01*
X86354761Y-68927023D01*
X86307142Y-68879404D01*
X86211904Y-68831785D01*
X85973809Y-68831785D01*
X85878571Y-68879404D01*
X85830952Y-68927023D01*
X85783333Y-69022261D01*
X85783333Y-69212738D01*
X85830952Y-69307976D01*
X85878571Y-69355595D01*
X85973809Y-69403214D01*
%TO.C,C7*%
X88847142Y-69784166D02*
X88894761Y-69831785D01*
X88942380Y-69974642D01*
X88942380Y-70069880D01*
X88894761Y-70212738D01*
X88799523Y-70307976D01*
X88704285Y-70355595D01*
X88513809Y-70403214D01*
X88370952Y-70403214D01*
X88180476Y-70355595D01*
X88085238Y-70307976D01*
X87990000Y-70212738D01*
X87942380Y-70069880D01*
X87942380Y-69974642D01*
X87990000Y-69831785D01*
X88037619Y-69784166D01*
X87942380Y-69450833D02*
X87942380Y-68784166D01*
X88942380Y-69212738D01*
%TO.C,C8*%
X89143333Y-99649642D02*
X89095714Y-99697261D01*
X88952857Y-99744880D01*
X88857619Y-99744880D01*
X88714761Y-99697261D01*
X88619523Y-99602023D01*
X88571904Y-99506785D01*
X88524285Y-99316309D01*
X88524285Y-99173452D01*
X88571904Y-98982976D01*
X88619523Y-98887738D01*
X88714761Y-98792500D01*
X88857619Y-98744880D01*
X88952857Y-98744880D01*
X89095714Y-98792500D01*
X89143333Y-98840119D01*
X89714761Y-99173452D02*
X89619523Y-99125833D01*
X89571904Y-99078214D01*
X89524285Y-98982976D01*
X89524285Y-98935357D01*
X89571904Y-98840119D01*
X89619523Y-98792500D01*
X89714761Y-98744880D01*
X89905238Y-98744880D01*
X90000476Y-98792500D01*
X90048095Y-98840119D01*
X90095714Y-98935357D01*
X90095714Y-98982976D01*
X90048095Y-99078214D01*
X90000476Y-99125833D01*
X89905238Y-99173452D01*
X89714761Y-99173452D01*
X89619523Y-99221071D01*
X89571904Y-99268690D01*
X89524285Y-99363928D01*
X89524285Y-99554404D01*
X89571904Y-99649642D01*
X89619523Y-99697261D01*
X89714761Y-99744880D01*
X89905238Y-99744880D01*
X90000476Y-99697261D01*
X90048095Y-99649642D01*
X90095714Y-99554404D01*
X90095714Y-99363928D01*
X90048095Y-99268690D01*
X90000476Y-99221071D01*
X89905238Y-99173452D01*
%TO.C,C9*%
X92207142Y-99459166D02*
X92254761Y-99506785D01*
X92302380Y-99649642D01*
X92302380Y-99744880D01*
X92254761Y-99887738D01*
X92159523Y-99982976D01*
X92064285Y-100030595D01*
X91873809Y-100078214D01*
X91730952Y-100078214D01*
X91540476Y-100030595D01*
X91445238Y-99982976D01*
X91350000Y-99887738D01*
X91302380Y-99744880D01*
X91302380Y-99649642D01*
X91350000Y-99506785D01*
X91397619Y-99459166D01*
X92302380Y-98982976D02*
X92302380Y-98792500D01*
X92254761Y-98697261D01*
X92207142Y-98649642D01*
X92064285Y-98554404D01*
X91873809Y-98506785D01*
X91492857Y-98506785D01*
X91397619Y-98554404D01*
X91350000Y-98602023D01*
X91302380Y-98697261D01*
X91302380Y-98887738D01*
X91350000Y-98982976D01*
X91397619Y-99030595D01*
X91492857Y-99078214D01*
X91730952Y-99078214D01*
X91826190Y-99030595D01*
X91873809Y-98982976D01*
X91921428Y-98887738D01*
X91921428Y-98697261D01*
X91873809Y-98602023D01*
X91826190Y-98554404D01*
X91730952Y-98506785D01*
%TO.C,D1*%
X49036904Y-78302380D02*
X49036904Y-77302380D01*
X49275000Y-77302380D01*
X49417857Y-77350000D01*
X49513095Y-77445238D01*
X49560714Y-77540476D01*
X49608333Y-77730952D01*
X49608333Y-77873809D01*
X49560714Y-78064285D01*
X49513095Y-78159523D01*
X49417857Y-78254761D01*
X49275000Y-78302380D01*
X49036904Y-78302380D01*
X50560714Y-78302380D02*
X49989285Y-78302380D01*
X50275000Y-78302380D02*
X50275000Y-77302380D01*
X50179761Y-77445238D01*
X50084523Y-77540476D01*
X49989285Y-77588095D01*
%TO.C,D2*%
X49036904Y-81352380D02*
X49036904Y-80352380D01*
X49275000Y-80352380D01*
X49417857Y-80400000D01*
X49513095Y-80495238D01*
X49560714Y-80590476D01*
X49608333Y-80780952D01*
X49608333Y-80923809D01*
X49560714Y-81114285D01*
X49513095Y-81209523D01*
X49417857Y-81304761D01*
X49275000Y-81352380D01*
X49036904Y-81352380D01*
X49989285Y-80447619D02*
X50036904Y-80400000D01*
X50132142Y-80352380D01*
X50370238Y-80352380D01*
X50465476Y-80400000D01*
X50513095Y-80447619D01*
X50560714Y-80542857D01*
X50560714Y-80638095D01*
X50513095Y-80780952D01*
X49941666Y-81352380D01*
X50560714Y-81352380D01*
%TO.C,D3*%
X49036904Y-87702380D02*
X49036904Y-86702380D01*
X49275000Y-86702380D01*
X49417857Y-86750000D01*
X49513095Y-86845238D01*
X49560714Y-86940476D01*
X49608333Y-87130952D01*
X49608333Y-87273809D01*
X49560714Y-87464285D01*
X49513095Y-87559523D01*
X49417857Y-87654761D01*
X49275000Y-87702380D01*
X49036904Y-87702380D01*
X49941666Y-86702380D02*
X50560714Y-86702380D01*
X50227380Y-87083333D01*
X50370238Y-87083333D01*
X50465476Y-87130952D01*
X50513095Y-87178571D01*
X50560714Y-87273809D01*
X50560714Y-87511904D01*
X50513095Y-87607142D01*
X50465476Y-87654761D01*
X50370238Y-87702380D01*
X50084523Y-87702380D01*
X49989285Y-87654761D01*
X49941666Y-87607142D01*
%TO.C,D4*%
X49036904Y-97352380D02*
X49036904Y-96352380D01*
X49275000Y-96352380D01*
X49417857Y-96400000D01*
X49513095Y-96495238D01*
X49560714Y-96590476D01*
X49608333Y-96780952D01*
X49608333Y-96923809D01*
X49560714Y-97114285D01*
X49513095Y-97209523D01*
X49417857Y-97304761D01*
X49275000Y-97352380D01*
X49036904Y-97352380D01*
X50465476Y-96685714D02*
X50465476Y-97352380D01*
X50227380Y-96304761D02*
X49989285Y-97019047D01*
X50608333Y-97019047D01*
%TO.C,IC1*%
D13*
X102372380Y-92436190D02*
X101372380Y-92436190D01*
X102277142Y-91388571D02*
X102324761Y-91436190D01*
X102372380Y-91579047D01*
X102372380Y-91674285D01*
X102324761Y-91817142D01*
X102229523Y-91912380D01*
X102134285Y-91960000D01*
X101943809Y-92007619D01*
X101800952Y-92007619D01*
X101610476Y-91960000D01*
X101515238Y-91912380D01*
X101420000Y-91817142D01*
X101372380Y-91674285D01*
X101372380Y-91579047D01*
X101420000Y-91436190D01*
X101467619Y-91388571D01*
X102372380Y-90436190D02*
X102372380Y-91007619D01*
X102372380Y-90721904D02*
X101372380Y-90721904D01*
X101515238Y-90817142D01*
X101610476Y-90912380D01*
X101658095Y-91007619D01*
%TO.C,IC2*%
D14*
X69880238Y-83124523D02*
X69880238Y-81854523D01*
X71210714Y-83003571D02*
X71150238Y-83064047D01*
X70968809Y-83124523D01*
X70847857Y-83124523D01*
X70666428Y-83064047D01*
X70545476Y-82943095D01*
X70485000Y-82822142D01*
X70424523Y-82580238D01*
X70424523Y-82398809D01*
X70485000Y-82156904D01*
X70545476Y-82035952D01*
X70666428Y-81915000D01*
X70847857Y-81854523D01*
X70968809Y-81854523D01*
X71150238Y-81915000D01*
X71210714Y-81975476D01*
X71694523Y-81975476D02*
X71755000Y-81915000D01*
X71875952Y-81854523D01*
X72178333Y-81854523D01*
X72299285Y-81915000D01*
X72359761Y-81975476D01*
X72420238Y-82096428D01*
X72420238Y-82217380D01*
X72359761Y-82398809D01*
X71634047Y-83124523D01*
X72420238Y-83124523D01*
%TO.C,J1*%
D10*
X51736666Y-60742380D02*
X51736666Y-61456666D01*
X51689047Y-61599523D01*
X51593809Y-61694761D01*
X51450952Y-61742380D01*
X51355714Y-61742380D01*
X52736666Y-61742380D02*
X52165238Y-61742380D01*
X52450952Y-61742380D02*
X52450952Y-60742380D01*
X52355714Y-60885238D01*
X52260476Y-60980476D01*
X52165238Y-61028095D01*
%TO.C,J4*%
X99036666Y-65382380D02*
X99036666Y-66096666D01*
X98989047Y-66239523D01*
X98893809Y-66334761D01*
X98750952Y-66382380D01*
X98655714Y-66382380D01*
X99941428Y-65715714D02*
X99941428Y-66382380D01*
X99703333Y-65334761D02*
X99465238Y-66049047D01*
X100084285Y-66049047D01*
%TO.C,L1*%
X87583333Y-87802380D02*
X87107142Y-87802380D01*
X87107142Y-86802380D01*
X88440476Y-87802380D02*
X87869047Y-87802380D01*
X88154761Y-87802380D02*
X88154761Y-86802380D01*
X88059523Y-86945238D01*
X87964285Y-87040476D01*
X87869047Y-87088095D01*
%TO.C,Q1*%
D14*
X102590476Y-76320952D02*
X102530000Y-76441904D01*
X102409047Y-76562857D01*
X102227619Y-76744285D01*
X102167142Y-76865238D01*
X102167142Y-76986190D01*
X102469523Y-76925714D02*
X102409047Y-77046666D01*
X102288095Y-77167619D01*
X102046190Y-77228095D01*
X101622857Y-77228095D01*
X101380952Y-77167619D01*
X101260000Y-77046666D01*
X101199523Y-76925714D01*
X101199523Y-76683809D01*
X101260000Y-76562857D01*
X101380952Y-76441904D01*
X101622857Y-76381428D01*
X102046190Y-76381428D01*
X102288095Y-76441904D01*
X102409047Y-76562857D01*
X102469523Y-76683809D01*
X102469523Y-76925714D01*
X102469523Y-75171904D02*
X102469523Y-75897619D01*
X102469523Y-75534761D02*
X101199523Y-75534761D01*
X101380952Y-75655714D01*
X101501904Y-75776666D01*
X101562380Y-75897619D01*
%TO.C,R1*%
D10*
X62443333Y-70572380D02*
X62110000Y-70096190D01*
X61871904Y-70572380D02*
X61871904Y-69572380D01*
X62252857Y-69572380D01*
X62348095Y-69620000D01*
X62395714Y-69667619D01*
X62443333Y-69762857D01*
X62443333Y-69905714D01*
X62395714Y-70000952D01*
X62348095Y-70048571D01*
X62252857Y-70096190D01*
X61871904Y-70096190D01*
X63395714Y-70572380D02*
X62824285Y-70572380D01*
X63110000Y-70572380D02*
X63110000Y-69572380D01*
X63014761Y-69715238D01*
X62919523Y-69810476D01*
X62824285Y-69858095D01*
%TO.C,R2*%
X101433333Y-82892380D02*
X101100000Y-82416190D01*
X100861904Y-82892380D02*
X100861904Y-81892380D01*
X101242857Y-81892380D01*
X101338095Y-81940000D01*
X101385714Y-81987619D01*
X101433333Y-82082857D01*
X101433333Y-82225714D01*
X101385714Y-82320952D01*
X101338095Y-82368571D01*
X101242857Y-82416190D01*
X100861904Y-82416190D01*
X101814285Y-81987619D02*
X101861904Y-81940000D01*
X101957142Y-81892380D01*
X102195238Y-81892380D01*
X102290476Y-81940000D01*
X102338095Y-81987619D01*
X102385714Y-82082857D01*
X102385714Y-82178095D01*
X102338095Y-82320952D01*
X101766666Y-82892380D01*
X102385714Y-82892380D01*
%TO.C,R3*%
X101703333Y-99132380D02*
X101370000Y-98656190D01*
X101131904Y-99132380D02*
X101131904Y-98132380D01*
X101512857Y-98132380D01*
X101608095Y-98180000D01*
X101655714Y-98227619D01*
X101703333Y-98322857D01*
X101703333Y-98465714D01*
X101655714Y-98560952D01*
X101608095Y-98608571D01*
X101512857Y-98656190D01*
X101131904Y-98656190D01*
X102036666Y-98132380D02*
X102655714Y-98132380D01*
X102322380Y-98513333D01*
X102465238Y-98513333D01*
X102560476Y-98560952D01*
X102608095Y-98608571D01*
X102655714Y-98703809D01*
X102655714Y-98941904D01*
X102608095Y-99037142D01*
X102560476Y-99084761D01*
X102465238Y-99132380D01*
X102179523Y-99132380D01*
X102084285Y-99084761D01*
X102036666Y-99037142D01*
%TO.C,R4*%
X72462380Y-93146666D02*
X71986190Y-93480000D01*
X72462380Y-93718095D02*
X71462380Y-93718095D01*
X71462380Y-93337142D01*
X71510000Y-93241904D01*
X71557619Y-93194285D01*
X71652857Y-93146666D01*
X71795714Y-93146666D01*
X71890952Y-93194285D01*
X71938571Y-93241904D01*
X71986190Y-93337142D01*
X71986190Y-93718095D01*
X71795714Y-92289523D02*
X72462380Y-92289523D01*
X71414761Y-92527619D02*
X72129047Y-92765714D01*
X72129047Y-92146666D01*
%TO.C,R5*%
X87463333Y-93812380D02*
X87130000Y-93336190D01*
X86891904Y-93812380D02*
X86891904Y-92812380D01*
X87272857Y-92812380D01*
X87368095Y-92860000D01*
X87415714Y-92907619D01*
X87463333Y-93002857D01*
X87463333Y-93145714D01*
X87415714Y-93240952D01*
X87368095Y-93288571D01*
X87272857Y-93336190D01*
X86891904Y-93336190D01*
X88368095Y-92812380D02*
X87891904Y-92812380D01*
X87844285Y-93288571D01*
X87891904Y-93240952D01*
X87987142Y-93193333D01*
X88225238Y-93193333D01*
X88320476Y-93240952D01*
X88368095Y-93288571D01*
X88415714Y-93383809D01*
X88415714Y-93621904D01*
X88368095Y-93717142D01*
X88320476Y-93764761D01*
X88225238Y-93812380D01*
X87987142Y-93812380D01*
X87891904Y-93764761D01*
X87844285Y-93717142D01*
%TO.C,SW1*%
X72064761Y-112383333D02*
X72112380Y-112240476D01*
X72112380Y-112002380D01*
X72064761Y-111907142D01*
X72017142Y-111859523D01*
X71921904Y-111811904D01*
X71826666Y-111811904D01*
X71731428Y-111859523D01*
X71683809Y-111907142D01*
X71636190Y-112002380D01*
X71588571Y-112192857D01*
X71540952Y-112288095D01*
X71493333Y-112335714D01*
X71398095Y-112383333D01*
X71302857Y-112383333D01*
X71207619Y-112335714D01*
X71160000Y-112288095D01*
X71112380Y-112192857D01*
X71112380Y-111954761D01*
X71160000Y-111811904D01*
X71112380Y-111478571D02*
X72112380Y-111240476D01*
X71398095Y-111050000D01*
X72112380Y-110859523D01*
X71112380Y-110621428D01*
X72112380Y-109716666D02*
X72112380Y-110288095D01*
X72112380Y-110002380D02*
X71112380Y-110002380D01*
X71255238Y-110097619D01*
X71350476Y-110192857D01*
X71398095Y-110288095D01*
%TD*%
M02*
