%TF.GenerationSoftware,KiCad,Pcbnew,5.1.9*%
%TF.CreationDate,2021-06-15T13:05:46+08:00*%
%TF.ProjectId,Power-TEST,506f7765-722d-4544-9553-542e6b696361,rev?*%
%TF.SameCoordinates,Original*%
%TF.FileFunction,Copper,L1,Top*%
%TF.FilePolarity,Positive*%
%FSLAX46Y46*%
G04 Gerber Fmt 4.6, Leading zero omitted, Abs format (unit mm)*
G04 Created by KiCad (PCBNEW 5.1.9) date 2021-06-15 13:05:46*
%MOMM*%
%LPD*%
G01*
G04 APERTURE LIST*
%TA.AperFunction,ComponentPad*%
%ADD10R,1.700000X1.700000*%
%TD*%
%TA.AperFunction,SMDPad,CuDef*%
%ADD11R,0.600000X1.250000*%
%TD*%
%TA.AperFunction,SMDPad,CuDef*%
%ADD12R,1.525000X0.700000*%
%TD*%
%TA.AperFunction,SMDPad,CuDef*%
%ADD13R,2.090000X2.090000*%
%TD*%
%TA.AperFunction,ComponentPad*%
%ADD14O,1.000000X1.600000*%
%TD*%
%TA.AperFunction,ComponentPad*%
%ADD15O,1.000000X2.100000*%
%TD*%
%TA.AperFunction,SMDPad,CuDef*%
%ADD16R,0.300000X1.450000*%
%TD*%
%TA.AperFunction,SMDPad,CuDef*%
%ADD17R,0.600000X1.450000*%
%TD*%
%TA.AperFunction,ComponentPad*%
%ADD18C,3.000000*%
%TD*%
%TA.AperFunction,ComponentPad*%
%ADD19R,1.600000X1.600000*%
%TD*%
%TA.AperFunction,ComponentPad*%
%ADD20C,1.600000*%
%TD*%
%TA.AperFunction,SMDPad,CuDef*%
%ADD21R,0.450000X1.475000*%
%TD*%
%TA.AperFunction,ComponentPad*%
%ADD22C,2.000000*%
%TD*%
%TA.AperFunction,Conductor*%
%ADD23C,0.375000*%
%TD*%
%TA.AperFunction,Conductor*%
%ADD24C,0.250000*%
%TD*%
%TA.AperFunction,Conductor*%
%ADD25C,0.254000*%
%TD*%
%TA.AperFunction,Conductor*%
%ADD26C,0.100000*%
%TD*%
G04 APERTURE END LIST*
%TO.P,C3,2*%
%TO.N,Net-(C3-Pad2)*%
%TA.AperFunction,SMDPad,CuDef*%
G36*
G01*
X101507500Y-97552500D02*
X101507500Y-98027500D01*
G75*
G02*
X101270000Y-98265000I-237500J0D01*
G01*
X100670000Y-98265000D01*
G75*
G02*
X100432500Y-98027500I0J237500D01*
G01*
X100432500Y-97552500D01*
G75*
G02*
X100670000Y-97315000I237500J0D01*
G01*
X101270000Y-97315000D01*
G75*
G02*
X101507500Y-97552500I0J-237500D01*
G01*
G37*
%TD.AperFunction*%
%TO.P,C3,1*%
%TO.N,Net-(C3-Pad1)*%
%TA.AperFunction,SMDPad,CuDef*%
G36*
G01*
X103232500Y-97552500D02*
X103232500Y-98027500D01*
G75*
G02*
X102995000Y-98265000I-237500J0D01*
G01*
X102395000Y-98265000D01*
G75*
G02*
X102157500Y-98027500I0J237500D01*
G01*
X102157500Y-97552500D01*
G75*
G02*
X102395000Y-97315000I237500J0D01*
G01*
X102995000Y-97315000D01*
G75*
G02*
X103232500Y-97552500I0J-237500D01*
G01*
G37*
%TD.AperFunction*%
%TD*%
D10*
%TO.P,J3,1*%
%TO.N,Net-(C3-Pad2)*%
X52070000Y-110490000D03*
%TD*%
%TO.P,J2,1*%
%TO.N,BATT+*%
X99060000Y-110490000D03*
%TD*%
%TO.P,R7,2*%
%TO.N,GND*%
%TA.AperFunction,SMDPad,CuDef*%
G36*
G01*
X52889999Y-65440000D02*
X53790001Y-65440000D01*
G75*
G02*
X54040000Y-65689999I0J-249999D01*
G01*
X54040000Y-66390001D01*
G75*
G02*
X53790001Y-66640000I-249999J0D01*
G01*
X52889999Y-66640000D01*
G75*
G02*
X52640000Y-66390001I0J249999D01*
G01*
X52640000Y-65689999D01*
G75*
G02*
X52889999Y-65440000I249999J0D01*
G01*
G37*
%TD.AperFunction*%
%TO.P,R7,1*%
%TO.N,Net-(J1-PadA5)*%
%TA.AperFunction,SMDPad,CuDef*%
G36*
G01*
X52889999Y-63440000D02*
X53790001Y-63440000D01*
G75*
G02*
X54040000Y-63689999I0J-249999D01*
G01*
X54040000Y-64390001D01*
G75*
G02*
X53790001Y-64640000I-249999J0D01*
G01*
X52889999Y-64640000D01*
G75*
G02*
X52640000Y-64390001I0J249999D01*
G01*
X52640000Y-63689999D01*
G75*
G02*
X52889999Y-63440000I249999J0D01*
G01*
G37*
%TD.AperFunction*%
%TD*%
%TO.P,R6,2*%
%TO.N,GND*%
%TA.AperFunction,SMDPad,CuDef*%
G36*
G01*
X50349999Y-65440000D02*
X51250001Y-65440000D01*
G75*
G02*
X51500000Y-65689999I0J-249999D01*
G01*
X51500000Y-66390001D01*
G75*
G02*
X51250001Y-66640000I-249999J0D01*
G01*
X50349999Y-66640000D01*
G75*
G02*
X50100000Y-66390001I0J249999D01*
G01*
X50100000Y-65689999D01*
G75*
G02*
X50349999Y-65440000I249999J0D01*
G01*
G37*
%TD.AperFunction*%
%TO.P,R6,1*%
%TO.N,Net-(J1-PadB5)*%
%TA.AperFunction,SMDPad,CuDef*%
G36*
G01*
X50349999Y-63440000D02*
X51250001Y-63440000D01*
G75*
G02*
X51500000Y-63689999I0J-249999D01*
G01*
X51500000Y-64390001D01*
G75*
G02*
X51250001Y-64640000I-249999J0D01*
G01*
X50349999Y-64640000D01*
G75*
G02*
X50100000Y-64390001I0J249999D01*
G01*
X50100000Y-63689999D01*
G75*
G02*
X50349999Y-63440000I249999J0D01*
G01*
G37*
%TD.AperFunction*%
%TD*%
%TO.P,C1,2*%
%TO.N,GND*%
%TA.AperFunction,SMDPad,CuDef*%
G36*
G01*
X60485000Y-75612500D02*
X61435000Y-75612500D01*
G75*
G02*
X61685000Y-75862500I0J-250000D01*
G01*
X61685000Y-76537500D01*
G75*
G02*
X61435000Y-76787500I-250000J0D01*
G01*
X60485000Y-76787500D01*
G75*
G02*
X60235000Y-76537500I0J250000D01*
G01*
X60235000Y-75862500D01*
G75*
G02*
X60485000Y-75612500I250000J0D01*
G01*
G37*
%TD.AperFunction*%
%TO.P,C1,1*%
%TO.N,Net-(C1-Pad1)*%
%TA.AperFunction,SMDPad,CuDef*%
G36*
G01*
X60485000Y-73537500D02*
X61435000Y-73537500D01*
G75*
G02*
X61685000Y-73787500I0J-250000D01*
G01*
X61685000Y-74462500D01*
G75*
G02*
X61435000Y-74712500I-250000J0D01*
G01*
X60485000Y-74712500D01*
G75*
G02*
X60235000Y-74462500I0J250000D01*
G01*
X60235000Y-73787500D01*
G75*
G02*
X60485000Y-73537500I250000J0D01*
G01*
G37*
%TD.AperFunction*%
%TD*%
%TO.P,C2,1*%
%TO.N,Net-(C2-Pad1)*%
%TA.AperFunction,SMDPad,CuDef*%
G36*
G01*
X63025000Y-68457500D02*
X63975000Y-68457500D01*
G75*
G02*
X64225000Y-68707500I0J-250000D01*
G01*
X64225000Y-69382500D01*
G75*
G02*
X63975000Y-69632500I-250000J0D01*
G01*
X63025000Y-69632500D01*
G75*
G02*
X62775000Y-69382500I0J250000D01*
G01*
X62775000Y-68707500D01*
G75*
G02*
X63025000Y-68457500I250000J0D01*
G01*
G37*
%TD.AperFunction*%
%TO.P,C2,2*%
%TO.N,GND*%
%TA.AperFunction,SMDPad,CuDef*%
G36*
G01*
X63025000Y-70532500D02*
X63975000Y-70532500D01*
G75*
G02*
X64225000Y-70782500I0J-250000D01*
G01*
X64225000Y-71457500D01*
G75*
G02*
X63975000Y-71707500I-250000J0D01*
G01*
X63025000Y-71707500D01*
G75*
G02*
X62775000Y-71457500I0J250000D01*
G01*
X62775000Y-70782500D01*
G75*
G02*
X63025000Y-70532500I250000J0D01*
G01*
G37*
%TD.AperFunction*%
%TD*%
%TO.P,C4,2*%
%TO.N,Net-(C4-Pad2)*%
%TA.AperFunction,SMDPad,CuDef*%
G36*
G01*
X83025000Y-69167500D02*
X82075000Y-69167500D01*
G75*
G02*
X81825000Y-68917500I0J250000D01*
G01*
X81825000Y-68242500D01*
G75*
G02*
X82075000Y-67992500I250000J0D01*
G01*
X83025000Y-67992500D01*
G75*
G02*
X83275000Y-68242500I0J-250000D01*
G01*
X83275000Y-68917500D01*
G75*
G02*
X83025000Y-69167500I-250000J0D01*
G01*
G37*
%TD.AperFunction*%
%TO.P,C4,1*%
%TO.N,GND*%
%TA.AperFunction,SMDPad,CuDef*%
G36*
G01*
X83025000Y-71242500D02*
X82075000Y-71242500D01*
G75*
G02*
X81825000Y-70992500I0J250000D01*
G01*
X81825000Y-70317500D01*
G75*
G02*
X82075000Y-70067500I250000J0D01*
G01*
X83025000Y-70067500D01*
G75*
G02*
X83275000Y-70317500I0J-250000D01*
G01*
X83275000Y-70992500D01*
G75*
G02*
X83025000Y-71242500I-250000J0D01*
G01*
G37*
%TD.AperFunction*%
%TD*%
%TO.P,C5,2*%
%TO.N,Net-(C4-Pad2)*%
%TA.AperFunction,SMDPad,CuDef*%
G36*
G01*
X85565000Y-69167500D02*
X84615000Y-69167500D01*
G75*
G02*
X84365000Y-68917500I0J250000D01*
G01*
X84365000Y-68242500D01*
G75*
G02*
X84615000Y-67992500I250000J0D01*
G01*
X85565000Y-67992500D01*
G75*
G02*
X85815000Y-68242500I0J-250000D01*
G01*
X85815000Y-68917500D01*
G75*
G02*
X85565000Y-69167500I-250000J0D01*
G01*
G37*
%TD.AperFunction*%
%TO.P,C5,1*%
%TO.N,GND*%
%TA.AperFunction,SMDPad,CuDef*%
G36*
G01*
X85565000Y-71242500D02*
X84615000Y-71242500D01*
G75*
G02*
X84365000Y-70992500I0J250000D01*
G01*
X84365000Y-70317500D01*
G75*
G02*
X84615000Y-70067500I250000J0D01*
G01*
X85565000Y-70067500D01*
G75*
G02*
X85815000Y-70317500I0J-250000D01*
G01*
X85815000Y-70992500D01*
G75*
G02*
X85565000Y-71242500I-250000J0D01*
G01*
G37*
%TD.AperFunction*%
%TD*%
%TO.P,C6,1*%
%TO.N,GND*%
%TA.AperFunction,SMDPad,CuDef*%
G36*
G01*
X88105000Y-71242500D02*
X87155000Y-71242500D01*
G75*
G02*
X86905000Y-70992500I0J250000D01*
G01*
X86905000Y-70317500D01*
G75*
G02*
X87155000Y-70067500I250000J0D01*
G01*
X88105000Y-70067500D01*
G75*
G02*
X88355000Y-70317500I0J-250000D01*
G01*
X88355000Y-70992500D01*
G75*
G02*
X88105000Y-71242500I-250000J0D01*
G01*
G37*
%TD.AperFunction*%
%TO.P,C6,2*%
%TO.N,Net-(C4-Pad2)*%
%TA.AperFunction,SMDPad,CuDef*%
G36*
G01*
X88105000Y-69167500D02*
X87155000Y-69167500D01*
G75*
G02*
X86905000Y-68917500I0J250000D01*
G01*
X86905000Y-68242500D01*
G75*
G02*
X87155000Y-67992500I250000J0D01*
G01*
X88105000Y-67992500D01*
G75*
G02*
X88355000Y-68242500I0J-250000D01*
G01*
X88355000Y-68917500D01*
G75*
G02*
X88105000Y-69167500I-250000J0D01*
G01*
G37*
%TD.AperFunction*%
%TD*%
%TO.P,C7,1*%
%TO.N,GND*%
%TA.AperFunction,SMDPad,CuDef*%
G36*
G01*
X90645000Y-71242500D02*
X89695000Y-71242500D01*
G75*
G02*
X89445000Y-70992500I0J250000D01*
G01*
X89445000Y-70317500D01*
G75*
G02*
X89695000Y-70067500I250000J0D01*
G01*
X90645000Y-70067500D01*
G75*
G02*
X90895000Y-70317500I0J-250000D01*
G01*
X90895000Y-70992500D01*
G75*
G02*
X90645000Y-71242500I-250000J0D01*
G01*
G37*
%TD.AperFunction*%
%TO.P,C7,2*%
%TO.N,Net-(C4-Pad2)*%
%TA.AperFunction,SMDPad,CuDef*%
G36*
G01*
X90645000Y-69167500D02*
X89695000Y-69167500D01*
G75*
G02*
X89445000Y-68917500I0J250000D01*
G01*
X89445000Y-68242500D01*
G75*
G02*
X89695000Y-67992500I250000J0D01*
G01*
X90645000Y-67992500D01*
G75*
G02*
X90895000Y-68242500I0J-250000D01*
G01*
X90895000Y-68917500D01*
G75*
G02*
X90645000Y-69167500I-250000J0D01*
G01*
G37*
%TD.AperFunction*%
%TD*%
%TO.P,C8,2*%
%TO.N,GND*%
%TA.AperFunction,SMDPad,CuDef*%
G36*
G01*
X87155000Y-99742500D02*
X88105000Y-99742500D01*
G75*
G02*
X88355000Y-99992500I0J-250000D01*
G01*
X88355000Y-100667500D01*
G75*
G02*
X88105000Y-100917500I-250000J0D01*
G01*
X87155000Y-100917500D01*
G75*
G02*
X86905000Y-100667500I0J250000D01*
G01*
X86905000Y-99992500D01*
G75*
G02*
X87155000Y-99742500I250000J0D01*
G01*
G37*
%TD.AperFunction*%
%TO.P,C8,1*%
%TO.N,Net-(C8-Pad1)*%
%TA.AperFunction,SMDPad,CuDef*%
G36*
G01*
X87155000Y-97667500D02*
X88105000Y-97667500D01*
G75*
G02*
X88355000Y-97917500I0J-250000D01*
G01*
X88355000Y-98592500D01*
G75*
G02*
X88105000Y-98842500I-250000J0D01*
G01*
X87155000Y-98842500D01*
G75*
G02*
X86905000Y-98592500I0J250000D01*
G01*
X86905000Y-97917500D01*
G75*
G02*
X87155000Y-97667500I250000J0D01*
G01*
G37*
%TD.AperFunction*%
%TD*%
%TO.P,C9,1*%
%TO.N,BATT+*%
%TA.AperFunction,SMDPad,CuDef*%
G36*
G01*
X89695000Y-97667500D02*
X90645000Y-97667500D01*
G75*
G02*
X90895000Y-97917500I0J-250000D01*
G01*
X90895000Y-98592500D01*
G75*
G02*
X90645000Y-98842500I-250000J0D01*
G01*
X89695000Y-98842500D01*
G75*
G02*
X89445000Y-98592500I0J250000D01*
G01*
X89445000Y-97917500D01*
G75*
G02*
X89695000Y-97667500I250000J0D01*
G01*
G37*
%TD.AperFunction*%
%TO.P,C9,2*%
%TO.N,GND*%
%TA.AperFunction,SMDPad,CuDef*%
G36*
G01*
X89695000Y-99742500D02*
X90645000Y-99742500D01*
G75*
G02*
X90895000Y-99992500I0J-250000D01*
G01*
X90895000Y-100667500D01*
G75*
G02*
X90645000Y-100917500I-250000J0D01*
G01*
X89695000Y-100917500D01*
G75*
G02*
X89445000Y-100667500I0J250000D01*
G01*
X89445000Y-99992500D01*
G75*
G02*
X89695000Y-99742500I250000J0D01*
G01*
G37*
%TD.AperFunction*%
%TD*%
%TO.P,D1,2*%
%TO.N,Net-(D1-Pad2)*%
%TA.AperFunction,SMDPad,CuDef*%
G36*
G01*
X49325000Y-75749999D02*
X49325000Y-76650001D01*
G75*
G02*
X49075001Y-76900000I-249999J0D01*
G01*
X48424999Y-76900000D01*
G75*
G02*
X48175000Y-76650001I0J249999D01*
G01*
X48175000Y-75749999D01*
G75*
G02*
X48424999Y-75500000I249999J0D01*
G01*
X49075001Y-75500000D01*
G75*
G02*
X49325000Y-75749999I0J-249999D01*
G01*
G37*
%TD.AperFunction*%
%TO.P,D1,1*%
%TO.N,Net-(D1-Pad1)*%
%TA.AperFunction,SMDPad,CuDef*%
G36*
G01*
X51375000Y-75749999D02*
X51375000Y-76650001D01*
G75*
G02*
X51125001Y-76900000I-249999J0D01*
G01*
X50474999Y-76900000D01*
G75*
G02*
X50225000Y-76650001I0J249999D01*
G01*
X50225000Y-75749999D01*
G75*
G02*
X50474999Y-75500000I249999J0D01*
G01*
X51125001Y-75500000D01*
G75*
G02*
X51375000Y-75749999I0J-249999D01*
G01*
G37*
%TD.AperFunction*%
%TD*%
%TO.P,D2,1*%
%TO.N,Net-(D1-Pad2)*%
%TA.AperFunction,SMDPad,CuDef*%
G36*
G01*
X48175000Y-83000001D02*
X48175000Y-82099999D01*
G75*
G02*
X48424999Y-81850000I249999J0D01*
G01*
X49075001Y-81850000D01*
G75*
G02*
X49325000Y-82099999I0J-249999D01*
G01*
X49325000Y-83000001D01*
G75*
G02*
X49075001Y-83250000I-249999J0D01*
G01*
X48424999Y-83250000D01*
G75*
G02*
X48175000Y-83000001I0J249999D01*
G01*
G37*
%TD.AperFunction*%
%TO.P,D2,2*%
%TO.N,Net-(D1-Pad1)*%
%TA.AperFunction,SMDPad,CuDef*%
G36*
G01*
X50225000Y-83000001D02*
X50225000Y-82099999D01*
G75*
G02*
X50474999Y-81850000I249999J0D01*
G01*
X51125001Y-81850000D01*
G75*
G02*
X51375000Y-82099999I0J-249999D01*
G01*
X51375000Y-83000001D01*
G75*
G02*
X51125001Y-83250000I-249999J0D01*
G01*
X50474999Y-83250000D01*
G75*
G02*
X50225000Y-83000001I0J249999D01*
G01*
G37*
%TD.AperFunction*%
%TD*%
%TO.P,D3,1*%
%TO.N,Net-(D1-Pad1)*%
%TA.AperFunction,SMDPad,CuDef*%
G36*
G01*
X48175000Y-89350001D02*
X48175000Y-88449999D01*
G75*
G02*
X48424999Y-88200000I249999J0D01*
G01*
X49075001Y-88200000D01*
G75*
G02*
X49325000Y-88449999I0J-249999D01*
G01*
X49325000Y-89350001D01*
G75*
G02*
X49075001Y-89600000I-249999J0D01*
G01*
X48424999Y-89600000D01*
G75*
G02*
X48175000Y-89350001I0J249999D01*
G01*
G37*
%TD.AperFunction*%
%TO.P,D3,2*%
%TO.N,Net-(D3-Pad2)*%
%TA.AperFunction,SMDPad,CuDef*%
G36*
G01*
X50225000Y-89350001D02*
X50225000Y-88449999D01*
G75*
G02*
X50474999Y-88200000I249999J0D01*
G01*
X51125001Y-88200000D01*
G75*
G02*
X51375000Y-88449999I0J-249999D01*
G01*
X51375000Y-89350001D01*
G75*
G02*
X51125001Y-89600000I-249999J0D01*
G01*
X50474999Y-89600000D01*
G75*
G02*
X50225000Y-89350001I0J249999D01*
G01*
G37*
%TD.AperFunction*%
%TD*%
%TO.P,D4,2*%
%TO.N,Net-(D1-Pad1)*%
%TA.AperFunction,SMDPad,CuDef*%
G36*
G01*
X49325000Y-94799999D02*
X49325000Y-95700001D01*
G75*
G02*
X49075001Y-95950000I-249999J0D01*
G01*
X48424999Y-95950000D01*
G75*
G02*
X48175000Y-95700001I0J249999D01*
G01*
X48175000Y-94799999D01*
G75*
G02*
X48424999Y-94550000I249999J0D01*
G01*
X49075001Y-94550000D01*
G75*
G02*
X49325000Y-94799999I0J-249999D01*
G01*
G37*
%TD.AperFunction*%
%TO.P,D4,1*%
%TO.N,Net-(D3-Pad2)*%
%TA.AperFunction,SMDPad,CuDef*%
G36*
G01*
X51375000Y-94799999D02*
X51375000Y-95700001D01*
G75*
G02*
X51125001Y-95950000I-249999J0D01*
G01*
X50474999Y-95950000D01*
G75*
G02*
X50225000Y-95700001I0J249999D01*
G01*
X50225000Y-94799999D01*
G75*
G02*
X50474999Y-94550000I249999J0D01*
G01*
X51125001Y-94550000D01*
G75*
G02*
X51375000Y-94799999I0J-249999D01*
G01*
G37*
%TD.AperFunction*%
%TD*%
D11*
%TO.P,IC1,1*%
%TO.N,Net-(IC1-Pad1)*%
X102870000Y-90210000D03*
%TO.P,IC1,2*%
%TO.N,Net-(IC1-Pad2)*%
X101920000Y-90210000D03*
%TO.P,IC1,3*%
%TO.N,Net-(IC1-Pad3)*%
X100970000Y-90210000D03*
%TO.P,IC1,4*%
%TO.N,Net-(IC1-Pad4)*%
X100970000Y-92710000D03*
%TO.P,IC1,5*%
%TO.N,Net-(C3-Pad2)*%
X101920000Y-92710000D03*
%TO.P,IC1,6*%
%TO.N,Net-(C3-Pad1)*%
X102870000Y-92710000D03*
%TD*%
D12*
%TO.P,IC2,1*%
%TO.N,Net-(C2-Pad1)*%
X68408000Y-80645000D03*
%TO.P,IC2,2*%
%TO.N,Net-(D1-Pad2)*%
X68408000Y-81915000D03*
%TO.P,IC2,3*%
%TO.N,Net-(D3-Pad2)*%
X68408000Y-83185000D03*
%TO.P,IC2,4*%
%TO.N,Net-(D1-Pad1)*%
X68408000Y-84455000D03*
%TO.P,IC2,5*%
%TO.N,Net-(IC2-Pad5)*%
X73832000Y-84455000D03*
%TO.P,IC2,6*%
%TO.N,Net-(C8-Pad1)*%
X73832000Y-83185000D03*
%TO.P,IC2,7*%
%TO.N,Net-(IC2-Pad7)*%
X73832000Y-81915000D03*
%TO.P,IC2,8*%
%TO.N,Net-(C4-Pad2)*%
X73832000Y-80645000D03*
D13*
%TO.P,IC2,9*%
%TO.N,GND*%
X71120000Y-82550000D03*
%TD*%
D14*
%TO.P,J1,S1*%
%TO.N,GND*%
X47750000Y-54595000D03*
X56390000Y-54595000D03*
D15*
X56390000Y-58775000D03*
X47750000Y-58775000D03*
D16*
%TO.P,J1,A6*%
%TO.N,Net-(J1-PadA6)*%
X52320000Y-59690000D03*
%TO.P,J1,B5*%
%TO.N,Net-(J1-PadB5)*%
X50320000Y-59690000D03*
%TO.P,J1,A8*%
%TO.N,Net-(J1-PadA8)*%
X50820000Y-59690000D03*
%TO.P,J1,B6*%
%TO.N,Net-(J1-PadB6)*%
X51320000Y-59690000D03*
%TO.P,J1,A7*%
%TO.N,Net-(J1-PadA7)*%
X51820000Y-59690000D03*
%TO.P,J1,B7*%
%TO.N,Net-(J1-PadB7)*%
X52820000Y-59690000D03*
%TO.P,J1,A5*%
%TO.N,Net-(J1-PadA5)*%
X53320000Y-59690000D03*
%TO.P,J1,B8*%
%TO.N,Net-(J1-PadB8)*%
X53820000Y-59690000D03*
D17*
%TO.P,J1,A12*%
%TO.N,GND*%
X48820000Y-59690000D03*
%TO.P,J1,B4*%
%TO.N,Net-(C2-Pad1)*%
X49620000Y-59690000D03*
%TO.P,J1,A4*%
X54520000Y-59690000D03*
%TO.P,J1,A1*%
%TO.N,GND*%
X55320000Y-59690000D03*
%TO.P,J1,B12*%
X55320000Y-59690000D03*
%TO.P,J1,B9*%
%TO.N,Net-(C2-Pad1)*%
X54520000Y-59690000D03*
%TO.P,J1,A9*%
X49620000Y-59690000D03*
%TO.P,J1,B1*%
%TO.N,GND*%
X48820000Y-59690000D03*
%TD*%
D18*
%TO.P,J4,5*%
%TO.N,GND*%
X92800000Y-60960000D03*
X105940000Y-60960000D03*
D19*
%TO.P,J4,1*%
%TO.N,Net-(C4-Pad2)*%
X102870000Y-63670000D03*
D20*
%TO.P,J4,2*%
%TO.N,Net-(J4-Pad2)*%
X100370000Y-63670000D03*
%TO.P,J4,3*%
%TO.N,Net-(J4-Pad3)*%
X98370000Y-63670000D03*
%TO.P,J4,4*%
%TO.N,GND*%
X95870000Y-63670000D03*
%TD*%
%TO.P,L1,1*%
%TO.N,Net-(IC2-Pad7)*%
%TA.AperFunction,SMDPad,CuDef*%
G36*
G01*
X86075000Y-89250001D02*
X86075000Y-88549999D01*
G75*
G02*
X86324999Y-88300000I249999J0D01*
G01*
X86875001Y-88300000D01*
G75*
G02*
X87125000Y-88549999I0J-249999D01*
G01*
X87125000Y-89250001D01*
G75*
G02*
X86875001Y-89500000I-249999J0D01*
G01*
X86324999Y-89500000D01*
G75*
G02*
X86075000Y-89250001I0J249999D01*
G01*
G37*
%TD.AperFunction*%
%TO.P,L1,2*%
%TO.N,BATT+*%
%TA.AperFunction,SMDPad,CuDef*%
G36*
G01*
X88375000Y-89250001D02*
X88375000Y-88549999D01*
G75*
G02*
X88624999Y-88300000I249999J0D01*
G01*
X89175001Y-88300000D01*
G75*
G02*
X89425000Y-88549999I0J-249999D01*
G01*
X89425000Y-89250001D01*
G75*
G02*
X89175001Y-89500000I-249999J0D01*
G01*
X88624999Y-89500000D01*
G75*
G02*
X88375000Y-89250001I0J249999D01*
G01*
G37*
%TD.AperFunction*%
%TD*%
D21*
%TO.P,Q1,1*%
%TO.N,Net-(Q1-Pad1)*%
X102870000Y-73262000D03*
%TO.P,Q1,2*%
%TO.N,Net-(C3-Pad2)*%
X102220000Y-73262000D03*
%TO.P,Q1,3*%
X101570000Y-73262000D03*
%TO.P,Q1,4*%
%TO.N,Net-(IC1-Pad1)*%
X100920000Y-73262000D03*
%TO.P,Q1,5*%
%TO.N,Net-(IC1-Pad3)*%
X100920000Y-79138000D03*
%TO.P,Q1,6*%
%TO.N,GND*%
X101570000Y-79138000D03*
%TO.P,Q1,7*%
X102220000Y-79138000D03*
%TO.P,Q1,8*%
%TO.N,Net-(Q1-Pad1)*%
X102870000Y-79138000D03*
%TD*%
%TO.P,R1,1*%
%TO.N,Net-(C2-Pad1)*%
%TA.AperFunction,SMDPad,CuDef*%
G36*
G01*
X60509999Y-68520000D02*
X61410001Y-68520000D01*
G75*
G02*
X61660000Y-68769999I0J-249999D01*
G01*
X61660000Y-69470001D01*
G75*
G02*
X61410001Y-69720000I-249999J0D01*
G01*
X60509999Y-69720000D01*
G75*
G02*
X60260000Y-69470001I0J249999D01*
G01*
X60260000Y-68769999D01*
G75*
G02*
X60509999Y-68520000I249999J0D01*
G01*
G37*
%TD.AperFunction*%
%TO.P,R1,2*%
%TO.N,Net-(C1-Pad1)*%
%TA.AperFunction,SMDPad,CuDef*%
G36*
G01*
X60509999Y-70520000D02*
X61410001Y-70520000D01*
G75*
G02*
X61660000Y-70769999I0J-249999D01*
G01*
X61660000Y-71470001D01*
G75*
G02*
X61410001Y-71720000I-249999J0D01*
G01*
X60509999Y-71720000D01*
G75*
G02*
X60260000Y-71470001I0J249999D01*
G01*
X60260000Y-70769999D01*
G75*
G02*
X60509999Y-70520000I249999J0D01*
G01*
G37*
%TD.AperFunction*%
%TD*%
%TO.P,R2,1*%
%TO.N,Net-(IC1-Pad2)*%
%TA.AperFunction,SMDPad,CuDef*%
G36*
G01*
X100000000Y-84540001D02*
X100000000Y-83639999D01*
G75*
G02*
X100249999Y-83390000I249999J0D01*
G01*
X100950001Y-83390000D01*
G75*
G02*
X101200000Y-83639999I0J-249999D01*
G01*
X101200000Y-84540001D01*
G75*
G02*
X100950001Y-84790000I-249999J0D01*
G01*
X100249999Y-84790000D01*
G75*
G02*
X100000000Y-84540001I0J249999D01*
G01*
G37*
%TD.AperFunction*%
%TO.P,R2,2*%
%TO.N,GND*%
%TA.AperFunction,SMDPad,CuDef*%
G36*
G01*
X102000000Y-84540001D02*
X102000000Y-83639999D01*
G75*
G02*
X102249999Y-83390000I249999J0D01*
G01*
X102950001Y-83390000D01*
G75*
G02*
X103200000Y-83639999I0J-249999D01*
G01*
X103200000Y-84540001D01*
G75*
G02*
X102950001Y-84790000I-249999J0D01*
G01*
X102249999Y-84790000D01*
G75*
G02*
X102000000Y-84540001I0J249999D01*
G01*
G37*
%TD.AperFunction*%
%TD*%
%TO.P,R3,1*%
%TO.N,BATT+*%
%TA.AperFunction,SMDPad,CuDef*%
G36*
G01*
X100270000Y-100780001D02*
X100270000Y-99879999D01*
G75*
G02*
X100519999Y-99630000I249999J0D01*
G01*
X101220001Y-99630000D01*
G75*
G02*
X101470000Y-99879999I0J-249999D01*
G01*
X101470000Y-100780001D01*
G75*
G02*
X101220001Y-101030000I-249999J0D01*
G01*
X100519999Y-101030000D01*
G75*
G02*
X100270000Y-100780001I0J249999D01*
G01*
G37*
%TD.AperFunction*%
%TO.P,R3,2*%
%TO.N,Net-(C3-Pad1)*%
%TA.AperFunction,SMDPad,CuDef*%
G36*
G01*
X102270000Y-100780001D02*
X102270000Y-99879999D01*
G75*
G02*
X102519999Y-99630000I249999J0D01*
G01*
X103220001Y-99630000D01*
G75*
G02*
X103470000Y-99879999I0J-249999D01*
G01*
X103470000Y-100780001D01*
G75*
G02*
X103220001Y-101030000I-249999J0D01*
G01*
X102519999Y-101030000D01*
G75*
G02*
X102270000Y-100780001I0J249999D01*
G01*
G37*
%TD.AperFunction*%
%TD*%
%TO.P,R4,2*%
%TO.N,Net-(IC2-Pad5)*%
%TA.AperFunction,SMDPad,CuDef*%
G36*
G01*
X74110001Y-92580000D02*
X73209999Y-92580000D01*
G75*
G02*
X72960000Y-92330001I0J249999D01*
G01*
X72960000Y-91629999D01*
G75*
G02*
X73209999Y-91380000I249999J0D01*
G01*
X74110001Y-91380000D01*
G75*
G02*
X74360000Y-91629999I0J-249999D01*
G01*
X74360000Y-92330001D01*
G75*
G02*
X74110001Y-92580000I-249999J0D01*
G01*
G37*
%TD.AperFunction*%
%TO.P,R4,1*%
%TO.N,Net-(R4-Pad1)*%
%TA.AperFunction,SMDPad,CuDef*%
G36*
G01*
X74110001Y-94580000D02*
X73209999Y-94580000D01*
G75*
G02*
X72960000Y-94330001I0J249999D01*
G01*
X72960000Y-93629999D01*
G75*
G02*
X73209999Y-93380000I249999J0D01*
G01*
X74110001Y-93380000D01*
G75*
G02*
X74360000Y-93629999I0J-249999D01*
G01*
X74360000Y-94330001D01*
G75*
G02*
X74110001Y-94580000I-249999J0D01*
G01*
G37*
%TD.AperFunction*%
%TD*%
%TO.P,R5,1*%
%TO.N,BATT+*%
%TA.AperFunction,SMDPad,CuDef*%
G36*
G01*
X89230000Y-91259999D02*
X89230000Y-92160001D01*
G75*
G02*
X88980001Y-92410000I-249999J0D01*
G01*
X88279999Y-92410000D01*
G75*
G02*
X88030000Y-92160001I0J249999D01*
G01*
X88030000Y-91259999D01*
G75*
G02*
X88279999Y-91010000I249999J0D01*
G01*
X88980001Y-91010000D01*
G75*
G02*
X89230000Y-91259999I0J-249999D01*
G01*
G37*
%TD.AperFunction*%
%TO.P,R5,2*%
%TO.N,Net-(C8-Pad1)*%
%TA.AperFunction,SMDPad,CuDef*%
G36*
G01*
X87230000Y-91259999D02*
X87230000Y-92160001D01*
G75*
G02*
X86980001Y-92410000I-249999J0D01*
G01*
X86279999Y-92410000D01*
G75*
G02*
X86030000Y-92160001I0J249999D01*
G01*
X86030000Y-91259999D01*
G75*
G02*
X86279999Y-91010000I249999J0D01*
G01*
X86980001Y-91010000D01*
G75*
G02*
X87230000Y-91259999I0J-249999D01*
G01*
G37*
%TD.AperFunction*%
%TD*%
D22*
%TO.P,SW1,2*%
%TO.N,GND*%
X78160000Y-114300000D03*
%TO.P,SW1,1*%
%TO.N,Net-(R4-Pad1)*%
X73660000Y-114300000D03*
%TO.P,SW1,2*%
%TO.N,GND*%
X78160000Y-107800000D03*
%TO.P,SW1,1*%
%TO.N,Net-(R4-Pad1)*%
X73660000Y-107800000D03*
%TD*%
D23*
%TO.N,GND*%
X47905000Y-58775000D02*
X48820000Y-59690000D01*
X47750000Y-58775000D02*
X47905000Y-58775000D01*
X87630000Y-100330000D02*
X90170000Y-100330000D01*
X102220000Y-79138000D02*
X101570000Y-79138000D01*
X102220000Y-83710000D02*
X102600000Y-84090000D01*
X102220000Y-79138000D02*
X102220000Y-83710000D01*
X107950000Y-62970000D02*
X105940000Y-60960000D01*
X107950000Y-86752502D02*
X107950000Y-62970000D01*
X103480001Y-91222501D02*
X107950000Y-86752502D01*
X97790000Y-88142510D02*
X100359999Y-91222501D01*
X97790000Y-79850508D02*
X97790000Y-88142510D01*
X100359999Y-91222501D02*
X103480001Y-91222501D01*
X99060000Y-78012999D02*
X97790000Y-79850508D01*
X101455001Y-78012999D02*
X99060000Y-78012999D01*
X102220000Y-78777998D02*
X101455001Y-78012999D01*
X102220000Y-79138000D02*
X102220000Y-78777998D01*
D24*
X55475000Y-59690000D02*
X56390000Y-58775000D01*
X55320000Y-59690000D02*
X55475000Y-59690000D01*
%TO.N,Net-(C1-Pad1)*%
X60960000Y-71120000D02*
X60960000Y-74125000D01*
%TO.N,Net-(C2-Pad1)*%
X63425000Y-69120000D02*
X63500000Y-69045000D01*
D23*
X60960000Y-69120000D02*
X63425000Y-69120000D01*
X63500000Y-69045000D02*
X66505000Y-69045000D01*
X68408000Y-70948000D02*
X68408000Y-80645000D01*
X66505000Y-69045000D02*
X68408000Y-70948000D01*
X54520000Y-58817498D02*
X54520000Y-59690000D01*
X49902003Y-58577499D02*
X54280001Y-58577499D01*
X54280001Y-58577499D02*
X54520000Y-58817498D01*
X49620000Y-58859502D02*
X49902003Y-58577499D01*
X49620000Y-59690000D02*
X49620000Y-58859502D01*
X54520000Y-60790000D02*
X55960000Y-62230000D01*
X54520000Y-59690000D02*
X54520000Y-60790000D01*
X55960000Y-62230000D02*
X55960000Y-66120000D01*
X58960000Y-69120000D02*
X60960000Y-69120000D01*
X55960000Y-66120000D02*
X58960000Y-69120000D01*
%TO.N,Net-(C3-Pad1)*%
X102870000Y-92710000D02*
X102870000Y-97790000D01*
X102870000Y-97790000D02*
X102870000Y-100330000D01*
%TO.N,Net-(C3-Pad2)*%
X101920000Y-96665000D02*
X100795000Y-97790000D01*
X101920000Y-92710000D02*
X101920000Y-96665000D01*
D24*
X101570000Y-73262000D02*
X102220000Y-73262000D01*
D23*
X96520000Y-95250000D02*
X99060000Y-97790000D01*
X96520000Y-77470000D02*
X96520000Y-95250000D01*
X97790000Y-76200000D02*
X96520000Y-77470000D01*
X100269500Y-76200000D02*
X97790000Y-76200000D01*
X99060000Y-97790000D02*
X100795000Y-97790000D01*
X102220000Y-74249500D02*
X100269500Y-76200000D01*
X102220000Y-73262000D02*
X102220000Y-74249500D01*
X52070000Y-118110000D02*
X52070000Y-110490000D01*
X53340000Y-119380000D02*
X52070000Y-118110000D01*
X100330000Y-119380000D02*
X53340000Y-119380000D01*
X101882490Y-117827510D02*
X100330000Y-119380000D01*
X101882490Y-98877490D02*
X101882490Y-117827510D01*
X100795000Y-97790000D02*
X101882490Y-98877490D01*
%TO.N,Net-(C4-Pad2)*%
X73832000Y-80645000D02*
X73832000Y-74758000D01*
X80010000Y-68580000D02*
X82550000Y-68580000D01*
X73832000Y-74758000D02*
X80010000Y-68580000D01*
X82550000Y-68580000D02*
X85090000Y-68580000D01*
X85090000Y-68580000D02*
X87630000Y-68580000D01*
X87630000Y-68580000D02*
X90170000Y-68580000D01*
X97960000Y-68580000D02*
X102870000Y-63670000D01*
X90170000Y-68580000D02*
X97960000Y-68580000D01*
%TO.N,Net-(C8-Pad1)*%
X73832000Y-83185000D02*
X76835000Y-83185000D01*
D24*
X85360000Y-91710000D02*
X86630000Y-91710000D01*
D23*
X76835000Y-83185000D02*
X85360000Y-91710000D01*
X86630000Y-91710000D02*
X86630000Y-94250000D01*
X87630000Y-95250000D02*
X87630000Y-98255000D01*
X86630000Y-94250000D02*
X87630000Y-95250000D01*
%TO.N,BATT+*%
X88900000Y-91440000D02*
X88630000Y-91710000D01*
X88900000Y-88900000D02*
X88900000Y-91440000D01*
X88630000Y-91710000D02*
X88630000Y-93710000D01*
X90170000Y-95250000D02*
X90170000Y-98255000D01*
X88630000Y-93710000D02*
X90170000Y-95250000D01*
X90170000Y-98255000D02*
X94445000Y-98255000D01*
X96520000Y-100330000D02*
X100870000Y-100330000D01*
X94445000Y-98255000D02*
X96520000Y-100330000D01*
X90170000Y-98255000D02*
X93175000Y-98255000D01*
X100870000Y-108680000D02*
X99060000Y-110490000D01*
X100870000Y-100330000D02*
X100870000Y-108680000D01*
D24*
%TO.N,Net-(D1-Pad2)*%
X48750000Y-76200000D02*
X48750000Y-82550000D01*
X48750000Y-76200000D02*
X48750000Y-74440000D01*
X48750000Y-74440000D02*
X49530000Y-73660000D01*
X49530000Y-73660000D02*
X52070000Y-73660000D01*
X52070000Y-73660000D02*
X53340000Y-74930000D01*
X53340000Y-74930000D02*
X53340000Y-78740000D01*
X56515000Y-81915000D02*
X68408000Y-81915000D01*
X53340000Y-78740000D02*
X56515000Y-81915000D01*
%TO.N,Net-(D1-Pad1)*%
X50800000Y-76200000D02*
X50800000Y-82550000D01*
X50800000Y-82550000D02*
X50800000Y-83820000D01*
X48750000Y-85870000D02*
X48750000Y-88900000D01*
X50800000Y-83820000D02*
X48750000Y-85870000D01*
X48750000Y-88900000D02*
X48750000Y-95250000D01*
X68408000Y-84455000D02*
X57785000Y-84455000D01*
X57785000Y-84455000D02*
X53340000Y-88900000D01*
X53340000Y-88900000D02*
X53340000Y-97790000D01*
X53340000Y-97790000D02*
X52070000Y-99060000D01*
X52070000Y-99060000D02*
X49530000Y-99060000D01*
X48750000Y-98280000D02*
X48750000Y-95250000D01*
X49530000Y-99060000D02*
X48750000Y-98280000D01*
%TO.N,Net-(D3-Pad2)*%
X50800000Y-88900000D02*
X50800000Y-95250000D01*
X56515000Y-83185000D02*
X50800000Y-88900000D01*
X68408000Y-83185000D02*
X56515000Y-83185000D01*
%TO.N,Net-(IC1-Pad1)*%
X100920000Y-73262000D02*
X100920000Y-72980000D01*
X102870000Y-90210000D02*
X102870000Y-87630000D01*
X104140000Y-69850000D02*
X101600000Y-69850000D01*
X102870000Y-87630000D02*
X105410000Y-85090000D01*
X105410000Y-85090000D02*
X105410000Y-71120000D01*
X100920000Y-70530000D02*
X100920000Y-73262000D01*
X105410000Y-71120000D02*
X104140000Y-69850000D01*
X101600000Y-69850000D02*
X100920000Y-70530000D01*
%TO.N,Net-(IC1-Pad2)*%
X100600000Y-84090000D02*
X100600000Y-86630000D01*
X101920000Y-87950000D02*
X101920000Y-90210000D01*
X100600000Y-86630000D02*
X101920000Y-87950000D01*
%TO.N,Net-(IC1-Pad3)*%
X100920000Y-79138000D02*
X99060000Y-80998000D01*
X99060000Y-80998000D02*
X99060000Y-86360000D01*
X100970000Y-88270000D02*
X100970000Y-90210000D01*
X99060000Y-86360000D02*
X100970000Y-88270000D01*
%TO.N,Net-(IC2-Pad5)*%
X73832000Y-91808000D02*
X73660000Y-91980000D01*
X73832000Y-84455000D02*
X73832000Y-91808000D01*
D23*
%TO.N,Net-(IC2-Pad7)*%
X76835000Y-81915000D02*
X83820000Y-88900000D01*
X83820000Y-88900000D02*
X86600000Y-88900000D01*
X73832000Y-81915000D02*
X76835000Y-81915000D01*
D24*
%TO.N,Net-(Q1-Pad1)*%
X102870000Y-73262000D02*
X102870000Y-79138000D01*
%TO.N,Net-(R4-Pad1)*%
X73660000Y-93980000D02*
X73660000Y-107800000D01*
X73660000Y-107800000D02*
X73660000Y-114300000D01*
%TO.N,Net-(J1-PadB5)*%
X50344999Y-63584999D02*
X50344999Y-60140010D01*
X50800000Y-64040000D02*
X50344999Y-63584999D01*
%TO.N,Net-(J1-PadA5)*%
X53340000Y-60145009D02*
X53344999Y-60140010D01*
X53340000Y-64040000D02*
X53340000Y-60145009D01*
%TD*%
D25*
%TO.N,GND*%
X46615000Y-54168000D02*
X46615000Y-54468000D01*
X47623000Y-54468000D01*
X47623000Y-54448000D01*
X47877000Y-54448000D01*
X47877000Y-54468000D01*
X48885000Y-54468000D01*
X48885000Y-54168000D01*
X48849261Y-54000000D01*
X55290739Y-54000000D01*
X55255000Y-54168000D01*
X55255000Y-54468000D01*
X56263000Y-54468000D01*
X56263000Y-54448000D01*
X56517000Y-54448000D01*
X56517000Y-54468000D01*
X57525000Y-54468000D01*
X57525000Y-54168000D01*
X57489261Y-54000000D01*
X109190608Y-54000000D01*
X110002249Y-54072437D01*
X110759774Y-54279672D01*
X111468625Y-54617777D01*
X112106404Y-55076067D01*
X112652946Y-55640055D01*
X113090977Y-56291913D01*
X113406651Y-57011038D01*
X113591206Y-57779768D01*
X113640000Y-58444207D01*
X113640001Y-112997572D01*
X113640000Y-112997582D01*
X113640001Y-118080597D01*
X113567563Y-118892249D01*
X113360328Y-119649774D01*
X113022221Y-120358627D01*
X112563928Y-120996410D01*
X111999945Y-121542946D01*
X111348085Y-121980978D01*
X110628963Y-122296651D01*
X109860232Y-122481206D01*
X109195792Y-122530000D01*
X43209392Y-122530000D01*
X42397751Y-122457563D01*
X41640226Y-122250328D01*
X40931373Y-121912221D01*
X40293590Y-121453928D01*
X39747054Y-120889945D01*
X39309022Y-120238085D01*
X38993349Y-119518963D01*
X38808794Y-118750232D01*
X38760000Y-118085792D01*
X38760000Y-109640000D01*
X50581928Y-109640000D01*
X50581928Y-111340000D01*
X50594188Y-111464482D01*
X50630498Y-111584180D01*
X50689463Y-111694494D01*
X50768815Y-111791185D01*
X50865506Y-111870537D01*
X50975820Y-111929502D01*
X51095518Y-111965812D01*
X51220000Y-111978072D01*
X51247501Y-111978072D01*
X51247500Y-118069602D01*
X51243521Y-118110000D01*
X51259402Y-118271238D01*
X51292558Y-118380540D01*
X51306433Y-118426279D01*
X51382808Y-118569166D01*
X51485591Y-118694409D01*
X51516975Y-118720165D01*
X52729835Y-119933025D01*
X52755591Y-119964409D01*
X52880833Y-120067192D01*
X53023720Y-120143567D01*
X53142676Y-120179652D01*
X53178761Y-120190598D01*
X53195380Y-120192235D01*
X53299602Y-120202500D01*
X53299608Y-120202500D01*
X53339999Y-120206478D01*
X53380390Y-120202500D01*
X100289602Y-120202500D01*
X100330000Y-120206479D01*
X100370398Y-120202500D01*
X100491238Y-120190598D01*
X100646280Y-120143567D01*
X100789167Y-120067192D01*
X100914409Y-119964409D01*
X100940165Y-119933025D01*
X102435515Y-118437675D01*
X102466899Y-118411919D01*
X102569682Y-118286677D01*
X102646057Y-118143790D01*
X102693088Y-117988748D01*
X102704990Y-117867908D01*
X102704990Y-117867899D01*
X102708968Y-117827511D01*
X102704990Y-117787123D01*
X102704990Y-101668072D01*
X103220001Y-101668072D01*
X103393255Y-101651008D01*
X103559851Y-101600472D01*
X103713387Y-101518405D01*
X103847962Y-101407962D01*
X103958405Y-101273387D01*
X104040472Y-101119851D01*
X104091008Y-100953255D01*
X104108072Y-100780001D01*
X104108072Y-99879999D01*
X104091008Y-99706745D01*
X104040472Y-99540149D01*
X103958405Y-99386613D01*
X103847962Y-99252038D01*
X103713387Y-99141595D01*
X103692500Y-99130431D01*
X103692500Y-98551121D01*
X103723012Y-98513942D01*
X103803923Y-98362567D01*
X103853748Y-98198316D01*
X103870572Y-98027500D01*
X103870572Y-97552500D01*
X103853748Y-97381684D01*
X103803923Y-97217433D01*
X103723012Y-97066058D01*
X103692500Y-97028879D01*
X103692500Y-93699287D01*
X103700537Y-93689494D01*
X103759502Y-93579180D01*
X103795812Y-93459482D01*
X103808072Y-93335000D01*
X103808072Y-92085000D01*
X103795812Y-91960518D01*
X103759502Y-91840820D01*
X103700537Y-91730506D01*
X103621185Y-91633815D01*
X103524494Y-91554463D01*
X103414180Y-91495498D01*
X103297159Y-91460000D01*
X103414180Y-91424502D01*
X103524494Y-91365537D01*
X103621185Y-91286185D01*
X103700537Y-91189494D01*
X103759502Y-91079180D01*
X103795812Y-90959482D01*
X103808072Y-90835000D01*
X103808072Y-89585000D01*
X103795812Y-89460518D01*
X103759502Y-89340820D01*
X103700537Y-89230506D01*
X103630000Y-89144556D01*
X103630000Y-87944801D01*
X105921009Y-85653794D01*
X105950001Y-85630001D01*
X105973795Y-85601008D01*
X105973799Y-85601004D01*
X106044973Y-85514277D01*
X106044974Y-85514276D01*
X106115546Y-85382247D01*
X106159003Y-85238986D01*
X106170000Y-85127333D01*
X106170000Y-85127324D01*
X106173676Y-85090001D01*
X106170000Y-85052678D01*
X106170000Y-71157322D01*
X106173676Y-71119999D01*
X106170000Y-71082676D01*
X106170000Y-71082667D01*
X106159003Y-70971014D01*
X106115546Y-70827753D01*
X106044974Y-70695724D01*
X105950001Y-70579999D01*
X105921003Y-70556201D01*
X104703804Y-69339003D01*
X104680001Y-69309999D01*
X104564276Y-69215026D01*
X104432247Y-69144454D01*
X104288986Y-69100997D01*
X104177333Y-69090000D01*
X104177322Y-69090000D01*
X104140000Y-69086324D01*
X104102678Y-69090000D01*
X101637322Y-69090000D01*
X101599999Y-69086324D01*
X101562676Y-69090000D01*
X101562667Y-69090000D01*
X101451014Y-69100997D01*
X101307753Y-69144454D01*
X101175724Y-69215026D01*
X101059999Y-69309999D01*
X101036201Y-69338998D01*
X100409002Y-69966197D01*
X100379999Y-69989999D01*
X100325629Y-70056250D01*
X100285026Y-70105724D01*
X100214455Y-70237753D01*
X100214454Y-70237754D01*
X100170997Y-70381015D01*
X100160000Y-70492668D01*
X100160000Y-70492678D01*
X100156324Y-70530000D01*
X100160000Y-70567323D01*
X100160001Y-72178354D01*
X100105498Y-72280320D01*
X100069188Y-72400018D01*
X100056928Y-72524500D01*
X100056928Y-73999500D01*
X100069188Y-74123982D01*
X100105498Y-74243680D01*
X100164463Y-74353994D01*
X100243815Y-74450685D01*
X100340506Y-74530037D01*
X100450820Y-74589002D01*
X100570518Y-74625312D01*
X100671092Y-74635217D01*
X99928810Y-75377500D01*
X97830390Y-75377500D01*
X97789999Y-75373522D01*
X97749608Y-75377500D01*
X97749602Y-75377500D01*
X97645380Y-75387765D01*
X97628761Y-75389402D01*
X97592676Y-75400348D01*
X97473720Y-75436433D01*
X97330833Y-75512808D01*
X97205591Y-75615591D01*
X97179835Y-75646975D01*
X95966975Y-76859835D01*
X95935591Y-76885591D01*
X95832808Y-77010834D01*
X95824446Y-77026479D01*
X95756433Y-77153721D01*
X95709402Y-77308762D01*
X95693521Y-77470000D01*
X95697500Y-77510398D01*
X95697501Y-95209592D01*
X95693521Y-95250000D01*
X95709402Y-95411238D01*
X95756433Y-95566279D01*
X95756434Y-95566280D01*
X95832809Y-95709167D01*
X95935592Y-95834409D01*
X95966971Y-95860161D01*
X98449835Y-98343025D01*
X98475591Y-98374409D01*
X98600833Y-98477192D01*
X98743720Y-98553567D01*
X98898762Y-98600598D01*
X99019602Y-98612500D01*
X99019611Y-98612500D01*
X99059999Y-98616478D01*
X99100387Y-98612500D01*
X100022873Y-98612500D01*
X100050877Y-98646623D01*
X100183558Y-98755512D01*
X100334933Y-98836423D01*
X100499184Y-98886248D01*
X100670000Y-98903072D01*
X100744882Y-98903072D01*
X100833738Y-98991928D01*
X100519999Y-98991928D01*
X100346745Y-99008992D01*
X100180149Y-99059528D01*
X100026613Y-99141595D01*
X99892038Y-99252038D01*
X99781595Y-99386613D01*
X99716979Y-99507500D01*
X96860690Y-99507500D01*
X95055165Y-97701975D01*
X95029409Y-97670591D01*
X94904167Y-97567808D01*
X94761280Y-97491433D01*
X94606238Y-97444402D01*
X94485398Y-97432500D01*
X94445000Y-97428521D01*
X94404602Y-97432500D01*
X91387887Y-97432500D01*
X91383405Y-97424114D01*
X91272962Y-97289538D01*
X91138386Y-97179095D01*
X90992500Y-97101117D01*
X90992500Y-95290398D01*
X90996479Y-95250000D01*
X90980598Y-95088762D01*
X90933567Y-94933720D01*
X90857192Y-94790833D01*
X90754409Y-94665591D01*
X90723030Y-94639839D01*
X89452500Y-93369310D01*
X89452500Y-92909569D01*
X89473387Y-92898405D01*
X89607962Y-92787962D01*
X89718405Y-92653387D01*
X89800472Y-92499851D01*
X89851008Y-92333255D01*
X89868072Y-92160001D01*
X89868072Y-91259999D01*
X89851008Y-91086745D01*
X89800472Y-90920149D01*
X89722500Y-90774274D01*
X89722500Y-89943996D01*
X89802962Y-89877962D01*
X89913405Y-89743387D01*
X89995472Y-89589851D01*
X90046008Y-89423255D01*
X90063072Y-89250001D01*
X90063072Y-88549999D01*
X90046008Y-88376745D01*
X89995472Y-88210149D01*
X89913405Y-88056613D01*
X89802962Y-87922038D01*
X89668387Y-87811595D01*
X89514851Y-87729528D01*
X89348255Y-87678992D01*
X89175001Y-87661928D01*
X88624999Y-87661928D01*
X88451745Y-87678992D01*
X88285149Y-87729528D01*
X88131613Y-87811595D01*
X87997038Y-87922038D01*
X87886595Y-88056613D01*
X87804528Y-88210149D01*
X87753992Y-88376745D01*
X87750000Y-88417277D01*
X87746008Y-88376745D01*
X87695472Y-88210149D01*
X87613405Y-88056613D01*
X87502962Y-87922038D01*
X87368387Y-87811595D01*
X87214851Y-87729528D01*
X87048255Y-87678992D01*
X86875001Y-87661928D01*
X86324999Y-87661928D01*
X86151745Y-87678992D01*
X85985149Y-87729528D01*
X85831613Y-87811595D01*
X85697038Y-87922038D01*
X85586595Y-88056613D01*
X85575431Y-88077500D01*
X84160691Y-88077500D01*
X77445165Y-81361975D01*
X77419409Y-81330591D01*
X77294167Y-81227808D01*
X77151280Y-81151433D01*
X76996238Y-81104402D01*
X76875398Y-81092500D01*
X76835000Y-81088521D01*
X76794602Y-81092500D01*
X75222969Y-81092500D01*
X75232572Y-80995000D01*
X75232572Y-80295000D01*
X75220312Y-80170518D01*
X75184002Y-80050820D01*
X75125037Y-79940506D01*
X75045685Y-79843815D01*
X74948994Y-79764463D01*
X74838680Y-79705498D01*
X74718982Y-79669188D01*
X74654500Y-79662837D01*
X74654500Y-75098690D01*
X78510690Y-71242500D01*
X81186928Y-71242500D01*
X81199188Y-71366982D01*
X81235498Y-71486680D01*
X81294463Y-71596994D01*
X81373815Y-71693685D01*
X81470506Y-71773037D01*
X81580820Y-71832002D01*
X81700518Y-71868312D01*
X81825000Y-71880572D01*
X82264250Y-71877500D01*
X82423000Y-71718750D01*
X82423000Y-70782000D01*
X82677000Y-70782000D01*
X82677000Y-71718750D01*
X82835750Y-71877500D01*
X83275000Y-71880572D01*
X83399482Y-71868312D01*
X83519180Y-71832002D01*
X83629494Y-71773037D01*
X83726185Y-71693685D01*
X83805537Y-71596994D01*
X83820000Y-71569936D01*
X83834463Y-71596994D01*
X83913815Y-71693685D01*
X84010506Y-71773037D01*
X84120820Y-71832002D01*
X84240518Y-71868312D01*
X84365000Y-71880572D01*
X84804250Y-71877500D01*
X84963000Y-71718750D01*
X84963000Y-70782000D01*
X85217000Y-70782000D01*
X85217000Y-71718750D01*
X85375750Y-71877500D01*
X85815000Y-71880572D01*
X85939482Y-71868312D01*
X86059180Y-71832002D01*
X86169494Y-71773037D01*
X86266185Y-71693685D01*
X86345537Y-71596994D01*
X86360000Y-71569936D01*
X86374463Y-71596994D01*
X86453815Y-71693685D01*
X86550506Y-71773037D01*
X86660820Y-71832002D01*
X86780518Y-71868312D01*
X86905000Y-71880572D01*
X87344250Y-71877500D01*
X87503000Y-71718750D01*
X87503000Y-70782000D01*
X87757000Y-70782000D01*
X87757000Y-71718750D01*
X87915750Y-71877500D01*
X88355000Y-71880572D01*
X88479482Y-71868312D01*
X88599180Y-71832002D01*
X88709494Y-71773037D01*
X88806185Y-71693685D01*
X88885537Y-71596994D01*
X88900000Y-71569936D01*
X88914463Y-71596994D01*
X88993815Y-71693685D01*
X89090506Y-71773037D01*
X89200820Y-71832002D01*
X89320518Y-71868312D01*
X89445000Y-71880572D01*
X89884250Y-71877500D01*
X90043000Y-71718750D01*
X90043000Y-70782000D01*
X90297000Y-70782000D01*
X90297000Y-71718750D01*
X90455750Y-71877500D01*
X90895000Y-71880572D01*
X91019482Y-71868312D01*
X91139180Y-71832002D01*
X91249494Y-71773037D01*
X91346185Y-71693685D01*
X91425537Y-71596994D01*
X91484502Y-71486680D01*
X91520812Y-71366982D01*
X91533072Y-71242500D01*
X91530000Y-70940750D01*
X91371250Y-70782000D01*
X90297000Y-70782000D01*
X90043000Y-70782000D01*
X88968750Y-70782000D01*
X88900000Y-70850750D01*
X88831250Y-70782000D01*
X87757000Y-70782000D01*
X87503000Y-70782000D01*
X86428750Y-70782000D01*
X86360000Y-70850750D01*
X86291250Y-70782000D01*
X85217000Y-70782000D01*
X84963000Y-70782000D01*
X83888750Y-70782000D01*
X83820000Y-70850750D01*
X83751250Y-70782000D01*
X82677000Y-70782000D01*
X82423000Y-70782000D01*
X81348750Y-70782000D01*
X81190000Y-70940750D01*
X81186928Y-71242500D01*
X78510690Y-71242500D01*
X80350690Y-69402500D01*
X81332113Y-69402500D01*
X81336595Y-69410886D01*
X81447038Y-69545462D01*
X81453594Y-69550842D01*
X81373815Y-69616315D01*
X81294463Y-69713006D01*
X81235498Y-69823320D01*
X81199188Y-69943018D01*
X81186928Y-70067500D01*
X81190000Y-70369250D01*
X81348750Y-70528000D01*
X82423000Y-70528000D01*
X82423000Y-70508000D01*
X82677000Y-70508000D01*
X82677000Y-70528000D01*
X83751250Y-70528000D01*
X83820000Y-70459250D01*
X83888750Y-70528000D01*
X84963000Y-70528000D01*
X84963000Y-70508000D01*
X85217000Y-70508000D01*
X85217000Y-70528000D01*
X86291250Y-70528000D01*
X86360000Y-70459250D01*
X86428750Y-70528000D01*
X87503000Y-70528000D01*
X87503000Y-70508000D01*
X87757000Y-70508000D01*
X87757000Y-70528000D01*
X88831250Y-70528000D01*
X88900000Y-70459250D01*
X88968750Y-70528000D01*
X90043000Y-70528000D01*
X90043000Y-70508000D01*
X90297000Y-70508000D01*
X90297000Y-70528000D01*
X91371250Y-70528000D01*
X91530000Y-70369250D01*
X91533072Y-70067500D01*
X91520812Y-69943018D01*
X91484502Y-69823320D01*
X91425537Y-69713006D01*
X91346185Y-69616315D01*
X91266406Y-69550842D01*
X91272962Y-69545462D01*
X91383405Y-69410886D01*
X91387887Y-69402500D01*
X97919602Y-69402500D01*
X97960000Y-69406479D01*
X98000398Y-69402500D01*
X98121238Y-69390598D01*
X98276280Y-69343567D01*
X98419167Y-69267192D01*
X98544409Y-69164409D01*
X98570165Y-69133025D01*
X102595119Y-65108072D01*
X103670000Y-65108072D01*
X103794482Y-65095812D01*
X103914180Y-65059502D01*
X104024494Y-65000537D01*
X104121185Y-64921185D01*
X104200537Y-64824494D01*
X104259502Y-64714180D01*
X104295812Y-64594482D01*
X104308072Y-64470000D01*
X104308072Y-62870000D01*
X104295812Y-62745518D01*
X104259502Y-62625820D01*
X104200537Y-62515506D01*
X104148135Y-62451653D01*
X104627952Y-62451653D01*
X104783962Y-62767214D01*
X105158745Y-62958020D01*
X105563551Y-63072044D01*
X105982824Y-63104902D01*
X106400451Y-63055334D01*
X106800383Y-62925243D01*
X107096038Y-62767214D01*
X107252048Y-62451653D01*
X105940000Y-61139605D01*
X104627952Y-62451653D01*
X104148135Y-62451653D01*
X104121185Y-62418815D01*
X104024494Y-62339463D01*
X103914180Y-62280498D01*
X103794482Y-62244188D01*
X103670000Y-62231928D01*
X102070000Y-62231928D01*
X101945518Y-62244188D01*
X101825820Y-62280498D01*
X101715506Y-62339463D01*
X101618815Y-62418815D01*
X101539463Y-62515506D01*
X101480498Y-62625820D01*
X101451339Y-62721943D01*
X101284759Y-62555363D01*
X101049727Y-62398320D01*
X100788574Y-62290147D01*
X100511335Y-62235000D01*
X100228665Y-62235000D01*
X99951426Y-62290147D01*
X99690273Y-62398320D01*
X99455241Y-62555363D01*
X99370000Y-62640604D01*
X99284759Y-62555363D01*
X99049727Y-62398320D01*
X98788574Y-62290147D01*
X98511335Y-62235000D01*
X98228665Y-62235000D01*
X97951426Y-62290147D01*
X97690273Y-62398320D01*
X97455241Y-62555363D01*
X97255363Y-62755241D01*
X97121308Y-62955869D01*
X97106671Y-62928486D01*
X96862702Y-62856903D01*
X96049605Y-63670000D01*
X96862702Y-64483097D01*
X97106671Y-64411514D01*
X97120324Y-64382659D01*
X97255363Y-64584759D01*
X97455241Y-64784637D01*
X97690273Y-64941680D01*
X97951426Y-65049853D01*
X98228665Y-65105000D01*
X98511335Y-65105000D01*
X98788574Y-65049853D01*
X99049727Y-64941680D01*
X99284759Y-64784637D01*
X99370000Y-64699396D01*
X99455241Y-64784637D01*
X99690273Y-64941680D01*
X99951426Y-65049853D01*
X100228665Y-65105000D01*
X100271809Y-65105000D01*
X97619310Y-67757500D01*
X91387887Y-67757500D01*
X91383405Y-67749114D01*
X91272962Y-67614538D01*
X91138386Y-67504095D01*
X90984850Y-67422028D01*
X90818254Y-67371492D01*
X90645000Y-67354428D01*
X89695000Y-67354428D01*
X89521746Y-67371492D01*
X89355150Y-67422028D01*
X89201614Y-67504095D01*
X89067038Y-67614538D01*
X88956595Y-67749114D01*
X88952113Y-67757500D01*
X88847887Y-67757500D01*
X88843405Y-67749114D01*
X88732962Y-67614538D01*
X88598386Y-67504095D01*
X88444850Y-67422028D01*
X88278254Y-67371492D01*
X88105000Y-67354428D01*
X87155000Y-67354428D01*
X86981746Y-67371492D01*
X86815150Y-67422028D01*
X86661614Y-67504095D01*
X86527038Y-67614538D01*
X86416595Y-67749114D01*
X86412113Y-67757500D01*
X86307887Y-67757500D01*
X86303405Y-67749114D01*
X86192962Y-67614538D01*
X86058386Y-67504095D01*
X85904850Y-67422028D01*
X85738254Y-67371492D01*
X85565000Y-67354428D01*
X84615000Y-67354428D01*
X84441746Y-67371492D01*
X84275150Y-67422028D01*
X84121614Y-67504095D01*
X83987038Y-67614538D01*
X83876595Y-67749114D01*
X83872113Y-67757500D01*
X83767887Y-67757500D01*
X83763405Y-67749114D01*
X83652962Y-67614538D01*
X83518386Y-67504095D01*
X83364850Y-67422028D01*
X83198254Y-67371492D01*
X83025000Y-67354428D01*
X82075000Y-67354428D01*
X81901746Y-67371492D01*
X81735150Y-67422028D01*
X81581614Y-67504095D01*
X81447038Y-67614538D01*
X81336595Y-67749114D01*
X81332113Y-67757500D01*
X80050387Y-67757500D01*
X80009999Y-67753522D01*
X79969611Y-67757500D01*
X79969602Y-67757500D01*
X79848762Y-67769402D01*
X79693720Y-67816433D01*
X79550833Y-67892808D01*
X79425591Y-67995591D01*
X79399835Y-68026975D01*
X73278971Y-74147839D01*
X73247592Y-74173591D01*
X73144809Y-74298833D01*
X73115325Y-74353994D01*
X73068433Y-74441721D01*
X73021402Y-74596762D01*
X73005521Y-74758000D01*
X73009501Y-74798408D01*
X73009500Y-79662837D01*
X72945018Y-79669188D01*
X72825320Y-79705498D01*
X72715006Y-79764463D01*
X72618315Y-79843815D01*
X72538963Y-79940506D01*
X72479998Y-80050820D01*
X72443688Y-80170518D01*
X72431428Y-80295000D01*
X72431428Y-80927390D01*
X72409180Y-80915498D01*
X72289482Y-80879188D01*
X72165000Y-80866928D01*
X71405750Y-80870000D01*
X71247000Y-81028750D01*
X71247000Y-82423000D01*
X71267000Y-82423000D01*
X71267000Y-82677000D01*
X71247000Y-82677000D01*
X71247000Y-84071250D01*
X71405750Y-84230000D01*
X72165000Y-84233072D01*
X72289482Y-84220812D01*
X72409180Y-84184502D01*
X72431428Y-84172610D01*
X72431428Y-84805000D01*
X72443688Y-84929482D01*
X72479998Y-85049180D01*
X72538963Y-85159494D01*
X72618315Y-85256185D01*
X72715006Y-85335537D01*
X72825320Y-85394502D01*
X72945018Y-85430812D01*
X73069500Y-85443072D01*
X73072000Y-85443072D01*
X73072001Y-90755520D01*
X73036745Y-90758992D01*
X72870149Y-90809528D01*
X72716613Y-90891595D01*
X72582038Y-91002038D01*
X72471595Y-91136613D01*
X72389528Y-91290149D01*
X72338992Y-91456745D01*
X72321928Y-91629999D01*
X72321928Y-92330001D01*
X72338992Y-92503255D01*
X72389528Y-92669851D01*
X72471595Y-92823387D01*
X72582038Y-92957962D01*
X72608891Y-92980000D01*
X72582038Y-93002038D01*
X72471595Y-93136613D01*
X72389528Y-93290149D01*
X72338992Y-93456745D01*
X72321928Y-93629999D01*
X72321928Y-94330001D01*
X72338992Y-94503255D01*
X72389528Y-94669851D01*
X72471595Y-94823387D01*
X72582038Y-94957962D01*
X72716613Y-95068405D01*
X72870149Y-95150472D01*
X72900000Y-95159527D01*
X72900001Y-106345091D01*
X72885537Y-106351082D01*
X72617748Y-106530013D01*
X72390013Y-106757748D01*
X72211082Y-107025537D01*
X72087832Y-107323088D01*
X72025000Y-107638967D01*
X72025000Y-107961033D01*
X72087832Y-108276912D01*
X72211082Y-108574463D01*
X72390013Y-108842252D01*
X72617748Y-109069987D01*
X72885537Y-109248918D01*
X72900000Y-109254909D01*
X72900001Y-112845091D01*
X72885537Y-112851082D01*
X72617748Y-113030013D01*
X72390013Y-113257748D01*
X72211082Y-113525537D01*
X72087832Y-113823088D01*
X72025000Y-114138967D01*
X72025000Y-114461033D01*
X72087832Y-114776912D01*
X72211082Y-115074463D01*
X72390013Y-115342252D01*
X72617748Y-115569987D01*
X72885537Y-115748918D01*
X73183088Y-115872168D01*
X73498967Y-115935000D01*
X73821033Y-115935000D01*
X74136912Y-115872168D01*
X74434463Y-115748918D01*
X74702252Y-115569987D01*
X74836826Y-115435413D01*
X77204192Y-115435413D01*
X77299956Y-115699814D01*
X77589571Y-115840704D01*
X77901108Y-115922384D01*
X78222595Y-115941718D01*
X78541675Y-115897961D01*
X78846088Y-115792795D01*
X79020044Y-115699814D01*
X79115808Y-115435413D01*
X78160000Y-114479605D01*
X77204192Y-115435413D01*
X74836826Y-115435413D01*
X74929987Y-115342252D01*
X75108918Y-115074463D01*
X75232168Y-114776912D01*
X75295000Y-114461033D01*
X75295000Y-114362595D01*
X76518282Y-114362595D01*
X76562039Y-114681675D01*
X76667205Y-114986088D01*
X76760186Y-115160044D01*
X77024587Y-115255808D01*
X77980395Y-114300000D01*
X78339605Y-114300000D01*
X79295413Y-115255808D01*
X79559814Y-115160044D01*
X79700704Y-114870429D01*
X79782384Y-114558892D01*
X79801718Y-114237405D01*
X79757961Y-113918325D01*
X79652795Y-113613912D01*
X79559814Y-113439956D01*
X79295413Y-113344192D01*
X78339605Y-114300000D01*
X77980395Y-114300000D01*
X77024587Y-113344192D01*
X76760186Y-113439956D01*
X76619296Y-113729571D01*
X76537616Y-114041108D01*
X76518282Y-114362595D01*
X75295000Y-114362595D01*
X75295000Y-114138967D01*
X75232168Y-113823088D01*
X75108918Y-113525537D01*
X74929987Y-113257748D01*
X74836826Y-113164587D01*
X77204192Y-113164587D01*
X78160000Y-114120395D01*
X79115808Y-113164587D01*
X79020044Y-112900186D01*
X78730429Y-112759296D01*
X78418892Y-112677616D01*
X78097405Y-112658282D01*
X77778325Y-112702039D01*
X77473912Y-112807205D01*
X77299956Y-112900186D01*
X77204192Y-113164587D01*
X74836826Y-113164587D01*
X74702252Y-113030013D01*
X74434463Y-112851082D01*
X74420000Y-112845091D01*
X74420000Y-109254909D01*
X74434463Y-109248918D01*
X74702252Y-109069987D01*
X74836826Y-108935413D01*
X77204192Y-108935413D01*
X77299956Y-109199814D01*
X77589571Y-109340704D01*
X77901108Y-109422384D01*
X78222595Y-109441718D01*
X78541675Y-109397961D01*
X78846088Y-109292795D01*
X79020044Y-109199814D01*
X79115808Y-108935413D01*
X78160000Y-107979605D01*
X77204192Y-108935413D01*
X74836826Y-108935413D01*
X74929987Y-108842252D01*
X75108918Y-108574463D01*
X75232168Y-108276912D01*
X75295000Y-107961033D01*
X75295000Y-107862595D01*
X76518282Y-107862595D01*
X76562039Y-108181675D01*
X76667205Y-108486088D01*
X76760186Y-108660044D01*
X77024587Y-108755808D01*
X77980395Y-107800000D01*
X78339605Y-107800000D01*
X79295413Y-108755808D01*
X79559814Y-108660044D01*
X79700704Y-108370429D01*
X79782384Y-108058892D01*
X79801718Y-107737405D01*
X79757961Y-107418325D01*
X79652795Y-107113912D01*
X79559814Y-106939956D01*
X79295413Y-106844192D01*
X78339605Y-107800000D01*
X77980395Y-107800000D01*
X77024587Y-106844192D01*
X76760186Y-106939956D01*
X76619296Y-107229571D01*
X76537616Y-107541108D01*
X76518282Y-107862595D01*
X75295000Y-107862595D01*
X75295000Y-107638967D01*
X75232168Y-107323088D01*
X75108918Y-107025537D01*
X74929987Y-106757748D01*
X74836826Y-106664587D01*
X77204192Y-106664587D01*
X78160000Y-107620395D01*
X79115808Y-106664587D01*
X79020044Y-106400186D01*
X78730429Y-106259296D01*
X78418892Y-106177616D01*
X78097405Y-106158282D01*
X77778325Y-106202039D01*
X77473912Y-106307205D01*
X77299956Y-106400186D01*
X77204192Y-106664587D01*
X74836826Y-106664587D01*
X74702252Y-106530013D01*
X74434463Y-106351082D01*
X74420000Y-106345091D01*
X74420000Y-100917500D01*
X86266928Y-100917500D01*
X86279188Y-101041982D01*
X86315498Y-101161680D01*
X86374463Y-101271994D01*
X86453815Y-101368685D01*
X86550506Y-101448037D01*
X86660820Y-101507002D01*
X86780518Y-101543312D01*
X86905000Y-101555572D01*
X87344250Y-101552500D01*
X87503000Y-101393750D01*
X87503000Y-100457000D01*
X87757000Y-100457000D01*
X87757000Y-101393750D01*
X87915750Y-101552500D01*
X88355000Y-101555572D01*
X88479482Y-101543312D01*
X88599180Y-101507002D01*
X88709494Y-101448037D01*
X88806185Y-101368685D01*
X88885537Y-101271994D01*
X88900000Y-101244936D01*
X88914463Y-101271994D01*
X88993815Y-101368685D01*
X89090506Y-101448037D01*
X89200820Y-101507002D01*
X89320518Y-101543312D01*
X89445000Y-101555572D01*
X89884250Y-101552500D01*
X90043000Y-101393750D01*
X90043000Y-100457000D01*
X90297000Y-100457000D01*
X90297000Y-101393750D01*
X90455750Y-101552500D01*
X90895000Y-101555572D01*
X91019482Y-101543312D01*
X91139180Y-101507002D01*
X91249494Y-101448037D01*
X91346185Y-101368685D01*
X91425537Y-101271994D01*
X91484502Y-101161680D01*
X91520812Y-101041982D01*
X91533072Y-100917500D01*
X91530000Y-100615750D01*
X91371250Y-100457000D01*
X90297000Y-100457000D01*
X90043000Y-100457000D01*
X88968750Y-100457000D01*
X88900000Y-100525750D01*
X88831250Y-100457000D01*
X87757000Y-100457000D01*
X87503000Y-100457000D01*
X86428750Y-100457000D01*
X86270000Y-100615750D01*
X86266928Y-100917500D01*
X74420000Y-100917500D01*
X74420000Y-95159527D01*
X74449851Y-95150472D01*
X74603387Y-95068405D01*
X74737962Y-94957962D01*
X74848405Y-94823387D01*
X74930472Y-94669851D01*
X74981008Y-94503255D01*
X74998072Y-94330001D01*
X74998072Y-93629999D01*
X74981008Y-93456745D01*
X74930472Y-93290149D01*
X74848405Y-93136613D01*
X74737962Y-93002038D01*
X74711109Y-92980000D01*
X74737962Y-92957962D01*
X74848405Y-92823387D01*
X74930472Y-92669851D01*
X74981008Y-92503255D01*
X74998072Y-92330001D01*
X74998072Y-91629999D01*
X74981008Y-91456745D01*
X74930472Y-91290149D01*
X74848405Y-91136613D01*
X74737962Y-91002038D01*
X74603387Y-90891595D01*
X74592000Y-90885508D01*
X74592000Y-85443072D01*
X74594500Y-85443072D01*
X74718982Y-85430812D01*
X74838680Y-85394502D01*
X74948994Y-85335537D01*
X75045685Y-85256185D01*
X75125037Y-85159494D01*
X75184002Y-85049180D01*
X75220312Y-84929482D01*
X75232572Y-84805000D01*
X75232572Y-84105000D01*
X75222969Y-84007500D01*
X76494310Y-84007500D01*
X84806970Y-92320161D01*
X84900833Y-92397192D01*
X85043720Y-92473567D01*
X85198762Y-92520598D01*
X85360000Y-92536479D01*
X85473149Y-92525334D01*
X85541595Y-92653387D01*
X85652038Y-92787962D01*
X85786613Y-92898405D01*
X85807500Y-92909570D01*
X85807501Y-94209592D01*
X85803521Y-94250000D01*
X85819402Y-94411238D01*
X85866433Y-94566279D01*
X85866434Y-94566280D01*
X85942809Y-94709167D01*
X86003962Y-94783682D01*
X86017353Y-94799999D01*
X86045592Y-94834409D01*
X86076971Y-94860161D01*
X86807500Y-95590691D01*
X86807501Y-97101117D01*
X86661614Y-97179095D01*
X86527038Y-97289538D01*
X86416595Y-97424114D01*
X86334528Y-97577650D01*
X86283992Y-97744246D01*
X86266928Y-97917500D01*
X86266928Y-98592500D01*
X86283992Y-98765754D01*
X86334528Y-98932350D01*
X86416595Y-99085886D01*
X86527038Y-99220462D01*
X86533594Y-99225842D01*
X86453815Y-99291315D01*
X86374463Y-99388006D01*
X86315498Y-99498320D01*
X86279188Y-99618018D01*
X86266928Y-99742500D01*
X86270000Y-100044250D01*
X86428750Y-100203000D01*
X87503000Y-100203000D01*
X87503000Y-100183000D01*
X87757000Y-100183000D01*
X87757000Y-100203000D01*
X88831250Y-100203000D01*
X88900000Y-100134250D01*
X88968750Y-100203000D01*
X90043000Y-100203000D01*
X90043000Y-100183000D01*
X90297000Y-100183000D01*
X90297000Y-100203000D01*
X91371250Y-100203000D01*
X91530000Y-100044250D01*
X91533072Y-99742500D01*
X91520812Y-99618018D01*
X91484502Y-99498320D01*
X91425537Y-99388006D01*
X91346185Y-99291315D01*
X91266406Y-99225842D01*
X91272962Y-99220462D01*
X91383405Y-99085886D01*
X91387887Y-99077500D01*
X94104310Y-99077500D01*
X95909835Y-100883025D01*
X95935591Y-100914409D01*
X96060833Y-101017192D01*
X96203720Y-101093567D01*
X96358761Y-101140598D01*
X96519999Y-101156479D01*
X96560397Y-101152500D01*
X99716979Y-101152500D01*
X99781595Y-101273387D01*
X99892038Y-101407962D01*
X100026613Y-101518405D01*
X100047500Y-101529569D01*
X100047501Y-108339308D01*
X99384881Y-109001928D01*
X98210000Y-109001928D01*
X98085518Y-109014188D01*
X97965820Y-109050498D01*
X97855506Y-109109463D01*
X97758815Y-109188815D01*
X97679463Y-109285506D01*
X97620498Y-109395820D01*
X97584188Y-109515518D01*
X97571928Y-109640000D01*
X97571928Y-111340000D01*
X97584188Y-111464482D01*
X97620498Y-111584180D01*
X97679463Y-111694494D01*
X97758815Y-111791185D01*
X97855506Y-111870537D01*
X97965820Y-111929502D01*
X98085518Y-111965812D01*
X98210000Y-111978072D01*
X99910000Y-111978072D01*
X100034482Y-111965812D01*
X100154180Y-111929502D01*
X100264494Y-111870537D01*
X100361185Y-111791185D01*
X100440537Y-111694494D01*
X100499502Y-111584180D01*
X100535812Y-111464482D01*
X100548072Y-111340000D01*
X100548072Y-110165119D01*
X101059991Y-109653200D01*
X101059991Y-117486819D01*
X99989310Y-118557500D01*
X53680690Y-118557500D01*
X52892500Y-117769310D01*
X52892500Y-111978072D01*
X52920000Y-111978072D01*
X53044482Y-111965812D01*
X53164180Y-111929502D01*
X53274494Y-111870537D01*
X53371185Y-111791185D01*
X53450537Y-111694494D01*
X53509502Y-111584180D01*
X53545812Y-111464482D01*
X53558072Y-111340000D01*
X53558072Y-109640000D01*
X53545812Y-109515518D01*
X53509502Y-109395820D01*
X53450537Y-109285506D01*
X53371185Y-109188815D01*
X53274494Y-109109463D01*
X53164180Y-109050498D01*
X53044482Y-109014188D01*
X52920000Y-109001928D01*
X51220000Y-109001928D01*
X51095518Y-109014188D01*
X50975820Y-109050498D01*
X50865506Y-109109463D01*
X50768815Y-109188815D01*
X50689463Y-109285506D01*
X50630498Y-109395820D01*
X50594188Y-109515518D01*
X50581928Y-109640000D01*
X38760000Y-109640000D01*
X38760000Y-75749999D01*
X47536928Y-75749999D01*
X47536928Y-76650001D01*
X47553992Y-76823255D01*
X47604528Y-76989851D01*
X47686595Y-77143387D01*
X47797038Y-77277962D01*
X47931613Y-77388405D01*
X47990000Y-77419614D01*
X47990001Y-81330386D01*
X47931613Y-81361595D01*
X47797038Y-81472038D01*
X47686595Y-81606613D01*
X47604528Y-81760149D01*
X47553992Y-81926745D01*
X47536928Y-82099999D01*
X47536928Y-83000001D01*
X47553992Y-83173255D01*
X47604528Y-83339851D01*
X47686595Y-83493387D01*
X47797038Y-83627962D01*
X47931613Y-83738405D01*
X48085149Y-83820472D01*
X48251745Y-83871008D01*
X48424999Y-83888072D01*
X49075001Y-83888072D01*
X49248255Y-83871008D01*
X49414851Y-83820472D01*
X49568387Y-83738405D01*
X49702962Y-83627962D01*
X49775000Y-83540184D01*
X49847038Y-83627962D01*
X49885594Y-83659604D01*
X48239003Y-85306196D01*
X48209999Y-85329999D01*
X48167121Y-85382247D01*
X48115026Y-85445724D01*
X48044455Y-85577753D01*
X48044454Y-85577754D01*
X48000997Y-85721015D01*
X47990000Y-85832668D01*
X47990000Y-85832678D01*
X47986324Y-85870000D01*
X47990000Y-85907323D01*
X47990001Y-87680386D01*
X47931613Y-87711595D01*
X47797038Y-87822038D01*
X47686595Y-87956613D01*
X47604528Y-88110149D01*
X47553992Y-88276745D01*
X47536928Y-88449999D01*
X47536928Y-89350001D01*
X47553992Y-89523255D01*
X47604528Y-89689851D01*
X47686595Y-89843387D01*
X47797038Y-89977962D01*
X47931613Y-90088405D01*
X47990000Y-90119614D01*
X47990001Y-94030386D01*
X47931613Y-94061595D01*
X47797038Y-94172038D01*
X47686595Y-94306613D01*
X47604528Y-94460149D01*
X47553992Y-94626745D01*
X47536928Y-94799999D01*
X47536928Y-95700001D01*
X47553992Y-95873255D01*
X47604528Y-96039851D01*
X47686595Y-96193387D01*
X47797038Y-96327962D01*
X47931613Y-96438405D01*
X47990001Y-96469614D01*
X47990000Y-98242677D01*
X47986324Y-98280000D01*
X47990000Y-98317322D01*
X47990000Y-98317332D01*
X48000997Y-98428985D01*
X48034370Y-98539003D01*
X48044454Y-98572246D01*
X48115026Y-98704276D01*
X48154871Y-98752826D01*
X48209999Y-98820001D01*
X48239002Y-98843803D01*
X48966201Y-99571002D01*
X48989999Y-99600001D01*
X49018997Y-99623799D01*
X49105724Y-99694974D01*
X49237753Y-99765546D01*
X49381014Y-99809003D01*
X49530000Y-99823677D01*
X49567333Y-99820000D01*
X52032678Y-99820000D01*
X52070000Y-99823676D01*
X52107322Y-99820000D01*
X52107333Y-99820000D01*
X52218986Y-99809003D01*
X52362247Y-99765546D01*
X52494276Y-99694974D01*
X52610001Y-99600001D01*
X52633804Y-99570997D01*
X53851003Y-98353799D01*
X53880001Y-98330001D01*
X53974974Y-98214276D01*
X54045546Y-98082247D01*
X54089003Y-97938986D01*
X54100000Y-97827333D01*
X54100000Y-97827324D01*
X54103676Y-97790001D01*
X54100000Y-97752678D01*
X54100000Y-89214801D01*
X58099802Y-85215000D01*
X67160515Y-85215000D01*
X67194315Y-85256185D01*
X67291006Y-85335537D01*
X67401320Y-85394502D01*
X67521018Y-85430812D01*
X67645500Y-85443072D01*
X69170500Y-85443072D01*
X69294982Y-85430812D01*
X69414680Y-85394502D01*
X69524994Y-85335537D01*
X69621685Y-85256185D01*
X69701037Y-85159494D01*
X69760002Y-85049180D01*
X69796312Y-84929482D01*
X69808572Y-84805000D01*
X69808572Y-84172610D01*
X69830820Y-84184502D01*
X69950518Y-84220812D01*
X70075000Y-84233072D01*
X70834250Y-84230000D01*
X70993000Y-84071250D01*
X70993000Y-82677000D01*
X70973000Y-82677000D01*
X70973000Y-82423000D01*
X70993000Y-82423000D01*
X70993000Y-81028750D01*
X70834250Y-80870000D01*
X70075000Y-80866928D01*
X69950518Y-80879188D01*
X69830820Y-80915498D01*
X69808572Y-80927390D01*
X69808572Y-80295000D01*
X69796312Y-80170518D01*
X69760002Y-80050820D01*
X69701037Y-79940506D01*
X69621685Y-79843815D01*
X69524994Y-79764463D01*
X69414680Y-79705498D01*
X69294982Y-79669188D01*
X69230500Y-79662837D01*
X69230500Y-70988387D01*
X69234478Y-70947999D01*
X69230500Y-70907611D01*
X69230500Y-70907602D01*
X69218598Y-70786762D01*
X69171567Y-70631720D01*
X69095192Y-70488833D01*
X68992409Y-70363591D01*
X68961026Y-70337836D01*
X67115165Y-68491975D01*
X67089409Y-68460591D01*
X66964167Y-68357808D01*
X66821280Y-68281433D01*
X66666238Y-68234402D01*
X66545398Y-68222500D01*
X66505000Y-68218521D01*
X66464602Y-68222500D01*
X64717887Y-68222500D01*
X64713405Y-68214114D01*
X64602962Y-68079538D01*
X64468386Y-67969095D01*
X64314850Y-67887028D01*
X64148254Y-67836492D01*
X63975000Y-67819428D01*
X63025000Y-67819428D01*
X62851746Y-67836492D01*
X62685150Y-67887028D01*
X62531614Y-67969095D01*
X62397038Y-68079538D01*
X62286595Y-68214114D01*
X62242024Y-68297500D01*
X62159569Y-68297500D01*
X62148405Y-68276613D01*
X62037962Y-68142038D01*
X61903387Y-68031595D01*
X61749851Y-67949528D01*
X61583255Y-67898992D01*
X61410001Y-67881928D01*
X60509999Y-67881928D01*
X60336745Y-67898992D01*
X60170149Y-67949528D01*
X60016613Y-68031595D01*
X59882038Y-68142038D01*
X59771595Y-68276613D01*
X59760431Y-68297500D01*
X59300691Y-68297500D01*
X56782500Y-65779310D01*
X56782500Y-64662702D01*
X95056903Y-64662702D01*
X95128486Y-64906671D01*
X95383996Y-65027571D01*
X95658184Y-65096300D01*
X95940512Y-65110217D01*
X96220130Y-65068787D01*
X96486292Y-64973603D01*
X96611514Y-64906671D01*
X96683097Y-64662702D01*
X95870000Y-63849605D01*
X95056903Y-64662702D01*
X56782500Y-64662702D01*
X56782500Y-63740512D01*
X94429783Y-63740512D01*
X94471213Y-64020130D01*
X94566397Y-64286292D01*
X94633329Y-64411514D01*
X94877298Y-64483097D01*
X95690395Y-63670000D01*
X94877298Y-62856903D01*
X94633329Y-62928486D01*
X94512429Y-63183996D01*
X94443700Y-63458184D01*
X94429783Y-63740512D01*
X56782500Y-63740512D01*
X56782500Y-62451653D01*
X91487952Y-62451653D01*
X91643962Y-62767214D01*
X92018745Y-62958020D01*
X92423551Y-63072044D01*
X92842824Y-63104902D01*
X93260451Y-63055334D01*
X93660383Y-62925243D01*
X93956038Y-62767214D01*
X94000491Y-62677298D01*
X95056903Y-62677298D01*
X95870000Y-63490395D01*
X96683097Y-62677298D01*
X96611514Y-62433329D01*
X96356004Y-62312429D01*
X96081816Y-62243700D01*
X95799488Y-62229783D01*
X95519870Y-62271213D01*
X95253708Y-62366397D01*
X95128486Y-62433329D01*
X95056903Y-62677298D01*
X94000491Y-62677298D01*
X94112048Y-62451653D01*
X92800000Y-61139605D01*
X91487952Y-62451653D01*
X56782500Y-62451653D01*
X56782500Y-62270398D01*
X56786479Y-62230000D01*
X56770598Y-62068762D01*
X56723567Y-61913720D01*
X56647192Y-61770833D01*
X56570161Y-61676970D01*
X56544409Y-61645591D01*
X56513031Y-61619840D01*
X55896015Y-61002824D01*
X90655098Y-61002824D01*
X90704666Y-61420451D01*
X90834757Y-61820383D01*
X90992786Y-62116038D01*
X91308347Y-62272048D01*
X92620395Y-60960000D01*
X92979605Y-60960000D01*
X94291653Y-62272048D01*
X94607214Y-62116038D01*
X94798020Y-61741255D01*
X94912044Y-61336449D01*
X94938189Y-61002824D01*
X103795098Y-61002824D01*
X103844666Y-61420451D01*
X103974757Y-61820383D01*
X104132786Y-62116038D01*
X104448347Y-62272048D01*
X105760395Y-60960000D01*
X106119605Y-60960000D01*
X107431653Y-62272048D01*
X107747214Y-62116038D01*
X107938020Y-61741255D01*
X108052044Y-61336449D01*
X108084902Y-60917176D01*
X108035334Y-60499549D01*
X107905243Y-60099617D01*
X107747214Y-59803962D01*
X107431653Y-59647952D01*
X106119605Y-60960000D01*
X105760395Y-60960000D01*
X104448347Y-59647952D01*
X104132786Y-59803962D01*
X103941980Y-60178745D01*
X103827956Y-60583551D01*
X103795098Y-61002824D01*
X94938189Y-61002824D01*
X94944902Y-60917176D01*
X94895334Y-60499549D01*
X94765243Y-60099617D01*
X94607214Y-59803962D01*
X94291653Y-59647952D01*
X92979605Y-60960000D01*
X92620395Y-60960000D01*
X91308347Y-59647952D01*
X90992786Y-59803962D01*
X90801980Y-60178745D01*
X90687956Y-60583551D01*
X90655098Y-61002824D01*
X55896015Y-61002824D01*
X55886019Y-60992829D01*
X55974494Y-60945537D01*
X56071185Y-60866185D01*
X56150537Y-60769494D01*
X56209502Y-60659180D01*
X56245812Y-60539482D01*
X56258072Y-60415000D01*
X56257247Y-60297104D01*
X56263000Y-60292954D01*
X56263000Y-58902000D01*
X56517000Y-58902000D01*
X56517000Y-60292954D01*
X56691874Y-60419119D01*
X56914976Y-60339276D01*
X57102764Y-60217369D01*
X57263161Y-60061169D01*
X57390003Y-59876678D01*
X57478415Y-59670987D01*
X57521522Y-59468347D01*
X91487952Y-59468347D01*
X92800000Y-60780395D01*
X94112048Y-59468347D01*
X104627952Y-59468347D01*
X105940000Y-60780395D01*
X107252048Y-59468347D01*
X107096038Y-59152786D01*
X106721255Y-58961980D01*
X106316449Y-58847956D01*
X105897176Y-58815098D01*
X105479549Y-58864666D01*
X105079617Y-58994757D01*
X104783962Y-59152786D01*
X104627952Y-59468347D01*
X94112048Y-59468347D01*
X93956038Y-59152786D01*
X93581255Y-58961980D01*
X93176449Y-58847956D01*
X92757176Y-58815098D01*
X92339549Y-58864666D01*
X91939617Y-58994757D01*
X91643962Y-59152786D01*
X91487952Y-59468347D01*
X57521522Y-59468347D01*
X57525000Y-59452000D01*
X57525000Y-58902000D01*
X56517000Y-58902000D01*
X56263000Y-58902000D01*
X56251867Y-58902000D01*
X56245812Y-58840518D01*
X56243000Y-58831248D01*
X56243000Y-58648000D01*
X56263000Y-58648000D01*
X56263000Y-57257046D01*
X56517000Y-57257046D01*
X56517000Y-58648000D01*
X57525000Y-58648000D01*
X57525000Y-58098000D01*
X57478415Y-57879013D01*
X57390003Y-57673322D01*
X57263161Y-57488831D01*
X57102764Y-57332631D01*
X56914976Y-57210724D01*
X56691874Y-57130881D01*
X56517000Y-57257046D01*
X56263000Y-57257046D01*
X56088126Y-57130881D01*
X55865024Y-57210724D01*
X55677236Y-57332631D01*
X55532884Y-57473206D01*
X55414731Y-57394259D01*
X55240022Y-57321892D01*
X55054552Y-57285000D01*
X54865448Y-57285000D01*
X54679978Y-57321892D01*
X54505269Y-57394259D01*
X54348036Y-57499319D01*
X54214319Y-57633036D01*
X54132826Y-57754999D01*
X50007174Y-57754999D01*
X49925681Y-57633036D01*
X49791964Y-57499319D01*
X49634731Y-57394259D01*
X49460022Y-57321892D01*
X49274552Y-57285000D01*
X49085448Y-57285000D01*
X48899978Y-57321892D01*
X48725269Y-57394259D01*
X48607116Y-57473206D01*
X48462764Y-57332631D01*
X48274976Y-57210724D01*
X48051874Y-57130881D01*
X47877000Y-57257046D01*
X47877000Y-58648000D01*
X47897000Y-58648000D01*
X47897000Y-58831248D01*
X47894188Y-58840518D01*
X47888133Y-58902000D01*
X47877000Y-58902000D01*
X47877000Y-60292954D01*
X47882753Y-60297104D01*
X47881928Y-60415000D01*
X47894188Y-60539482D01*
X47930498Y-60659180D01*
X47989463Y-60769494D01*
X48068815Y-60866185D01*
X48165506Y-60945537D01*
X48275820Y-61004502D01*
X48395518Y-61040812D01*
X48520000Y-61053072D01*
X48534250Y-61050000D01*
X48693000Y-60891250D01*
X48693000Y-60527420D01*
X48694188Y-60539482D01*
X48730498Y-60659180D01*
X48789463Y-60769494D01*
X48868815Y-60866185D01*
X48965506Y-60945537D01*
X49042375Y-60986625D01*
X49105750Y-61050000D01*
X49120000Y-61053072D01*
X49220000Y-61043223D01*
X49320000Y-61053072D01*
X49585000Y-61053072D01*
X49584999Y-63246370D01*
X49529528Y-63350149D01*
X49478992Y-63516745D01*
X49461928Y-63689999D01*
X49461928Y-64390001D01*
X49478992Y-64563255D01*
X49529528Y-64729851D01*
X49611595Y-64883387D01*
X49678276Y-64964637D01*
X49648815Y-64988815D01*
X49569463Y-65085506D01*
X49510498Y-65195820D01*
X49474188Y-65315518D01*
X49461928Y-65440000D01*
X49465000Y-65754250D01*
X49623750Y-65913000D01*
X50673000Y-65913000D01*
X50673000Y-65893000D01*
X50927000Y-65893000D01*
X50927000Y-65913000D01*
X51976250Y-65913000D01*
X52070000Y-65819250D01*
X52163750Y-65913000D01*
X53213000Y-65913000D01*
X53213000Y-65893000D01*
X53467000Y-65893000D01*
X53467000Y-65913000D01*
X54516250Y-65913000D01*
X54675000Y-65754250D01*
X54678072Y-65440000D01*
X54665812Y-65315518D01*
X54629502Y-65195820D01*
X54570537Y-65085506D01*
X54491185Y-64988815D01*
X54461724Y-64964637D01*
X54528405Y-64883387D01*
X54610472Y-64729851D01*
X54661008Y-64563255D01*
X54678072Y-64390001D01*
X54678072Y-63689999D01*
X54661008Y-63516745D01*
X54610472Y-63350149D01*
X54528405Y-63196613D01*
X54417962Y-63062038D01*
X54283387Y-62951595D01*
X54129851Y-62869528D01*
X54100000Y-62860473D01*
X54100000Y-61533190D01*
X55137500Y-62570691D01*
X55137501Y-66079592D01*
X55133521Y-66120000D01*
X55149402Y-66281238D01*
X55196433Y-66436279D01*
X55196434Y-66436280D01*
X55272809Y-66579167D01*
X55375592Y-66704409D01*
X55406971Y-66730161D01*
X58349839Y-69673030D01*
X58375591Y-69704409D01*
X58406970Y-69730161D01*
X58500833Y-69807192D01*
X58643720Y-69883567D01*
X58798762Y-69930598D01*
X58960000Y-69946479D01*
X59000398Y-69942500D01*
X59760431Y-69942500D01*
X59771595Y-69963387D01*
X59882038Y-70097962D01*
X59908891Y-70120000D01*
X59882038Y-70142038D01*
X59771595Y-70276613D01*
X59689528Y-70430149D01*
X59638992Y-70596745D01*
X59621928Y-70769999D01*
X59621928Y-71470001D01*
X59638992Y-71643255D01*
X59689528Y-71809851D01*
X59771595Y-71963387D01*
X59882038Y-72097962D01*
X60016613Y-72208405D01*
X60170149Y-72290472D01*
X60200000Y-72299527D01*
X60200001Y-72950389D01*
X60145150Y-72967028D01*
X59991614Y-73049095D01*
X59857038Y-73159538D01*
X59746595Y-73294114D01*
X59664528Y-73447650D01*
X59613992Y-73614246D01*
X59596928Y-73787500D01*
X59596928Y-74462500D01*
X59613992Y-74635754D01*
X59664528Y-74802350D01*
X59746595Y-74955886D01*
X59857038Y-75090462D01*
X59863594Y-75095842D01*
X59783815Y-75161315D01*
X59704463Y-75258006D01*
X59645498Y-75368320D01*
X59609188Y-75488018D01*
X59596928Y-75612500D01*
X59600000Y-75914250D01*
X59758750Y-76073000D01*
X60833000Y-76073000D01*
X60833000Y-76053000D01*
X61087000Y-76053000D01*
X61087000Y-76073000D01*
X62161250Y-76073000D01*
X62320000Y-75914250D01*
X62323072Y-75612500D01*
X62310812Y-75488018D01*
X62274502Y-75368320D01*
X62215537Y-75258006D01*
X62136185Y-75161315D01*
X62056406Y-75095842D01*
X62062962Y-75090462D01*
X62173405Y-74955886D01*
X62255472Y-74802350D01*
X62306008Y-74635754D01*
X62323072Y-74462500D01*
X62323072Y-73787500D01*
X62306008Y-73614246D01*
X62255472Y-73447650D01*
X62173405Y-73294114D01*
X62062962Y-73159538D01*
X61928386Y-73049095D01*
X61774850Y-72967028D01*
X61720000Y-72950390D01*
X61720000Y-72299527D01*
X61749851Y-72290472D01*
X61903387Y-72208405D01*
X62037962Y-72097962D01*
X62148405Y-71963387D01*
X62174334Y-71914877D01*
X62185498Y-71951680D01*
X62244463Y-72061994D01*
X62323815Y-72158685D01*
X62420506Y-72238037D01*
X62530820Y-72297002D01*
X62650518Y-72333312D01*
X62775000Y-72345572D01*
X63214250Y-72342500D01*
X63373000Y-72183750D01*
X63373000Y-71247000D01*
X63627000Y-71247000D01*
X63627000Y-72183750D01*
X63785750Y-72342500D01*
X64225000Y-72345572D01*
X64349482Y-72333312D01*
X64469180Y-72297002D01*
X64579494Y-72238037D01*
X64676185Y-72158685D01*
X64755537Y-72061994D01*
X64814502Y-71951680D01*
X64850812Y-71831982D01*
X64863072Y-71707500D01*
X64860000Y-71405750D01*
X64701250Y-71247000D01*
X63627000Y-71247000D01*
X63373000Y-71247000D01*
X63353000Y-71247000D01*
X63353000Y-70993000D01*
X63373000Y-70993000D01*
X63373000Y-70973000D01*
X63627000Y-70973000D01*
X63627000Y-70993000D01*
X64701250Y-70993000D01*
X64860000Y-70834250D01*
X64863072Y-70532500D01*
X64850812Y-70408018D01*
X64814502Y-70288320D01*
X64755537Y-70178006D01*
X64676185Y-70081315D01*
X64596406Y-70015842D01*
X64602962Y-70010462D01*
X64713405Y-69875886D01*
X64717887Y-69867500D01*
X66164310Y-69867500D01*
X67585500Y-71288690D01*
X67585501Y-79662837D01*
X67521018Y-79669188D01*
X67401320Y-79705498D01*
X67291006Y-79764463D01*
X67194315Y-79843815D01*
X67114963Y-79940506D01*
X67055998Y-80050820D01*
X67019688Y-80170518D01*
X67007428Y-80295000D01*
X67007428Y-80995000D01*
X67019688Y-81119482D01*
X67030462Y-81155000D01*
X56829802Y-81155000D01*
X54100000Y-78425199D01*
X54100000Y-76787500D01*
X59596928Y-76787500D01*
X59609188Y-76911982D01*
X59645498Y-77031680D01*
X59704463Y-77141994D01*
X59783815Y-77238685D01*
X59880506Y-77318037D01*
X59990820Y-77377002D01*
X60110518Y-77413312D01*
X60235000Y-77425572D01*
X60674250Y-77422500D01*
X60833000Y-77263750D01*
X60833000Y-76327000D01*
X61087000Y-76327000D01*
X61087000Y-77263750D01*
X61245750Y-77422500D01*
X61685000Y-77425572D01*
X61809482Y-77413312D01*
X61929180Y-77377002D01*
X62039494Y-77318037D01*
X62136185Y-77238685D01*
X62215537Y-77141994D01*
X62274502Y-77031680D01*
X62310812Y-76911982D01*
X62323072Y-76787500D01*
X62320000Y-76485750D01*
X62161250Y-76327000D01*
X61087000Y-76327000D01*
X60833000Y-76327000D01*
X59758750Y-76327000D01*
X59600000Y-76485750D01*
X59596928Y-76787500D01*
X54100000Y-76787500D01*
X54100000Y-74967322D01*
X54103676Y-74929999D01*
X54100000Y-74892676D01*
X54100000Y-74892667D01*
X54089003Y-74781014D01*
X54045546Y-74637753D01*
X53974974Y-74505724D01*
X53880001Y-74389999D01*
X53851004Y-74366202D01*
X52633804Y-73149003D01*
X52610001Y-73119999D01*
X52494276Y-73025026D01*
X52362247Y-72954454D01*
X52218986Y-72910997D01*
X52107333Y-72900000D01*
X52107322Y-72900000D01*
X52070000Y-72896324D01*
X52032678Y-72900000D01*
X49567333Y-72900000D01*
X49530000Y-72896323D01*
X49492667Y-72900000D01*
X49381014Y-72910997D01*
X49237753Y-72954454D01*
X49105724Y-73025026D01*
X48989999Y-73119999D01*
X48966201Y-73148998D01*
X48238998Y-73876201D01*
X48210000Y-73899999D01*
X48186202Y-73928997D01*
X48186201Y-73928998D01*
X48115026Y-74015724D01*
X48044454Y-74147754D01*
X48000998Y-74291015D01*
X47986324Y-74440000D01*
X47990001Y-74477332D01*
X47990001Y-74980386D01*
X47931613Y-75011595D01*
X47797038Y-75122038D01*
X47686595Y-75256613D01*
X47604528Y-75410149D01*
X47553992Y-75576745D01*
X47536928Y-75749999D01*
X38760000Y-75749999D01*
X38760000Y-66640000D01*
X49461928Y-66640000D01*
X49474188Y-66764482D01*
X49510498Y-66884180D01*
X49569463Y-66994494D01*
X49648815Y-67091185D01*
X49745506Y-67170537D01*
X49855820Y-67229502D01*
X49975518Y-67265812D01*
X50100000Y-67278072D01*
X50514250Y-67275000D01*
X50673000Y-67116250D01*
X50673000Y-66167000D01*
X50927000Y-66167000D01*
X50927000Y-67116250D01*
X51085750Y-67275000D01*
X51500000Y-67278072D01*
X51624482Y-67265812D01*
X51744180Y-67229502D01*
X51854494Y-67170537D01*
X51951185Y-67091185D01*
X52030537Y-66994494D01*
X52070000Y-66920665D01*
X52109463Y-66994494D01*
X52188815Y-67091185D01*
X52285506Y-67170537D01*
X52395820Y-67229502D01*
X52515518Y-67265812D01*
X52640000Y-67278072D01*
X53054250Y-67275000D01*
X53213000Y-67116250D01*
X53213000Y-66167000D01*
X53467000Y-66167000D01*
X53467000Y-67116250D01*
X53625750Y-67275000D01*
X54040000Y-67278072D01*
X54164482Y-67265812D01*
X54284180Y-67229502D01*
X54394494Y-67170537D01*
X54491185Y-67091185D01*
X54570537Y-66994494D01*
X54629502Y-66884180D01*
X54665812Y-66764482D01*
X54678072Y-66640000D01*
X54675000Y-66325750D01*
X54516250Y-66167000D01*
X53467000Y-66167000D01*
X53213000Y-66167000D01*
X52163750Y-66167000D01*
X52070000Y-66260750D01*
X51976250Y-66167000D01*
X50927000Y-66167000D01*
X50673000Y-66167000D01*
X49623750Y-66167000D01*
X49465000Y-66325750D01*
X49461928Y-66640000D01*
X38760000Y-66640000D01*
X38760000Y-58902000D01*
X46615000Y-58902000D01*
X46615000Y-59452000D01*
X46661585Y-59670987D01*
X46749997Y-59876678D01*
X46876839Y-60061169D01*
X47037236Y-60217369D01*
X47225024Y-60339276D01*
X47448126Y-60419119D01*
X47623000Y-60292954D01*
X47623000Y-58902000D01*
X46615000Y-58902000D01*
X38760000Y-58902000D01*
X38760000Y-58449392D01*
X38791360Y-58098000D01*
X46615000Y-58098000D01*
X46615000Y-58648000D01*
X47623000Y-58648000D01*
X47623000Y-57257046D01*
X47448126Y-57130881D01*
X47225024Y-57210724D01*
X47037236Y-57332631D01*
X46876839Y-57488831D01*
X46749997Y-57673322D01*
X46661585Y-57879013D01*
X46615000Y-58098000D01*
X38791360Y-58098000D01*
X38832437Y-57637751D01*
X39039672Y-56880226D01*
X39377777Y-56171375D01*
X39836067Y-55533596D01*
X40400055Y-54987054D01*
X40794496Y-54722000D01*
X46615000Y-54722000D01*
X46615000Y-55022000D01*
X46661585Y-55240987D01*
X46749997Y-55446678D01*
X46876839Y-55631169D01*
X47037236Y-55787369D01*
X47225024Y-55909276D01*
X47448126Y-55989119D01*
X47623000Y-55862954D01*
X47623000Y-54722000D01*
X47877000Y-54722000D01*
X47877000Y-55862954D01*
X48051874Y-55989119D01*
X48274976Y-55909276D01*
X48462764Y-55787369D01*
X48623161Y-55631169D01*
X48750003Y-55446678D01*
X48838415Y-55240987D01*
X48885000Y-55022000D01*
X48885000Y-54722000D01*
X55255000Y-54722000D01*
X55255000Y-55022000D01*
X55301585Y-55240987D01*
X55389997Y-55446678D01*
X55516839Y-55631169D01*
X55677236Y-55787369D01*
X55865024Y-55909276D01*
X56088126Y-55989119D01*
X56263000Y-55862954D01*
X56263000Y-54722000D01*
X56517000Y-54722000D01*
X56517000Y-55862954D01*
X56691874Y-55989119D01*
X56914976Y-55909276D01*
X57102764Y-55787369D01*
X57263161Y-55631169D01*
X57390003Y-55446678D01*
X57478415Y-55240987D01*
X57525000Y-55022000D01*
X57525000Y-54722000D01*
X56517000Y-54722000D01*
X56263000Y-54722000D01*
X55255000Y-54722000D01*
X48885000Y-54722000D01*
X47877000Y-54722000D01*
X47623000Y-54722000D01*
X46615000Y-54722000D01*
X40794496Y-54722000D01*
X41051913Y-54549023D01*
X41771038Y-54233349D01*
X42539768Y-54048794D01*
X43204207Y-54000000D01*
X46650739Y-54000000D01*
X46615000Y-54168000D01*
%TA.AperFunction,Conductor*%
D26*
G36*
X46615000Y-54168000D02*
G01*
X46615000Y-54468000D01*
X47623000Y-54468000D01*
X47623000Y-54448000D01*
X47877000Y-54448000D01*
X47877000Y-54468000D01*
X48885000Y-54468000D01*
X48885000Y-54168000D01*
X48849261Y-54000000D01*
X55290739Y-54000000D01*
X55255000Y-54168000D01*
X55255000Y-54468000D01*
X56263000Y-54468000D01*
X56263000Y-54448000D01*
X56517000Y-54448000D01*
X56517000Y-54468000D01*
X57525000Y-54468000D01*
X57525000Y-54168000D01*
X57489261Y-54000000D01*
X109190608Y-54000000D01*
X110002249Y-54072437D01*
X110759774Y-54279672D01*
X111468625Y-54617777D01*
X112106404Y-55076067D01*
X112652946Y-55640055D01*
X113090977Y-56291913D01*
X113406651Y-57011038D01*
X113591206Y-57779768D01*
X113640000Y-58444207D01*
X113640001Y-112997572D01*
X113640000Y-112997582D01*
X113640001Y-118080597D01*
X113567563Y-118892249D01*
X113360328Y-119649774D01*
X113022221Y-120358627D01*
X112563928Y-120996410D01*
X111999945Y-121542946D01*
X111348085Y-121980978D01*
X110628963Y-122296651D01*
X109860232Y-122481206D01*
X109195792Y-122530000D01*
X43209392Y-122530000D01*
X42397751Y-122457563D01*
X41640226Y-122250328D01*
X40931373Y-121912221D01*
X40293590Y-121453928D01*
X39747054Y-120889945D01*
X39309022Y-120238085D01*
X38993349Y-119518963D01*
X38808794Y-118750232D01*
X38760000Y-118085792D01*
X38760000Y-109640000D01*
X50581928Y-109640000D01*
X50581928Y-111340000D01*
X50594188Y-111464482D01*
X50630498Y-111584180D01*
X50689463Y-111694494D01*
X50768815Y-111791185D01*
X50865506Y-111870537D01*
X50975820Y-111929502D01*
X51095518Y-111965812D01*
X51220000Y-111978072D01*
X51247501Y-111978072D01*
X51247500Y-118069602D01*
X51243521Y-118110000D01*
X51259402Y-118271238D01*
X51292558Y-118380540D01*
X51306433Y-118426279D01*
X51382808Y-118569166D01*
X51485591Y-118694409D01*
X51516975Y-118720165D01*
X52729835Y-119933025D01*
X52755591Y-119964409D01*
X52880833Y-120067192D01*
X53023720Y-120143567D01*
X53142676Y-120179652D01*
X53178761Y-120190598D01*
X53195380Y-120192235D01*
X53299602Y-120202500D01*
X53299608Y-120202500D01*
X53339999Y-120206478D01*
X53380390Y-120202500D01*
X100289602Y-120202500D01*
X100330000Y-120206479D01*
X100370398Y-120202500D01*
X100491238Y-120190598D01*
X100646280Y-120143567D01*
X100789167Y-120067192D01*
X100914409Y-119964409D01*
X100940165Y-119933025D01*
X102435515Y-118437675D01*
X102466899Y-118411919D01*
X102569682Y-118286677D01*
X102646057Y-118143790D01*
X102693088Y-117988748D01*
X102704990Y-117867908D01*
X102704990Y-117867899D01*
X102708968Y-117827511D01*
X102704990Y-117787123D01*
X102704990Y-101668072D01*
X103220001Y-101668072D01*
X103393255Y-101651008D01*
X103559851Y-101600472D01*
X103713387Y-101518405D01*
X103847962Y-101407962D01*
X103958405Y-101273387D01*
X104040472Y-101119851D01*
X104091008Y-100953255D01*
X104108072Y-100780001D01*
X104108072Y-99879999D01*
X104091008Y-99706745D01*
X104040472Y-99540149D01*
X103958405Y-99386613D01*
X103847962Y-99252038D01*
X103713387Y-99141595D01*
X103692500Y-99130431D01*
X103692500Y-98551121D01*
X103723012Y-98513942D01*
X103803923Y-98362567D01*
X103853748Y-98198316D01*
X103870572Y-98027500D01*
X103870572Y-97552500D01*
X103853748Y-97381684D01*
X103803923Y-97217433D01*
X103723012Y-97066058D01*
X103692500Y-97028879D01*
X103692500Y-93699287D01*
X103700537Y-93689494D01*
X103759502Y-93579180D01*
X103795812Y-93459482D01*
X103808072Y-93335000D01*
X103808072Y-92085000D01*
X103795812Y-91960518D01*
X103759502Y-91840820D01*
X103700537Y-91730506D01*
X103621185Y-91633815D01*
X103524494Y-91554463D01*
X103414180Y-91495498D01*
X103297159Y-91460000D01*
X103414180Y-91424502D01*
X103524494Y-91365537D01*
X103621185Y-91286185D01*
X103700537Y-91189494D01*
X103759502Y-91079180D01*
X103795812Y-90959482D01*
X103808072Y-90835000D01*
X103808072Y-89585000D01*
X103795812Y-89460518D01*
X103759502Y-89340820D01*
X103700537Y-89230506D01*
X103630000Y-89144556D01*
X103630000Y-87944801D01*
X105921009Y-85653794D01*
X105950001Y-85630001D01*
X105973795Y-85601008D01*
X105973799Y-85601004D01*
X106044973Y-85514277D01*
X106044974Y-85514276D01*
X106115546Y-85382247D01*
X106159003Y-85238986D01*
X106170000Y-85127333D01*
X106170000Y-85127324D01*
X106173676Y-85090001D01*
X106170000Y-85052678D01*
X106170000Y-71157322D01*
X106173676Y-71119999D01*
X106170000Y-71082676D01*
X106170000Y-71082667D01*
X106159003Y-70971014D01*
X106115546Y-70827753D01*
X106044974Y-70695724D01*
X105950001Y-70579999D01*
X105921003Y-70556201D01*
X104703804Y-69339003D01*
X104680001Y-69309999D01*
X104564276Y-69215026D01*
X104432247Y-69144454D01*
X104288986Y-69100997D01*
X104177333Y-69090000D01*
X104177322Y-69090000D01*
X104140000Y-69086324D01*
X104102678Y-69090000D01*
X101637322Y-69090000D01*
X101599999Y-69086324D01*
X101562676Y-69090000D01*
X101562667Y-69090000D01*
X101451014Y-69100997D01*
X101307753Y-69144454D01*
X101175724Y-69215026D01*
X101059999Y-69309999D01*
X101036201Y-69338998D01*
X100409002Y-69966197D01*
X100379999Y-69989999D01*
X100325629Y-70056250D01*
X100285026Y-70105724D01*
X100214455Y-70237753D01*
X100214454Y-70237754D01*
X100170997Y-70381015D01*
X100160000Y-70492668D01*
X100160000Y-70492678D01*
X100156324Y-70530000D01*
X100160000Y-70567323D01*
X100160001Y-72178354D01*
X100105498Y-72280320D01*
X100069188Y-72400018D01*
X100056928Y-72524500D01*
X100056928Y-73999500D01*
X100069188Y-74123982D01*
X100105498Y-74243680D01*
X100164463Y-74353994D01*
X100243815Y-74450685D01*
X100340506Y-74530037D01*
X100450820Y-74589002D01*
X100570518Y-74625312D01*
X100671092Y-74635217D01*
X99928810Y-75377500D01*
X97830390Y-75377500D01*
X97789999Y-75373522D01*
X97749608Y-75377500D01*
X97749602Y-75377500D01*
X97645380Y-75387765D01*
X97628761Y-75389402D01*
X97592676Y-75400348D01*
X97473720Y-75436433D01*
X97330833Y-75512808D01*
X97205591Y-75615591D01*
X97179835Y-75646975D01*
X95966975Y-76859835D01*
X95935591Y-76885591D01*
X95832808Y-77010834D01*
X95824446Y-77026479D01*
X95756433Y-77153721D01*
X95709402Y-77308762D01*
X95693521Y-77470000D01*
X95697500Y-77510398D01*
X95697501Y-95209592D01*
X95693521Y-95250000D01*
X95709402Y-95411238D01*
X95756433Y-95566279D01*
X95756434Y-95566280D01*
X95832809Y-95709167D01*
X95935592Y-95834409D01*
X95966971Y-95860161D01*
X98449835Y-98343025D01*
X98475591Y-98374409D01*
X98600833Y-98477192D01*
X98743720Y-98553567D01*
X98898762Y-98600598D01*
X99019602Y-98612500D01*
X99019611Y-98612500D01*
X99059999Y-98616478D01*
X99100387Y-98612500D01*
X100022873Y-98612500D01*
X100050877Y-98646623D01*
X100183558Y-98755512D01*
X100334933Y-98836423D01*
X100499184Y-98886248D01*
X100670000Y-98903072D01*
X100744882Y-98903072D01*
X100833738Y-98991928D01*
X100519999Y-98991928D01*
X100346745Y-99008992D01*
X100180149Y-99059528D01*
X100026613Y-99141595D01*
X99892038Y-99252038D01*
X99781595Y-99386613D01*
X99716979Y-99507500D01*
X96860690Y-99507500D01*
X95055165Y-97701975D01*
X95029409Y-97670591D01*
X94904167Y-97567808D01*
X94761280Y-97491433D01*
X94606238Y-97444402D01*
X94485398Y-97432500D01*
X94445000Y-97428521D01*
X94404602Y-97432500D01*
X91387887Y-97432500D01*
X91383405Y-97424114D01*
X91272962Y-97289538D01*
X91138386Y-97179095D01*
X90992500Y-97101117D01*
X90992500Y-95290398D01*
X90996479Y-95250000D01*
X90980598Y-95088762D01*
X90933567Y-94933720D01*
X90857192Y-94790833D01*
X90754409Y-94665591D01*
X90723030Y-94639839D01*
X89452500Y-93369310D01*
X89452500Y-92909569D01*
X89473387Y-92898405D01*
X89607962Y-92787962D01*
X89718405Y-92653387D01*
X89800472Y-92499851D01*
X89851008Y-92333255D01*
X89868072Y-92160001D01*
X89868072Y-91259999D01*
X89851008Y-91086745D01*
X89800472Y-90920149D01*
X89722500Y-90774274D01*
X89722500Y-89943996D01*
X89802962Y-89877962D01*
X89913405Y-89743387D01*
X89995472Y-89589851D01*
X90046008Y-89423255D01*
X90063072Y-89250001D01*
X90063072Y-88549999D01*
X90046008Y-88376745D01*
X89995472Y-88210149D01*
X89913405Y-88056613D01*
X89802962Y-87922038D01*
X89668387Y-87811595D01*
X89514851Y-87729528D01*
X89348255Y-87678992D01*
X89175001Y-87661928D01*
X88624999Y-87661928D01*
X88451745Y-87678992D01*
X88285149Y-87729528D01*
X88131613Y-87811595D01*
X87997038Y-87922038D01*
X87886595Y-88056613D01*
X87804528Y-88210149D01*
X87753992Y-88376745D01*
X87750000Y-88417277D01*
X87746008Y-88376745D01*
X87695472Y-88210149D01*
X87613405Y-88056613D01*
X87502962Y-87922038D01*
X87368387Y-87811595D01*
X87214851Y-87729528D01*
X87048255Y-87678992D01*
X86875001Y-87661928D01*
X86324999Y-87661928D01*
X86151745Y-87678992D01*
X85985149Y-87729528D01*
X85831613Y-87811595D01*
X85697038Y-87922038D01*
X85586595Y-88056613D01*
X85575431Y-88077500D01*
X84160691Y-88077500D01*
X77445165Y-81361975D01*
X77419409Y-81330591D01*
X77294167Y-81227808D01*
X77151280Y-81151433D01*
X76996238Y-81104402D01*
X76875398Y-81092500D01*
X76835000Y-81088521D01*
X76794602Y-81092500D01*
X75222969Y-81092500D01*
X75232572Y-80995000D01*
X75232572Y-80295000D01*
X75220312Y-80170518D01*
X75184002Y-80050820D01*
X75125037Y-79940506D01*
X75045685Y-79843815D01*
X74948994Y-79764463D01*
X74838680Y-79705498D01*
X74718982Y-79669188D01*
X74654500Y-79662837D01*
X74654500Y-75098690D01*
X78510690Y-71242500D01*
X81186928Y-71242500D01*
X81199188Y-71366982D01*
X81235498Y-71486680D01*
X81294463Y-71596994D01*
X81373815Y-71693685D01*
X81470506Y-71773037D01*
X81580820Y-71832002D01*
X81700518Y-71868312D01*
X81825000Y-71880572D01*
X82264250Y-71877500D01*
X82423000Y-71718750D01*
X82423000Y-70782000D01*
X82677000Y-70782000D01*
X82677000Y-71718750D01*
X82835750Y-71877500D01*
X83275000Y-71880572D01*
X83399482Y-71868312D01*
X83519180Y-71832002D01*
X83629494Y-71773037D01*
X83726185Y-71693685D01*
X83805537Y-71596994D01*
X83820000Y-71569936D01*
X83834463Y-71596994D01*
X83913815Y-71693685D01*
X84010506Y-71773037D01*
X84120820Y-71832002D01*
X84240518Y-71868312D01*
X84365000Y-71880572D01*
X84804250Y-71877500D01*
X84963000Y-71718750D01*
X84963000Y-70782000D01*
X85217000Y-70782000D01*
X85217000Y-71718750D01*
X85375750Y-71877500D01*
X85815000Y-71880572D01*
X85939482Y-71868312D01*
X86059180Y-71832002D01*
X86169494Y-71773037D01*
X86266185Y-71693685D01*
X86345537Y-71596994D01*
X86360000Y-71569936D01*
X86374463Y-71596994D01*
X86453815Y-71693685D01*
X86550506Y-71773037D01*
X86660820Y-71832002D01*
X86780518Y-71868312D01*
X86905000Y-71880572D01*
X87344250Y-71877500D01*
X87503000Y-71718750D01*
X87503000Y-70782000D01*
X87757000Y-70782000D01*
X87757000Y-71718750D01*
X87915750Y-71877500D01*
X88355000Y-71880572D01*
X88479482Y-71868312D01*
X88599180Y-71832002D01*
X88709494Y-71773037D01*
X88806185Y-71693685D01*
X88885537Y-71596994D01*
X88900000Y-71569936D01*
X88914463Y-71596994D01*
X88993815Y-71693685D01*
X89090506Y-71773037D01*
X89200820Y-71832002D01*
X89320518Y-71868312D01*
X89445000Y-71880572D01*
X89884250Y-71877500D01*
X90043000Y-71718750D01*
X90043000Y-70782000D01*
X90297000Y-70782000D01*
X90297000Y-71718750D01*
X90455750Y-71877500D01*
X90895000Y-71880572D01*
X91019482Y-71868312D01*
X91139180Y-71832002D01*
X91249494Y-71773037D01*
X91346185Y-71693685D01*
X91425537Y-71596994D01*
X91484502Y-71486680D01*
X91520812Y-71366982D01*
X91533072Y-71242500D01*
X91530000Y-70940750D01*
X91371250Y-70782000D01*
X90297000Y-70782000D01*
X90043000Y-70782000D01*
X88968750Y-70782000D01*
X88900000Y-70850750D01*
X88831250Y-70782000D01*
X87757000Y-70782000D01*
X87503000Y-70782000D01*
X86428750Y-70782000D01*
X86360000Y-70850750D01*
X86291250Y-70782000D01*
X85217000Y-70782000D01*
X84963000Y-70782000D01*
X83888750Y-70782000D01*
X83820000Y-70850750D01*
X83751250Y-70782000D01*
X82677000Y-70782000D01*
X82423000Y-70782000D01*
X81348750Y-70782000D01*
X81190000Y-70940750D01*
X81186928Y-71242500D01*
X78510690Y-71242500D01*
X80350690Y-69402500D01*
X81332113Y-69402500D01*
X81336595Y-69410886D01*
X81447038Y-69545462D01*
X81453594Y-69550842D01*
X81373815Y-69616315D01*
X81294463Y-69713006D01*
X81235498Y-69823320D01*
X81199188Y-69943018D01*
X81186928Y-70067500D01*
X81190000Y-70369250D01*
X81348750Y-70528000D01*
X82423000Y-70528000D01*
X82423000Y-70508000D01*
X82677000Y-70508000D01*
X82677000Y-70528000D01*
X83751250Y-70528000D01*
X83820000Y-70459250D01*
X83888750Y-70528000D01*
X84963000Y-70528000D01*
X84963000Y-70508000D01*
X85217000Y-70508000D01*
X85217000Y-70528000D01*
X86291250Y-70528000D01*
X86360000Y-70459250D01*
X86428750Y-70528000D01*
X87503000Y-70528000D01*
X87503000Y-70508000D01*
X87757000Y-70508000D01*
X87757000Y-70528000D01*
X88831250Y-70528000D01*
X88900000Y-70459250D01*
X88968750Y-70528000D01*
X90043000Y-70528000D01*
X90043000Y-70508000D01*
X90297000Y-70508000D01*
X90297000Y-70528000D01*
X91371250Y-70528000D01*
X91530000Y-70369250D01*
X91533072Y-70067500D01*
X91520812Y-69943018D01*
X91484502Y-69823320D01*
X91425537Y-69713006D01*
X91346185Y-69616315D01*
X91266406Y-69550842D01*
X91272962Y-69545462D01*
X91383405Y-69410886D01*
X91387887Y-69402500D01*
X97919602Y-69402500D01*
X97960000Y-69406479D01*
X98000398Y-69402500D01*
X98121238Y-69390598D01*
X98276280Y-69343567D01*
X98419167Y-69267192D01*
X98544409Y-69164409D01*
X98570165Y-69133025D01*
X102595119Y-65108072D01*
X103670000Y-65108072D01*
X103794482Y-65095812D01*
X103914180Y-65059502D01*
X104024494Y-65000537D01*
X104121185Y-64921185D01*
X104200537Y-64824494D01*
X104259502Y-64714180D01*
X104295812Y-64594482D01*
X104308072Y-64470000D01*
X104308072Y-62870000D01*
X104295812Y-62745518D01*
X104259502Y-62625820D01*
X104200537Y-62515506D01*
X104148135Y-62451653D01*
X104627952Y-62451653D01*
X104783962Y-62767214D01*
X105158745Y-62958020D01*
X105563551Y-63072044D01*
X105982824Y-63104902D01*
X106400451Y-63055334D01*
X106800383Y-62925243D01*
X107096038Y-62767214D01*
X107252048Y-62451653D01*
X105940000Y-61139605D01*
X104627952Y-62451653D01*
X104148135Y-62451653D01*
X104121185Y-62418815D01*
X104024494Y-62339463D01*
X103914180Y-62280498D01*
X103794482Y-62244188D01*
X103670000Y-62231928D01*
X102070000Y-62231928D01*
X101945518Y-62244188D01*
X101825820Y-62280498D01*
X101715506Y-62339463D01*
X101618815Y-62418815D01*
X101539463Y-62515506D01*
X101480498Y-62625820D01*
X101451339Y-62721943D01*
X101284759Y-62555363D01*
X101049727Y-62398320D01*
X100788574Y-62290147D01*
X100511335Y-62235000D01*
X100228665Y-62235000D01*
X99951426Y-62290147D01*
X99690273Y-62398320D01*
X99455241Y-62555363D01*
X99370000Y-62640604D01*
X99284759Y-62555363D01*
X99049727Y-62398320D01*
X98788574Y-62290147D01*
X98511335Y-62235000D01*
X98228665Y-62235000D01*
X97951426Y-62290147D01*
X97690273Y-62398320D01*
X97455241Y-62555363D01*
X97255363Y-62755241D01*
X97121308Y-62955869D01*
X97106671Y-62928486D01*
X96862702Y-62856903D01*
X96049605Y-63670000D01*
X96862702Y-64483097D01*
X97106671Y-64411514D01*
X97120324Y-64382659D01*
X97255363Y-64584759D01*
X97455241Y-64784637D01*
X97690273Y-64941680D01*
X97951426Y-65049853D01*
X98228665Y-65105000D01*
X98511335Y-65105000D01*
X98788574Y-65049853D01*
X99049727Y-64941680D01*
X99284759Y-64784637D01*
X99370000Y-64699396D01*
X99455241Y-64784637D01*
X99690273Y-64941680D01*
X99951426Y-65049853D01*
X100228665Y-65105000D01*
X100271809Y-65105000D01*
X97619310Y-67757500D01*
X91387887Y-67757500D01*
X91383405Y-67749114D01*
X91272962Y-67614538D01*
X91138386Y-67504095D01*
X90984850Y-67422028D01*
X90818254Y-67371492D01*
X90645000Y-67354428D01*
X89695000Y-67354428D01*
X89521746Y-67371492D01*
X89355150Y-67422028D01*
X89201614Y-67504095D01*
X89067038Y-67614538D01*
X88956595Y-67749114D01*
X88952113Y-67757500D01*
X88847887Y-67757500D01*
X88843405Y-67749114D01*
X88732962Y-67614538D01*
X88598386Y-67504095D01*
X88444850Y-67422028D01*
X88278254Y-67371492D01*
X88105000Y-67354428D01*
X87155000Y-67354428D01*
X86981746Y-67371492D01*
X86815150Y-67422028D01*
X86661614Y-67504095D01*
X86527038Y-67614538D01*
X86416595Y-67749114D01*
X86412113Y-67757500D01*
X86307887Y-67757500D01*
X86303405Y-67749114D01*
X86192962Y-67614538D01*
X86058386Y-67504095D01*
X85904850Y-67422028D01*
X85738254Y-67371492D01*
X85565000Y-67354428D01*
X84615000Y-67354428D01*
X84441746Y-67371492D01*
X84275150Y-67422028D01*
X84121614Y-67504095D01*
X83987038Y-67614538D01*
X83876595Y-67749114D01*
X83872113Y-67757500D01*
X83767887Y-67757500D01*
X83763405Y-67749114D01*
X83652962Y-67614538D01*
X83518386Y-67504095D01*
X83364850Y-67422028D01*
X83198254Y-67371492D01*
X83025000Y-67354428D01*
X82075000Y-67354428D01*
X81901746Y-67371492D01*
X81735150Y-67422028D01*
X81581614Y-67504095D01*
X81447038Y-67614538D01*
X81336595Y-67749114D01*
X81332113Y-67757500D01*
X80050387Y-67757500D01*
X80009999Y-67753522D01*
X79969611Y-67757500D01*
X79969602Y-67757500D01*
X79848762Y-67769402D01*
X79693720Y-67816433D01*
X79550833Y-67892808D01*
X79425591Y-67995591D01*
X79399835Y-68026975D01*
X73278971Y-74147839D01*
X73247592Y-74173591D01*
X73144809Y-74298833D01*
X73115325Y-74353994D01*
X73068433Y-74441721D01*
X73021402Y-74596762D01*
X73005521Y-74758000D01*
X73009501Y-74798408D01*
X73009500Y-79662837D01*
X72945018Y-79669188D01*
X72825320Y-79705498D01*
X72715006Y-79764463D01*
X72618315Y-79843815D01*
X72538963Y-79940506D01*
X72479998Y-80050820D01*
X72443688Y-80170518D01*
X72431428Y-80295000D01*
X72431428Y-80927390D01*
X72409180Y-80915498D01*
X72289482Y-80879188D01*
X72165000Y-80866928D01*
X71405750Y-80870000D01*
X71247000Y-81028750D01*
X71247000Y-82423000D01*
X71267000Y-82423000D01*
X71267000Y-82677000D01*
X71247000Y-82677000D01*
X71247000Y-84071250D01*
X71405750Y-84230000D01*
X72165000Y-84233072D01*
X72289482Y-84220812D01*
X72409180Y-84184502D01*
X72431428Y-84172610D01*
X72431428Y-84805000D01*
X72443688Y-84929482D01*
X72479998Y-85049180D01*
X72538963Y-85159494D01*
X72618315Y-85256185D01*
X72715006Y-85335537D01*
X72825320Y-85394502D01*
X72945018Y-85430812D01*
X73069500Y-85443072D01*
X73072000Y-85443072D01*
X73072001Y-90755520D01*
X73036745Y-90758992D01*
X72870149Y-90809528D01*
X72716613Y-90891595D01*
X72582038Y-91002038D01*
X72471595Y-91136613D01*
X72389528Y-91290149D01*
X72338992Y-91456745D01*
X72321928Y-91629999D01*
X72321928Y-92330001D01*
X72338992Y-92503255D01*
X72389528Y-92669851D01*
X72471595Y-92823387D01*
X72582038Y-92957962D01*
X72608891Y-92980000D01*
X72582038Y-93002038D01*
X72471595Y-93136613D01*
X72389528Y-93290149D01*
X72338992Y-93456745D01*
X72321928Y-93629999D01*
X72321928Y-94330001D01*
X72338992Y-94503255D01*
X72389528Y-94669851D01*
X72471595Y-94823387D01*
X72582038Y-94957962D01*
X72716613Y-95068405D01*
X72870149Y-95150472D01*
X72900000Y-95159527D01*
X72900001Y-106345091D01*
X72885537Y-106351082D01*
X72617748Y-106530013D01*
X72390013Y-106757748D01*
X72211082Y-107025537D01*
X72087832Y-107323088D01*
X72025000Y-107638967D01*
X72025000Y-107961033D01*
X72087832Y-108276912D01*
X72211082Y-108574463D01*
X72390013Y-108842252D01*
X72617748Y-109069987D01*
X72885537Y-109248918D01*
X72900000Y-109254909D01*
X72900001Y-112845091D01*
X72885537Y-112851082D01*
X72617748Y-113030013D01*
X72390013Y-113257748D01*
X72211082Y-113525537D01*
X72087832Y-113823088D01*
X72025000Y-114138967D01*
X72025000Y-114461033D01*
X72087832Y-114776912D01*
X72211082Y-115074463D01*
X72390013Y-115342252D01*
X72617748Y-115569987D01*
X72885537Y-115748918D01*
X73183088Y-115872168D01*
X73498967Y-115935000D01*
X73821033Y-115935000D01*
X74136912Y-115872168D01*
X74434463Y-115748918D01*
X74702252Y-115569987D01*
X74836826Y-115435413D01*
X77204192Y-115435413D01*
X77299956Y-115699814D01*
X77589571Y-115840704D01*
X77901108Y-115922384D01*
X78222595Y-115941718D01*
X78541675Y-115897961D01*
X78846088Y-115792795D01*
X79020044Y-115699814D01*
X79115808Y-115435413D01*
X78160000Y-114479605D01*
X77204192Y-115435413D01*
X74836826Y-115435413D01*
X74929987Y-115342252D01*
X75108918Y-115074463D01*
X75232168Y-114776912D01*
X75295000Y-114461033D01*
X75295000Y-114362595D01*
X76518282Y-114362595D01*
X76562039Y-114681675D01*
X76667205Y-114986088D01*
X76760186Y-115160044D01*
X77024587Y-115255808D01*
X77980395Y-114300000D01*
X78339605Y-114300000D01*
X79295413Y-115255808D01*
X79559814Y-115160044D01*
X79700704Y-114870429D01*
X79782384Y-114558892D01*
X79801718Y-114237405D01*
X79757961Y-113918325D01*
X79652795Y-113613912D01*
X79559814Y-113439956D01*
X79295413Y-113344192D01*
X78339605Y-114300000D01*
X77980395Y-114300000D01*
X77024587Y-113344192D01*
X76760186Y-113439956D01*
X76619296Y-113729571D01*
X76537616Y-114041108D01*
X76518282Y-114362595D01*
X75295000Y-114362595D01*
X75295000Y-114138967D01*
X75232168Y-113823088D01*
X75108918Y-113525537D01*
X74929987Y-113257748D01*
X74836826Y-113164587D01*
X77204192Y-113164587D01*
X78160000Y-114120395D01*
X79115808Y-113164587D01*
X79020044Y-112900186D01*
X78730429Y-112759296D01*
X78418892Y-112677616D01*
X78097405Y-112658282D01*
X77778325Y-112702039D01*
X77473912Y-112807205D01*
X77299956Y-112900186D01*
X77204192Y-113164587D01*
X74836826Y-113164587D01*
X74702252Y-113030013D01*
X74434463Y-112851082D01*
X74420000Y-112845091D01*
X74420000Y-109254909D01*
X74434463Y-109248918D01*
X74702252Y-109069987D01*
X74836826Y-108935413D01*
X77204192Y-108935413D01*
X77299956Y-109199814D01*
X77589571Y-109340704D01*
X77901108Y-109422384D01*
X78222595Y-109441718D01*
X78541675Y-109397961D01*
X78846088Y-109292795D01*
X79020044Y-109199814D01*
X79115808Y-108935413D01*
X78160000Y-107979605D01*
X77204192Y-108935413D01*
X74836826Y-108935413D01*
X74929987Y-108842252D01*
X75108918Y-108574463D01*
X75232168Y-108276912D01*
X75295000Y-107961033D01*
X75295000Y-107862595D01*
X76518282Y-107862595D01*
X76562039Y-108181675D01*
X76667205Y-108486088D01*
X76760186Y-108660044D01*
X77024587Y-108755808D01*
X77980395Y-107800000D01*
X78339605Y-107800000D01*
X79295413Y-108755808D01*
X79559814Y-108660044D01*
X79700704Y-108370429D01*
X79782384Y-108058892D01*
X79801718Y-107737405D01*
X79757961Y-107418325D01*
X79652795Y-107113912D01*
X79559814Y-106939956D01*
X79295413Y-106844192D01*
X78339605Y-107800000D01*
X77980395Y-107800000D01*
X77024587Y-106844192D01*
X76760186Y-106939956D01*
X76619296Y-107229571D01*
X76537616Y-107541108D01*
X76518282Y-107862595D01*
X75295000Y-107862595D01*
X75295000Y-107638967D01*
X75232168Y-107323088D01*
X75108918Y-107025537D01*
X74929987Y-106757748D01*
X74836826Y-106664587D01*
X77204192Y-106664587D01*
X78160000Y-107620395D01*
X79115808Y-106664587D01*
X79020044Y-106400186D01*
X78730429Y-106259296D01*
X78418892Y-106177616D01*
X78097405Y-106158282D01*
X77778325Y-106202039D01*
X77473912Y-106307205D01*
X77299956Y-106400186D01*
X77204192Y-106664587D01*
X74836826Y-106664587D01*
X74702252Y-106530013D01*
X74434463Y-106351082D01*
X74420000Y-106345091D01*
X74420000Y-100917500D01*
X86266928Y-100917500D01*
X86279188Y-101041982D01*
X86315498Y-101161680D01*
X86374463Y-101271994D01*
X86453815Y-101368685D01*
X86550506Y-101448037D01*
X86660820Y-101507002D01*
X86780518Y-101543312D01*
X86905000Y-101555572D01*
X87344250Y-101552500D01*
X87503000Y-101393750D01*
X87503000Y-100457000D01*
X87757000Y-100457000D01*
X87757000Y-101393750D01*
X87915750Y-101552500D01*
X88355000Y-101555572D01*
X88479482Y-101543312D01*
X88599180Y-101507002D01*
X88709494Y-101448037D01*
X88806185Y-101368685D01*
X88885537Y-101271994D01*
X88900000Y-101244936D01*
X88914463Y-101271994D01*
X88993815Y-101368685D01*
X89090506Y-101448037D01*
X89200820Y-101507002D01*
X89320518Y-101543312D01*
X89445000Y-101555572D01*
X89884250Y-101552500D01*
X90043000Y-101393750D01*
X90043000Y-100457000D01*
X90297000Y-100457000D01*
X90297000Y-101393750D01*
X90455750Y-101552500D01*
X90895000Y-101555572D01*
X91019482Y-101543312D01*
X91139180Y-101507002D01*
X91249494Y-101448037D01*
X91346185Y-101368685D01*
X91425537Y-101271994D01*
X91484502Y-101161680D01*
X91520812Y-101041982D01*
X91533072Y-100917500D01*
X91530000Y-100615750D01*
X91371250Y-100457000D01*
X90297000Y-100457000D01*
X90043000Y-100457000D01*
X88968750Y-100457000D01*
X88900000Y-100525750D01*
X88831250Y-100457000D01*
X87757000Y-100457000D01*
X87503000Y-100457000D01*
X86428750Y-100457000D01*
X86270000Y-100615750D01*
X86266928Y-100917500D01*
X74420000Y-100917500D01*
X74420000Y-95159527D01*
X74449851Y-95150472D01*
X74603387Y-95068405D01*
X74737962Y-94957962D01*
X74848405Y-94823387D01*
X74930472Y-94669851D01*
X74981008Y-94503255D01*
X74998072Y-94330001D01*
X74998072Y-93629999D01*
X74981008Y-93456745D01*
X74930472Y-93290149D01*
X74848405Y-93136613D01*
X74737962Y-93002038D01*
X74711109Y-92980000D01*
X74737962Y-92957962D01*
X74848405Y-92823387D01*
X74930472Y-92669851D01*
X74981008Y-92503255D01*
X74998072Y-92330001D01*
X74998072Y-91629999D01*
X74981008Y-91456745D01*
X74930472Y-91290149D01*
X74848405Y-91136613D01*
X74737962Y-91002038D01*
X74603387Y-90891595D01*
X74592000Y-90885508D01*
X74592000Y-85443072D01*
X74594500Y-85443072D01*
X74718982Y-85430812D01*
X74838680Y-85394502D01*
X74948994Y-85335537D01*
X75045685Y-85256185D01*
X75125037Y-85159494D01*
X75184002Y-85049180D01*
X75220312Y-84929482D01*
X75232572Y-84805000D01*
X75232572Y-84105000D01*
X75222969Y-84007500D01*
X76494310Y-84007500D01*
X84806970Y-92320161D01*
X84900833Y-92397192D01*
X85043720Y-92473567D01*
X85198762Y-92520598D01*
X85360000Y-92536479D01*
X85473149Y-92525334D01*
X85541595Y-92653387D01*
X85652038Y-92787962D01*
X85786613Y-92898405D01*
X85807500Y-92909570D01*
X85807501Y-94209592D01*
X85803521Y-94250000D01*
X85819402Y-94411238D01*
X85866433Y-94566279D01*
X85866434Y-94566280D01*
X85942809Y-94709167D01*
X86003962Y-94783682D01*
X86017353Y-94799999D01*
X86045592Y-94834409D01*
X86076971Y-94860161D01*
X86807500Y-95590691D01*
X86807501Y-97101117D01*
X86661614Y-97179095D01*
X86527038Y-97289538D01*
X86416595Y-97424114D01*
X86334528Y-97577650D01*
X86283992Y-97744246D01*
X86266928Y-97917500D01*
X86266928Y-98592500D01*
X86283992Y-98765754D01*
X86334528Y-98932350D01*
X86416595Y-99085886D01*
X86527038Y-99220462D01*
X86533594Y-99225842D01*
X86453815Y-99291315D01*
X86374463Y-99388006D01*
X86315498Y-99498320D01*
X86279188Y-99618018D01*
X86266928Y-99742500D01*
X86270000Y-100044250D01*
X86428750Y-100203000D01*
X87503000Y-100203000D01*
X87503000Y-100183000D01*
X87757000Y-100183000D01*
X87757000Y-100203000D01*
X88831250Y-100203000D01*
X88900000Y-100134250D01*
X88968750Y-100203000D01*
X90043000Y-100203000D01*
X90043000Y-100183000D01*
X90297000Y-100183000D01*
X90297000Y-100203000D01*
X91371250Y-100203000D01*
X91530000Y-100044250D01*
X91533072Y-99742500D01*
X91520812Y-99618018D01*
X91484502Y-99498320D01*
X91425537Y-99388006D01*
X91346185Y-99291315D01*
X91266406Y-99225842D01*
X91272962Y-99220462D01*
X91383405Y-99085886D01*
X91387887Y-99077500D01*
X94104310Y-99077500D01*
X95909835Y-100883025D01*
X95935591Y-100914409D01*
X96060833Y-101017192D01*
X96203720Y-101093567D01*
X96358761Y-101140598D01*
X96519999Y-101156479D01*
X96560397Y-101152500D01*
X99716979Y-101152500D01*
X99781595Y-101273387D01*
X99892038Y-101407962D01*
X100026613Y-101518405D01*
X100047500Y-101529569D01*
X100047501Y-108339308D01*
X99384881Y-109001928D01*
X98210000Y-109001928D01*
X98085518Y-109014188D01*
X97965820Y-109050498D01*
X97855506Y-109109463D01*
X97758815Y-109188815D01*
X97679463Y-109285506D01*
X97620498Y-109395820D01*
X97584188Y-109515518D01*
X97571928Y-109640000D01*
X97571928Y-111340000D01*
X97584188Y-111464482D01*
X97620498Y-111584180D01*
X97679463Y-111694494D01*
X97758815Y-111791185D01*
X97855506Y-111870537D01*
X97965820Y-111929502D01*
X98085518Y-111965812D01*
X98210000Y-111978072D01*
X99910000Y-111978072D01*
X100034482Y-111965812D01*
X100154180Y-111929502D01*
X100264494Y-111870537D01*
X100361185Y-111791185D01*
X100440537Y-111694494D01*
X100499502Y-111584180D01*
X100535812Y-111464482D01*
X100548072Y-111340000D01*
X100548072Y-110165119D01*
X101059991Y-109653200D01*
X101059991Y-117486819D01*
X99989310Y-118557500D01*
X53680690Y-118557500D01*
X52892500Y-117769310D01*
X52892500Y-111978072D01*
X52920000Y-111978072D01*
X53044482Y-111965812D01*
X53164180Y-111929502D01*
X53274494Y-111870537D01*
X53371185Y-111791185D01*
X53450537Y-111694494D01*
X53509502Y-111584180D01*
X53545812Y-111464482D01*
X53558072Y-111340000D01*
X53558072Y-109640000D01*
X53545812Y-109515518D01*
X53509502Y-109395820D01*
X53450537Y-109285506D01*
X53371185Y-109188815D01*
X53274494Y-109109463D01*
X53164180Y-109050498D01*
X53044482Y-109014188D01*
X52920000Y-109001928D01*
X51220000Y-109001928D01*
X51095518Y-109014188D01*
X50975820Y-109050498D01*
X50865506Y-109109463D01*
X50768815Y-109188815D01*
X50689463Y-109285506D01*
X50630498Y-109395820D01*
X50594188Y-109515518D01*
X50581928Y-109640000D01*
X38760000Y-109640000D01*
X38760000Y-75749999D01*
X47536928Y-75749999D01*
X47536928Y-76650001D01*
X47553992Y-76823255D01*
X47604528Y-76989851D01*
X47686595Y-77143387D01*
X47797038Y-77277962D01*
X47931613Y-77388405D01*
X47990000Y-77419614D01*
X47990001Y-81330386D01*
X47931613Y-81361595D01*
X47797038Y-81472038D01*
X47686595Y-81606613D01*
X47604528Y-81760149D01*
X47553992Y-81926745D01*
X47536928Y-82099999D01*
X47536928Y-83000001D01*
X47553992Y-83173255D01*
X47604528Y-83339851D01*
X47686595Y-83493387D01*
X47797038Y-83627962D01*
X47931613Y-83738405D01*
X48085149Y-83820472D01*
X48251745Y-83871008D01*
X48424999Y-83888072D01*
X49075001Y-83888072D01*
X49248255Y-83871008D01*
X49414851Y-83820472D01*
X49568387Y-83738405D01*
X49702962Y-83627962D01*
X49775000Y-83540184D01*
X49847038Y-83627962D01*
X49885594Y-83659604D01*
X48239003Y-85306196D01*
X48209999Y-85329999D01*
X48167121Y-85382247D01*
X48115026Y-85445724D01*
X48044455Y-85577753D01*
X48044454Y-85577754D01*
X48000997Y-85721015D01*
X47990000Y-85832668D01*
X47990000Y-85832678D01*
X47986324Y-85870000D01*
X47990000Y-85907323D01*
X47990001Y-87680386D01*
X47931613Y-87711595D01*
X47797038Y-87822038D01*
X47686595Y-87956613D01*
X47604528Y-88110149D01*
X47553992Y-88276745D01*
X47536928Y-88449999D01*
X47536928Y-89350001D01*
X47553992Y-89523255D01*
X47604528Y-89689851D01*
X47686595Y-89843387D01*
X47797038Y-89977962D01*
X47931613Y-90088405D01*
X47990000Y-90119614D01*
X47990001Y-94030386D01*
X47931613Y-94061595D01*
X47797038Y-94172038D01*
X47686595Y-94306613D01*
X47604528Y-94460149D01*
X47553992Y-94626745D01*
X47536928Y-94799999D01*
X47536928Y-95700001D01*
X47553992Y-95873255D01*
X47604528Y-96039851D01*
X47686595Y-96193387D01*
X47797038Y-96327962D01*
X47931613Y-96438405D01*
X47990001Y-96469614D01*
X47990000Y-98242677D01*
X47986324Y-98280000D01*
X47990000Y-98317322D01*
X47990000Y-98317332D01*
X48000997Y-98428985D01*
X48034370Y-98539003D01*
X48044454Y-98572246D01*
X48115026Y-98704276D01*
X48154871Y-98752826D01*
X48209999Y-98820001D01*
X48239002Y-98843803D01*
X48966201Y-99571002D01*
X48989999Y-99600001D01*
X49018997Y-99623799D01*
X49105724Y-99694974D01*
X49237753Y-99765546D01*
X49381014Y-99809003D01*
X49530000Y-99823677D01*
X49567333Y-99820000D01*
X52032678Y-99820000D01*
X52070000Y-99823676D01*
X52107322Y-99820000D01*
X52107333Y-99820000D01*
X52218986Y-99809003D01*
X52362247Y-99765546D01*
X52494276Y-99694974D01*
X52610001Y-99600001D01*
X52633804Y-99570997D01*
X53851003Y-98353799D01*
X53880001Y-98330001D01*
X53974974Y-98214276D01*
X54045546Y-98082247D01*
X54089003Y-97938986D01*
X54100000Y-97827333D01*
X54100000Y-97827324D01*
X54103676Y-97790001D01*
X54100000Y-97752678D01*
X54100000Y-89214801D01*
X58099802Y-85215000D01*
X67160515Y-85215000D01*
X67194315Y-85256185D01*
X67291006Y-85335537D01*
X67401320Y-85394502D01*
X67521018Y-85430812D01*
X67645500Y-85443072D01*
X69170500Y-85443072D01*
X69294982Y-85430812D01*
X69414680Y-85394502D01*
X69524994Y-85335537D01*
X69621685Y-85256185D01*
X69701037Y-85159494D01*
X69760002Y-85049180D01*
X69796312Y-84929482D01*
X69808572Y-84805000D01*
X69808572Y-84172610D01*
X69830820Y-84184502D01*
X69950518Y-84220812D01*
X70075000Y-84233072D01*
X70834250Y-84230000D01*
X70993000Y-84071250D01*
X70993000Y-82677000D01*
X70973000Y-82677000D01*
X70973000Y-82423000D01*
X70993000Y-82423000D01*
X70993000Y-81028750D01*
X70834250Y-80870000D01*
X70075000Y-80866928D01*
X69950518Y-80879188D01*
X69830820Y-80915498D01*
X69808572Y-80927390D01*
X69808572Y-80295000D01*
X69796312Y-80170518D01*
X69760002Y-80050820D01*
X69701037Y-79940506D01*
X69621685Y-79843815D01*
X69524994Y-79764463D01*
X69414680Y-79705498D01*
X69294982Y-79669188D01*
X69230500Y-79662837D01*
X69230500Y-70988387D01*
X69234478Y-70947999D01*
X69230500Y-70907611D01*
X69230500Y-70907602D01*
X69218598Y-70786762D01*
X69171567Y-70631720D01*
X69095192Y-70488833D01*
X68992409Y-70363591D01*
X68961026Y-70337836D01*
X67115165Y-68491975D01*
X67089409Y-68460591D01*
X66964167Y-68357808D01*
X66821280Y-68281433D01*
X66666238Y-68234402D01*
X66545398Y-68222500D01*
X66505000Y-68218521D01*
X66464602Y-68222500D01*
X64717887Y-68222500D01*
X64713405Y-68214114D01*
X64602962Y-68079538D01*
X64468386Y-67969095D01*
X64314850Y-67887028D01*
X64148254Y-67836492D01*
X63975000Y-67819428D01*
X63025000Y-67819428D01*
X62851746Y-67836492D01*
X62685150Y-67887028D01*
X62531614Y-67969095D01*
X62397038Y-68079538D01*
X62286595Y-68214114D01*
X62242024Y-68297500D01*
X62159569Y-68297500D01*
X62148405Y-68276613D01*
X62037962Y-68142038D01*
X61903387Y-68031595D01*
X61749851Y-67949528D01*
X61583255Y-67898992D01*
X61410001Y-67881928D01*
X60509999Y-67881928D01*
X60336745Y-67898992D01*
X60170149Y-67949528D01*
X60016613Y-68031595D01*
X59882038Y-68142038D01*
X59771595Y-68276613D01*
X59760431Y-68297500D01*
X59300691Y-68297500D01*
X56782500Y-65779310D01*
X56782500Y-64662702D01*
X95056903Y-64662702D01*
X95128486Y-64906671D01*
X95383996Y-65027571D01*
X95658184Y-65096300D01*
X95940512Y-65110217D01*
X96220130Y-65068787D01*
X96486292Y-64973603D01*
X96611514Y-64906671D01*
X96683097Y-64662702D01*
X95870000Y-63849605D01*
X95056903Y-64662702D01*
X56782500Y-64662702D01*
X56782500Y-63740512D01*
X94429783Y-63740512D01*
X94471213Y-64020130D01*
X94566397Y-64286292D01*
X94633329Y-64411514D01*
X94877298Y-64483097D01*
X95690395Y-63670000D01*
X94877298Y-62856903D01*
X94633329Y-62928486D01*
X94512429Y-63183996D01*
X94443700Y-63458184D01*
X94429783Y-63740512D01*
X56782500Y-63740512D01*
X56782500Y-62451653D01*
X91487952Y-62451653D01*
X91643962Y-62767214D01*
X92018745Y-62958020D01*
X92423551Y-63072044D01*
X92842824Y-63104902D01*
X93260451Y-63055334D01*
X93660383Y-62925243D01*
X93956038Y-62767214D01*
X94000491Y-62677298D01*
X95056903Y-62677298D01*
X95870000Y-63490395D01*
X96683097Y-62677298D01*
X96611514Y-62433329D01*
X96356004Y-62312429D01*
X96081816Y-62243700D01*
X95799488Y-62229783D01*
X95519870Y-62271213D01*
X95253708Y-62366397D01*
X95128486Y-62433329D01*
X95056903Y-62677298D01*
X94000491Y-62677298D01*
X94112048Y-62451653D01*
X92800000Y-61139605D01*
X91487952Y-62451653D01*
X56782500Y-62451653D01*
X56782500Y-62270398D01*
X56786479Y-62230000D01*
X56770598Y-62068762D01*
X56723567Y-61913720D01*
X56647192Y-61770833D01*
X56570161Y-61676970D01*
X56544409Y-61645591D01*
X56513031Y-61619840D01*
X55896015Y-61002824D01*
X90655098Y-61002824D01*
X90704666Y-61420451D01*
X90834757Y-61820383D01*
X90992786Y-62116038D01*
X91308347Y-62272048D01*
X92620395Y-60960000D01*
X92979605Y-60960000D01*
X94291653Y-62272048D01*
X94607214Y-62116038D01*
X94798020Y-61741255D01*
X94912044Y-61336449D01*
X94938189Y-61002824D01*
X103795098Y-61002824D01*
X103844666Y-61420451D01*
X103974757Y-61820383D01*
X104132786Y-62116038D01*
X104448347Y-62272048D01*
X105760395Y-60960000D01*
X106119605Y-60960000D01*
X107431653Y-62272048D01*
X107747214Y-62116038D01*
X107938020Y-61741255D01*
X108052044Y-61336449D01*
X108084902Y-60917176D01*
X108035334Y-60499549D01*
X107905243Y-60099617D01*
X107747214Y-59803962D01*
X107431653Y-59647952D01*
X106119605Y-60960000D01*
X105760395Y-60960000D01*
X104448347Y-59647952D01*
X104132786Y-59803962D01*
X103941980Y-60178745D01*
X103827956Y-60583551D01*
X103795098Y-61002824D01*
X94938189Y-61002824D01*
X94944902Y-60917176D01*
X94895334Y-60499549D01*
X94765243Y-60099617D01*
X94607214Y-59803962D01*
X94291653Y-59647952D01*
X92979605Y-60960000D01*
X92620395Y-60960000D01*
X91308347Y-59647952D01*
X90992786Y-59803962D01*
X90801980Y-60178745D01*
X90687956Y-60583551D01*
X90655098Y-61002824D01*
X55896015Y-61002824D01*
X55886019Y-60992829D01*
X55974494Y-60945537D01*
X56071185Y-60866185D01*
X56150537Y-60769494D01*
X56209502Y-60659180D01*
X56245812Y-60539482D01*
X56258072Y-60415000D01*
X56257247Y-60297104D01*
X56263000Y-60292954D01*
X56263000Y-58902000D01*
X56517000Y-58902000D01*
X56517000Y-60292954D01*
X56691874Y-60419119D01*
X56914976Y-60339276D01*
X57102764Y-60217369D01*
X57263161Y-60061169D01*
X57390003Y-59876678D01*
X57478415Y-59670987D01*
X57521522Y-59468347D01*
X91487952Y-59468347D01*
X92800000Y-60780395D01*
X94112048Y-59468347D01*
X104627952Y-59468347D01*
X105940000Y-60780395D01*
X107252048Y-59468347D01*
X107096038Y-59152786D01*
X106721255Y-58961980D01*
X106316449Y-58847956D01*
X105897176Y-58815098D01*
X105479549Y-58864666D01*
X105079617Y-58994757D01*
X104783962Y-59152786D01*
X104627952Y-59468347D01*
X94112048Y-59468347D01*
X93956038Y-59152786D01*
X93581255Y-58961980D01*
X93176449Y-58847956D01*
X92757176Y-58815098D01*
X92339549Y-58864666D01*
X91939617Y-58994757D01*
X91643962Y-59152786D01*
X91487952Y-59468347D01*
X57521522Y-59468347D01*
X57525000Y-59452000D01*
X57525000Y-58902000D01*
X56517000Y-58902000D01*
X56263000Y-58902000D01*
X56251867Y-58902000D01*
X56245812Y-58840518D01*
X56243000Y-58831248D01*
X56243000Y-58648000D01*
X56263000Y-58648000D01*
X56263000Y-57257046D01*
X56517000Y-57257046D01*
X56517000Y-58648000D01*
X57525000Y-58648000D01*
X57525000Y-58098000D01*
X57478415Y-57879013D01*
X57390003Y-57673322D01*
X57263161Y-57488831D01*
X57102764Y-57332631D01*
X56914976Y-57210724D01*
X56691874Y-57130881D01*
X56517000Y-57257046D01*
X56263000Y-57257046D01*
X56088126Y-57130881D01*
X55865024Y-57210724D01*
X55677236Y-57332631D01*
X55532884Y-57473206D01*
X55414731Y-57394259D01*
X55240022Y-57321892D01*
X55054552Y-57285000D01*
X54865448Y-57285000D01*
X54679978Y-57321892D01*
X54505269Y-57394259D01*
X54348036Y-57499319D01*
X54214319Y-57633036D01*
X54132826Y-57754999D01*
X50007174Y-57754999D01*
X49925681Y-57633036D01*
X49791964Y-57499319D01*
X49634731Y-57394259D01*
X49460022Y-57321892D01*
X49274552Y-57285000D01*
X49085448Y-57285000D01*
X48899978Y-57321892D01*
X48725269Y-57394259D01*
X48607116Y-57473206D01*
X48462764Y-57332631D01*
X48274976Y-57210724D01*
X48051874Y-57130881D01*
X47877000Y-57257046D01*
X47877000Y-58648000D01*
X47897000Y-58648000D01*
X47897000Y-58831248D01*
X47894188Y-58840518D01*
X47888133Y-58902000D01*
X47877000Y-58902000D01*
X47877000Y-60292954D01*
X47882753Y-60297104D01*
X47881928Y-60415000D01*
X47894188Y-60539482D01*
X47930498Y-60659180D01*
X47989463Y-60769494D01*
X48068815Y-60866185D01*
X48165506Y-60945537D01*
X48275820Y-61004502D01*
X48395518Y-61040812D01*
X48520000Y-61053072D01*
X48534250Y-61050000D01*
X48693000Y-60891250D01*
X48693000Y-60527420D01*
X48694188Y-60539482D01*
X48730498Y-60659180D01*
X48789463Y-60769494D01*
X48868815Y-60866185D01*
X48965506Y-60945537D01*
X49042375Y-60986625D01*
X49105750Y-61050000D01*
X49120000Y-61053072D01*
X49220000Y-61043223D01*
X49320000Y-61053072D01*
X49585000Y-61053072D01*
X49584999Y-63246370D01*
X49529528Y-63350149D01*
X49478992Y-63516745D01*
X49461928Y-63689999D01*
X49461928Y-64390001D01*
X49478992Y-64563255D01*
X49529528Y-64729851D01*
X49611595Y-64883387D01*
X49678276Y-64964637D01*
X49648815Y-64988815D01*
X49569463Y-65085506D01*
X49510498Y-65195820D01*
X49474188Y-65315518D01*
X49461928Y-65440000D01*
X49465000Y-65754250D01*
X49623750Y-65913000D01*
X50673000Y-65913000D01*
X50673000Y-65893000D01*
X50927000Y-65893000D01*
X50927000Y-65913000D01*
X51976250Y-65913000D01*
X52070000Y-65819250D01*
X52163750Y-65913000D01*
X53213000Y-65913000D01*
X53213000Y-65893000D01*
X53467000Y-65893000D01*
X53467000Y-65913000D01*
X54516250Y-65913000D01*
X54675000Y-65754250D01*
X54678072Y-65440000D01*
X54665812Y-65315518D01*
X54629502Y-65195820D01*
X54570537Y-65085506D01*
X54491185Y-64988815D01*
X54461724Y-64964637D01*
X54528405Y-64883387D01*
X54610472Y-64729851D01*
X54661008Y-64563255D01*
X54678072Y-64390001D01*
X54678072Y-63689999D01*
X54661008Y-63516745D01*
X54610472Y-63350149D01*
X54528405Y-63196613D01*
X54417962Y-63062038D01*
X54283387Y-62951595D01*
X54129851Y-62869528D01*
X54100000Y-62860473D01*
X54100000Y-61533190D01*
X55137500Y-62570691D01*
X55137501Y-66079592D01*
X55133521Y-66120000D01*
X55149402Y-66281238D01*
X55196433Y-66436279D01*
X55196434Y-66436280D01*
X55272809Y-66579167D01*
X55375592Y-66704409D01*
X55406971Y-66730161D01*
X58349839Y-69673030D01*
X58375591Y-69704409D01*
X58406970Y-69730161D01*
X58500833Y-69807192D01*
X58643720Y-69883567D01*
X58798762Y-69930598D01*
X58960000Y-69946479D01*
X59000398Y-69942500D01*
X59760431Y-69942500D01*
X59771595Y-69963387D01*
X59882038Y-70097962D01*
X59908891Y-70120000D01*
X59882038Y-70142038D01*
X59771595Y-70276613D01*
X59689528Y-70430149D01*
X59638992Y-70596745D01*
X59621928Y-70769999D01*
X59621928Y-71470001D01*
X59638992Y-71643255D01*
X59689528Y-71809851D01*
X59771595Y-71963387D01*
X59882038Y-72097962D01*
X60016613Y-72208405D01*
X60170149Y-72290472D01*
X60200000Y-72299527D01*
X60200001Y-72950389D01*
X60145150Y-72967028D01*
X59991614Y-73049095D01*
X59857038Y-73159538D01*
X59746595Y-73294114D01*
X59664528Y-73447650D01*
X59613992Y-73614246D01*
X59596928Y-73787500D01*
X59596928Y-74462500D01*
X59613992Y-74635754D01*
X59664528Y-74802350D01*
X59746595Y-74955886D01*
X59857038Y-75090462D01*
X59863594Y-75095842D01*
X59783815Y-75161315D01*
X59704463Y-75258006D01*
X59645498Y-75368320D01*
X59609188Y-75488018D01*
X59596928Y-75612500D01*
X59600000Y-75914250D01*
X59758750Y-76073000D01*
X60833000Y-76073000D01*
X60833000Y-76053000D01*
X61087000Y-76053000D01*
X61087000Y-76073000D01*
X62161250Y-76073000D01*
X62320000Y-75914250D01*
X62323072Y-75612500D01*
X62310812Y-75488018D01*
X62274502Y-75368320D01*
X62215537Y-75258006D01*
X62136185Y-75161315D01*
X62056406Y-75095842D01*
X62062962Y-75090462D01*
X62173405Y-74955886D01*
X62255472Y-74802350D01*
X62306008Y-74635754D01*
X62323072Y-74462500D01*
X62323072Y-73787500D01*
X62306008Y-73614246D01*
X62255472Y-73447650D01*
X62173405Y-73294114D01*
X62062962Y-73159538D01*
X61928386Y-73049095D01*
X61774850Y-72967028D01*
X61720000Y-72950390D01*
X61720000Y-72299527D01*
X61749851Y-72290472D01*
X61903387Y-72208405D01*
X62037962Y-72097962D01*
X62148405Y-71963387D01*
X62174334Y-71914877D01*
X62185498Y-71951680D01*
X62244463Y-72061994D01*
X62323815Y-72158685D01*
X62420506Y-72238037D01*
X62530820Y-72297002D01*
X62650518Y-72333312D01*
X62775000Y-72345572D01*
X63214250Y-72342500D01*
X63373000Y-72183750D01*
X63373000Y-71247000D01*
X63627000Y-71247000D01*
X63627000Y-72183750D01*
X63785750Y-72342500D01*
X64225000Y-72345572D01*
X64349482Y-72333312D01*
X64469180Y-72297002D01*
X64579494Y-72238037D01*
X64676185Y-72158685D01*
X64755537Y-72061994D01*
X64814502Y-71951680D01*
X64850812Y-71831982D01*
X64863072Y-71707500D01*
X64860000Y-71405750D01*
X64701250Y-71247000D01*
X63627000Y-71247000D01*
X63373000Y-71247000D01*
X63353000Y-71247000D01*
X63353000Y-70993000D01*
X63373000Y-70993000D01*
X63373000Y-70973000D01*
X63627000Y-70973000D01*
X63627000Y-70993000D01*
X64701250Y-70993000D01*
X64860000Y-70834250D01*
X64863072Y-70532500D01*
X64850812Y-70408018D01*
X64814502Y-70288320D01*
X64755537Y-70178006D01*
X64676185Y-70081315D01*
X64596406Y-70015842D01*
X64602962Y-70010462D01*
X64713405Y-69875886D01*
X64717887Y-69867500D01*
X66164310Y-69867500D01*
X67585500Y-71288690D01*
X67585501Y-79662837D01*
X67521018Y-79669188D01*
X67401320Y-79705498D01*
X67291006Y-79764463D01*
X67194315Y-79843815D01*
X67114963Y-79940506D01*
X67055998Y-80050820D01*
X67019688Y-80170518D01*
X67007428Y-80295000D01*
X67007428Y-80995000D01*
X67019688Y-81119482D01*
X67030462Y-81155000D01*
X56829802Y-81155000D01*
X54100000Y-78425199D01*
X54100000Y-76787500D01*
X59596928Y-76787500D01*
X59609188Y-76911982D01*
X59645498Y-77031680D01*
X59704463Y-77141994D01*
X59783815Y-77238685D01*
X59880506Y-77318037D01*
X59990820Y-77377002D01*
X60110518Y-77413312D01*
X60235000Y-77425572D01*
X60674250Y-77422500D01*
X60833000Y-77263750D01*
X60833000Y-76327000D01*
X61087000Y-76327000D01*
X61087000Y-77263750D01*
X61245750Y-77422500D01*
X61685000Y-77425572D01*
X61809482Y-77413312D01*
X61929180Y-77377002D01*
X62039494Y-77318037D01*
X62136185Y-77238685D01*
X62215537Y-77141994D01*
X62274502Y-77031680D01*
X62310812Y-76911982D01*
X62323072Y-76787500D01*
X62320000Y-76485750D01*
X62161250Y-76327000D01*
X61087000Y-76327000D01*
X60833000Y-76327000D01*
X59758750Y-76327000D01*
X59600000Y-76485750D01*
X59596928Y-76787500D01*
X54100000Y-76787500D01*
X54100000Y-74967322D01*
X54103676Y-74929999D01*
X54100000Y-74892676D01*
X54100000Y-74892667D01*
X54089003Y-74781014D01*
X54045546Y-74637753D01*
X53974974Y-74505724D01*
X53880001Y-74389999D01*
X53851004Y-74366202D01*
X52633804Y-73149003D01*
X52610001Y-73119999D01*
X52494276Y-73025026D01*
X52362247Y-72954454D01*
X52218986Y-72910997D01*
X52107333Y-72900000D01*
X52107322Y-72900000D01*
X52070000Y-72896324D01*
X52032678Y-72900000D01*
X49567333Y-72900000D01*
X49530000Y-72896323D01*
X49492667Y-72900000D01*
X49381014Y-72910997D01*
X49237753Y-72954454D01*
X49105724Y-73025026D01*
X48989999Y-73119999D01*
X48966201Y-73148998D01*
X48238998Y-73876201D01*
X48210000Y-73899999D01*
X48186202Y-73928997D01*
X48186201Y-73928998D01*
X48115026Y-74015724D01*
X48044454Y-74147754D01*
X48000998Y-74291015D01*
X47986324Y-74440000D01*
X47990001Y-74477332D01*
X47990001Y-74980386D01*
X47931613Y-75011595D01*
X47797038Y-75122038D01*
X47686595Y-75256613D01*
X47604528Y-75410149D01*
X47553992Y-75576745D01*
X47536928Y-75749999D01*
X38760000Y-75749999D01*
X38760000Y-66640000D01*
X49461928Y-66640000D01*
X49474188Y-66764482D01*
X49510498Y-66884180D01*
X49569463Y-66994494D01*
X49648815Y-67091185D01*
X49745506Y-67170537D01*
X49855820Y-67229502D01*
X49975518Y-67265812D01*
X50100000Y-67278072D01*
X50514250Y-67275000D01*
X50673000Y-67116250D01*
X50673000Y-66167000D01*
X50927000Y-66167000D01*
X50927000Y-67116250D01*
X51085750Y-67275000D01*
X51500000Y-67278072D01*
X51624482Y-67265812D01*
X51744180Y-67229502D01*
X51854494Y-67170537D01*
X51951185Y-67091185D01*
X52030537Y-66994494D01*
X52070000Y-66920665D01*
X52109463Y-66994494D01*
X52188815Y-67091185D01*
X52285506Y-67170537D01*
X52395820Y-67229502D01*
X52515518Y-67265812D01*
X52640000Y-67278072D01*
X53054250Y-67275000D01*
X53213000Y-67116250D01*
X53213000Y-66167000D01*
X53467000Y-66167000D01*
X53467000Y-67116250D01*
X53625750Y-67275000D01*
X54040000Y-67278072D01*
X54164482Y-67265812D01*
X54284180Y-67229502D01*
X54394494Y-67170537D01*
X54491185Y-67091185D01*
X54570537Y-66994494D01*
X54629502Y-66884180D01*
X54665812Y-66764482D01*
X54678072Y-66640000D01*
X54675000Y-66325750D01*
X54516250Y-66167000D01*
X53467000Y-66167000D01*
X53213000Y-66167000D01*
X52163750Y-66167000D01*
X52070000Y-66260750D01*
X51976250Y-66167000D01*
X50927000Y-66167000D01*
X50673000Y-66167000D01*
X49623750Y-66167000D01*
X49465000Y-66325750D01*
X49461928Y-66640000D01*
X38760000Y-66640000D01*
X38760000Y-58902000D01*
X46615000Y-58902000D01*
X46615000Y-59452000D01*
X46661585Y-59670987D01*
X46749997Y-59876678D01*
X46876839Y-60061169D01*
X47037236Y-60217369D01*
X47225024Y-60339276D01*
X47448126Y-60419119D01*
X47623000Y-60292954D01*
X47623000Y-58902000D01*
X46615000Y-58902000D01*
X38760000Y-58902000D01*
X38760000Y-58449392D01*
X38791360Y-58098000D01*
X46615000Y-58098000D01*
X46615000Y-58648000D01*
X47623000Y-58648000D01*
X47623000Y-57257046D01*
X47448126Y-57130881D01*
X47225024Y-57210724D01*
X47037236Y-57332631D01*
X46876839Y-57488831D01*
X46749997Y-57673322D01*
X46661585Y-57879013D01*
X46615000Y-58098000D01*
X38791360Y-58098000D01*
X38832437Y-57637751D01*
X39039672Y-56880226D01*
X39377777Y-56171375D01*
X39836067Y-55533596D01*
X40400055Y-54987054D01*
X40794496Y-54722000D01*
X46615000Y-54722000D01*
X46615000Y-55022000D01*
X46661585Y-55240987D01*
X46749997Y-55446678D01*
X46876839Y-55631169D01*
X47037236Y-55787369D01*
X47225024Y-55909276D01*
X47448126Y-55989119D01*
X47623000Y-55862954D01*
X47623000Y-54722000D01*
X47877000Y-54722000D01*
X47877000Y-55862954D01*
X48051874Y-55989119D01*
X48274976Y-55909276D01*
X48462764Y-55787369D01*
X48623161Y-55631169D01*
X48750003Y-55446678D01*
X48838415Y-55240987D01*
X48885000Y-55022000D01*
X48885000Y-54722000D01*
X55255000Y-54722000D01*
X55255000Y-55022000D01*
X55301585Y-55240987D01*
X55389997Y-55446678D01*
X55516839Y-55631169D01*
X55677236Y-55787369D01*
X55865024Y-55909276D01*
X56088126Y-55989119D01*
X56263000Y-55862954D01*
X56263000Y-54722000D01*
X56517000Y-54722000D01*
X56517000Y-55862954D01*
X56691874Y-55989119D01*
X56914976Y-55909276D01*
X57102764Y-55787369D01*
X57263161Y-55631169D01*
X57390003Y-55446678D01*
X57478415Y-55240987D01*
X57525000Y-55022000D01*
X57525000Y-54722000D01*
X56517000Y-54722000D01*
X56263000Y-54722000D01*
X55255000Y-54722000D01*
X48885000Y-54722000D01*
X47877000Y-54722000D01*
X47623000Y-54722000D01*
X46615000Y-54722000D01*
X40794496Y-54722000D01*
X41051913Y-54549023D01*
X41771038Y-54233349D01*
X42539768Y-54048794D01*
X43204207Y-54000000D01*
X46650739Y-54000000D01*
X46615000Y-54168000D01*
G37*
%TD.AperFunction*%
D25*
X102110001Y-77765500D02*
X102092998Y-77765500D01*
X102092998Y-77839656D01*
X102048021Y-77814739D01*
X101995779Y-77798029D01*
X101963250Y-77765500D01*
X101895000Y-77772939D01*
X101826750Y-77765500D01*
X101794221Y-77798029D01*
X101741979Y-77814739D01*
X101632564Y-77875356D01*
X101570282Y-77928057D01*
X101499494Y-77869963D01*
X101389180Y-77810998D01*
X101345497Y-77797747D01*
X101313250Y-77765500D01*
X101248191Y-77772591D01*
X101145000Y-77762428D01*
X100695000Y-77762428D01*
X100570518Y-77774688D01*
X100450820Y-77810998D01*
X100340506Y-77869963D01*
X100243815Y-77949315D01*
X100164463Y-78046006D01*
X100105498Y-78156320D01*
X100069188Y-78276018D01*
X100056928Y-78400500D01*
X100056928Y-78926270D01*
X98549003Y-80434196D01*
X98519999Y-80457999D01*
X98476913Y-80510500D01*
X98425026Y-80573724D01*
X98365335Y-80685397D01*
X98354454Y-80705754D01*
X98310997Y-80849015D01*
X98300000Y-80960668D01*
X98300000Y-80960678D01*
X98296324Y-80998000D01*
X98300000Y-81035323D01*
X98300001Y-86322668D01*
X98296324Y-86360000D01*
X98310998Y-86508985D01*
X98354454Y-86652246D01*
X98425026Y-86784276D01*
X98492361Y-86866323D01*
X98520000Y-86900001D01*
X98548998Y-86923799D01*
X100210000Y-88584802D01*
X100210000Y-89144556D01*
X100139463Y-89230506D01*
X100080498Y-89340820D01*
X100044188Y-89460518D01*
X100031928Y-89585000D01*
X100031928Y-90835000D01*
X100044188Y-90959482D01*
X100080498Y-91079180D01*
X100139463Y-91189494D01*
X100218815Y-91286185D01*
X100315506Y-91365537D01*
X100425820Y-91424502D01*
X100542841Y-91460000D01*
X100425820Y-91495498D01*
X100315506Y-91554463D01*
X100218815Y-91633815D01*
X100139463Y-91730506D01*
X100080498Y-91840820D01*
X100044188Y-91960518D01*
X100031928Y-92085000D01*
X100031928Y-93335000D01*
X100044188Y-93459482D01*
X100080498Y-93579180D01*
X100139463Y-93689494D01*
X100218815Y-93786185D01*
X100315506Y-93865537D01*
X100425820Y-93924502D01*
X100545518Y-93960812D01*
X100670000Y-93973072D01*
X101097500Y-93973072D01*
X101097501Y-96324309D01*
X100744882Y-96676928D01*
X100670000Y-96676928D01*
X100499184Y-96693752D01*
X100334933Y-96743577D01*
X100183558Y-96824488D01*
X100050877Y-96933377D01*
X100022873Y-96967500D01*
X99400690Y-96967500D01*
X97342500Y-94909310D01*
X97342500Y-77810690D01*
X98130690Y-77022500D01*
X100229102Y-77022500D01*
X100269500Y-77026479D01*
X100309898Y-77022500D01*
X100430738Y-77010598D01*
X100585780Y-76963567D01*
X100728667Y-76887192D01*
X100853909Y-76784409D01*
X100879665Y-76753025D01*
X102110000Y-75522690D01*
X102110001Y-77765500D01*
%TA.AperFunction,Conductor*%
D26*
G36*
X102110001Y-77765500D02*
G01*
X102092998Y-77765500D01*
X102092998Y-77839656D01*
X102048021Y-77814739D01*
X101995779Y-77798029D01*
X101963250Y-77765500D01*
X101895000Y-77772939D01*
X101826750Y-77765500D01*
X101794221Y-77798029D01*
X101741979Y-77814739D01*
X101632564Y-77875356D01*
X101570282Y-77928057D01*
X101499494Y-77869963D01*
X101389180Y-77810998D01*
X101345497Y-77797747D01*
X101313250Y-77765500D01*
X101248191Y-77772591D01*
X101145000Y-77762428D01*
X100695000Y-77762428D01*
X100570518Y-77774688D01*
X100450820Y-77810998D01*
X100340506Y-77869963D01*
X100243815Y-77949315D01*
X100164463Y-78046006D01*
X100105498Y-78156320D01*
X100069188Y-78276018D01*
X100056928Y-78400500D01*
X100056928Y-78926270D01*
X98549003Y-80434196D01*
X98519999Y-80457999D01*
X98476913Y-80510500D01*
X98425026Y-80573724D01*
X98365335Y-80685397D01*
X98354454Y-80705754D01*
X98310997Y-80849015D01*
X98300000Y-80960668D01*
X98300000Y-80960678D01*
X98296324Y-80998000D01*
X98300000Y-81035323D01*
X98300001Y-86322668D01*
X98296324Y-86360000D01*
X98310998Y-86508985D01*
X98354454Y-86652246D01*
X98425026Y-86784276D01*
X98492361Y-86866323D01*
X98520000Y-86900001D01*
X98548998Y-86923799D01*
X100210000Y-88584802D01*
X100210000Y-89144556D01*
X100139463Y-89230506D01*
X100080498Y-89340820D01*
X100044188Y-89460518D01*
X100031928Y-89585000D01*
X100031928Y-90835000D01*
X100044188Y-90959482D01*
X100080498Y-91079180D01*
X100139463Y-91189494D01*
X100218815Y-91286185D01*
X100315506Y-91365537D01*
X100425820Y-91424502D01*
X100542841Y-91460000D01*
X100425820Y-91495498D01*
X100315506Y-91554463D01*
X100218815Y-91633815D01*
X100139463Y-91730506D01*
X100080498Y-91840820D01*
X100044188Y-91960518D01*
X100031928Y-92085000D01*
X100031928Y-93335000D01*
X100044188Y-93459482D01*
X100080498Y-93579180D01*
X100139463Y-93689494D01*
X100218815Y-93786185D01*
X100315506Y-93865537D01*
X100425820Y-93924502D01*
X100545518Y-93960812D01*
X100670000Y-93973072D01*
X101097500Y-93973072D01*
X101097501Y-96324309D01*
X100744882Y-96676928D01*
X100670000Y-96676928D01*
X100499184Y-96693752D01*
X100334933Y-96743577D01*
X100183558Y-96824488D01*
X100050877Y-96933377D01*
X100022873Y-96967500D01*
X99400690Y-96967500D01*
X97342500Y-94909310D01*
X97342500Y-77810690D01*
X98130690Y-77022500D01*
X100229102Y-77022500D01*
X100269500Y-77026479D01*
X100309898Y-77022500D01*
X100430738Y-77010598D01*
X100585780Y-76963567D01*
X100728667Y-76887192D01*
X100853909Y-76784409D01*
X100879665Y-76753025D01*
X102110000Y-75522690D01*
X102110001Y-77765500D01*
G37*
%TD.AperFunction*%
D25*
X104650001Y-71434803D02*
X104650000Y-84775197D01*
X102358998Y-87066201D01*
X102330000Y-87089999D01*
X102306202Y-87118997D01*
X102306201Y-87118998D01*
X102242013Y-87197211D01*
X101360000Y-86315199D01*
X101360000Y-85322976D01*
X101443387Y-85278405D01*
X101524637Y-85211724D01*
X101548815Y-85241185D01*
X101645506Y-85320537D01*
X101755820Y-85379502D01*
X101875518Y-85415812D01*
X102000000Y-85428072D01*
X102314250Y-85425000D01*
X102473000Y-85266250D01*
X102473000Y-84217000D01*
X102727000Y-84217000D01*
X102727000Y-85266250D01*
X102885750Y-85425000D01*
X103200000Y-85428072D01*
X103324482Y-85415812D01*
X103444180Y-85379502D01*
X103554494Y-85320537D01*
X103651185Y-85241185D01*
X103730537Y-85144494D01*
X103789502Y-85034180D01*
X103825812Y-84914482D01*
X103838072Y-84790000D01*
X103835000Y-84375750D01*
X103676250Y-84217000D01*
X102727000Y-84217000D01*
X102473000Y-84217000D01*
X102453000Y-84217000D01*
X102453000Y-83963000D01*
X102473000Y-83963000D01*
X102473000Y-82913750D01*
X102727000Y-82913750D01*
X102727000Y-83963000D01*
X103676250Y-83963000D01*
X103835000Y-83804250D01*
X103838072Y-83390000D01*
X103825812Y-83265518D01*
X103789502Y-83145820D01*
X103730537Y-83035506D01*
X103651185Y-82938815D01*
X103554494Y-82859463D01*
X103444180Y-82800498D01*
X103324482Y-82764188D01*
X103200000Y-82751928D01*
X102885750Y-82755000D01*
X102727000Y-82913750D01*
X102473000Y-82913750D01*
X102314250Y-82755000D01*
X102000000Y-82751928D01*
X101875518Y-82764188D01*
X101755820Y-82800498D01*
X101645506Y-82859463D01*
X101548815Y-82938815D01*
X101524637Y-82968276D01*
X101443387Y-82901595D01*
X101289851Y-82819528D01*
X101123255Y-82768992D01*
X100950001Y-82751928D01*
X100249999Y-82751928D01*
X100076745Y-82768992D01*
X99910149Y-82819528D01*
X99820000Y-82867714D01*
X99820000Y-81312801D01*
X100626023Y-80506779D01*
X100695000Y-80513572D01*
X101145000Y-80513572D01*
X101248191Y-80503409D01*
X101313250Y-80510500D01*
X101345497Y-80478253D01*
X101389180Y-80465002D01*
X101499494Y-80406037D01*
X101570282Y-80347943D01*
X101632564Y-80400644D01*
X101741979Y-80461261D01*
X101794221Y-80477971D01*
X101826750Y-80510500D01*
X101895000Y-80503061D01*
X101963250Y-80510500D01*
X101995779Y-80477971D01*
X102048021Y-80461261D01*
X102157436Y-80400644D01*
X102219718Y-80347943D01*
X102290506Y-80406037D01*
X102400820Y-80465002D01*
X102444503Y-80478253D01*
X102476750Y-80510500D01*
X102541809Y-80503409D01*
X102645000Y-80513572D01*
X103095000Y-80513572D01*
X103219482Y-80501312D01*
X103339180Y-80465002D01*
X103449494Y-80406037D01*
X103546185Y-80326685D01*
X103625537Y-80229994D01*
X103684502Y-80119680D01*
X103720812Y-79999982D01*
X103733072Y-79875500D01*
X103733072Y-78400500D01*
X103720812Y-78276018D01*
X103684502Y-78156320D01*
X103630000Y-78054356D01*
X103630000Y-74345644D01*
X103684502Y-74243680D01*
X103720812Y-74123982D01*
X103733072Y-73999500D01*
X103733072Y-72524500D01*
X103720812Y-72400018D01*
X103684502Y-72280320D01*
X103625537Y-72170006D01*
X103546185Y-72073315D01*
X103449494Y-71993963D01*
X103339180Y-71934998D01*
X103219482Y-71898688D01*
X103095000Y-71886428D01*
X102645000Y-71886428D01*
X102545000Y-71896277D01*
X102445000Y-71886428D01*
X101995000Y-71886428D01*
X101895000Y-71896277D01*
X101795000Y-71886428D01*
X101680000Y-71886428D01*
X101680000Y-70844801D01*
X101914802Y-70610000D01*
X103825199Y-70610000D01*
X104650001Y-71434803D01*
%TA.AperFunction,Conductor*%
D26*
G36*
X104650001Y-71434803D02*
G01*
X104650000Y-84775197D01*
X102358998Y-87066201D01*
X102330000Y-87089999D01*
X102306202Y-87118997D01*
X102306201Y-87118998D01*
X102242013Y-87197211D01*
X101360000Y-86315199D01*
X101360000Y-85322976D01*
X101443387Y-85278405D01*
X101524637Y-85211724D01*
X101548815Y-85241185D01*
X101645506Y-85320537D01*
X101755820Y-85379502D01*
X101875518Y-85415812D01*
X102000000Y-85428072D01*
X102314250Y-85425000D01*
X102473000Y-85266250D01*
X102473000Y-84217000D01*
X102727000Y-84217000D01*
X102727000Y-85266250D01*
X102885750Y-85425000D01*
X103200000Y-85428072D01*
X103324482Y-85415812D01*
X103444180Y-85379502D01*
X103554494Y-85320537D01*
X103651185Y-85241185D01*
X103730537Y-85144494D01*
X103789502Y-85034180D01*
X103825812Y-84914482D01*
X103838072Y-84790000D01*
X103835000Y-84375750D01*
X103676250Y-84217000D01*
X102727000Y-84217000D01*
X102473000Y-84217000D01*
X102453000Y-84217000D01*
X102453000Y-83963000D01*
X102473000Y-83963000D01*
X102473000Y-82913750D01*
X102727000Y-82913750D01*
X102727000Y-83963000D01*
X103676250Y-83963000D01*
X103835000Y-83804250D01*
X103838072Y-83390000D01*
X103825812Y-83265518D01*
X103789502Y-83145820D01*
X103730537Y-83035506D01*
X103651185Y-82938815D01*
X103554494Y-82859463D01*
X103444180Y-82800498D01*
X103324482Y-82764188D01*
X103200000Y-82751928D01*
X102885750Y-82755000D01*
X102727000Y-82913750D01*
X102473000Y-82913750D01*
X102314250Y-82755000D01*
X102000000Y-82751928D01*
X101875518Y-82764188D01*
X101755820Y-82800498D01*
X101645506Y-82859463D01*
X101548815Y-82938815D01*
X101524637Y-82968276D01*
X101443387Y-82901595D01*
X101289851Y-82819528D01*
X101123255Y-82768992D01*
X100950001Y-82751928D01*
X100249999Y-82751928D01*
X100076745Y-82768992D01*
X99910149Y-82819528D01*
X99820000Y-82867714D01*
X99820000Y-81312801D01*
X100626023Y-80506779D01*
X100695000Y-80513572D01*
X101145000Y-80513572D01*
X101248191Y-80503409D01*
X101313250Y-80510500D01*
X101345497Y-80478253D01*
X101389180Y-80465002D01*
X101499494Y-80406037D01*
X101570282Y-80347943D01*
X101632564Y-80400644D01*
X101741979Y-80461261D01*
X101794221Y-80477971D01*
X101826750Y-80510500D01*
X101895000Y-80503061D01*
X101963250Y-80510500D01*
X101995779Y-80477971D01*
X102048021Y-80461261D01*
X102157436Y-80400644D01*
X102219718Y-80347943D01*
X102290506Y-80406037D01*
X102400820Y-80465002D01*
X102444503Y-80478253D01*
X102476750Y-80510500D01*
X102541809Y-80503409D01*
X102645000Y-80513572D01*
X103095000Y-80513572D01*
X103219482Y-80501312D01*
X103339180Y-80465002D01*
X103449494Y-80406037D01*
X103546185Y-80326685D01*
X103625537Y-80229994D01*
X103684502Y-80119680D01*
X103720812Y-79999982D01*
X103733072Y-79875500D01*
X103733072Y-78400500D01*
X103720812Y-78276018D01*
X103684502Y-78156320D01*
X103630000Y-78054356D01*
X103630000Y-74345644D01*
X103684502Y-74243680D01*
X103720812Y-74123982D01*
X103733072Y-73999500D01*
X103733072Y-72524500D01*
X103720812Y-72400018D01*
X103684502Y-72280320D01*
X103625537Y-72170006D01*
X103546185Y-72073315D01*
X103449494Y-71993963D01*
X103339180Y-71934998D01*
X103219482Y-71898688D01*
X103095000Y-71886428D01*
X102645000Y-71886428D01*
X102545000Y-71896277D01*
X102445000Y-71886428D01*
X101995000Y-71886428D01*
X101895000Y-71896277D01*
X101795000Y-71886428D01*
X101680000Y-71886428D01*
X101680000Y-70844801D01*
X101914802Y-70610000D01*
X103825199Y-70610000D01*
X104650001Y-71434803D01*
G37*
%TD.AperFunction*%
%TD*%
M02*
